<svg width="32" height="32" viewBox="0 0 32 32" fill="none" xmlns="http://www.w3.org/2000/svg">
<g clip-path="url(#clip0_191_7723)">
<path d="M23.3339 2.55603C21.8325 2.57938 20.3639 2.9985 19.0763 3.77106C17.7887 4.54362 16.7277 5.64226 16.0006 6.95603C15.2734 5.64226 14.2125 4.54362 12.9249 3.77106C11.6373 2.9985 10.1687 2.57938 8.66726 2.55603C6.27385 2.66002 4.01887 3.70704 2.39497 5.46834C0.771075 7.22964 -0.0897386 9.56206 0.000595429 11.956C0.000595429 18.0187 6.38193 24.64 11.7339 29.1294C12.9289 30.1335 14.4397 30.6841 16.0006 30.6841C17.5615 30.6841 19.0723 30.1335 20.2673 29.1294C25.6193 24.64 32.0006 18.0187 32.0006 11.956C32.0909 9.56206 31.2301 7.22964 29.6062 5.46834C27.9823 3.70704 25.7273 2.66002 23.3339 2.55603ZM18.5539 27.0894C17.8392 27.6912 16.9349 28.0212 16.0006 28.0212C15.0663 28.0212 14.162 27.6912 13.4473 27.0894C6.5966 21.3414 2.66726 15.8267 2.66726 11.956C2.57612 10.269 3.15575 8.61434 4.27975 7.35296C5.40374 6.09159 6.98091 5.32583 8.66726 5.2227C10.3536 5.32583 11.9308 6.09159 13.0548 7.35296C14.1788 8.61434 14.7584 10.269 14.6673 11.956C14.6673 12.3097 14.8077 12.6488 15.0578 12.8988C15.3078 13.1489 15.647 13.2894 16.0006 13.2894C16.3542 13.2894 16.6934 13.1489 16.9434 12.8988C17.1935 12.6488 17.3339 12.3097 17.3339 11.956C17.2428 10.269 17.8224 8.61434 18.9464 7.35296C20.0704 6.09159 21.6476 5.32583 23.3339 5.2227C25.0203 5.32583 26.5974 6.09159 27.7214 7.35296C28.8454 8.61434 29.4251 10.269 29.3339 11.956C29.3339 15.8267 25.4046 21.3414 18.5539 27.084V27.0894Z" fill="white"/>
</g>
<defs>
<clipPath id="clip0_191_7723">
<rect width="32" height="32" fill="white"/>
</clipPath>
</defs>
</svg>
