<svg width="32" height="32" viewBox="0 0 32 32" fill="none" xmlns="http://www.w3.org/2000/svg">
<g clip-path="url(#clip0_191_7758)">
<path d="M30.6673 21.3333C30.3137 21.3333 29.9746 21.4737 29.7245 21.7238C29.4745 21.9738 29.334 22.313 29.334 22.6666V25.3333C29.334 26.3941 28.9126 27.4115 28.1624 28.1617C27.4123 28.9118 26.3949 29.3333 25.334 29.3333H22.6673C22.3137 29.3333 21.9746 29.4737 21.7245 29.7238C21.4745 29.9738 21.334 30.313 21.334 30.6666C21.334 31.0202 21.4745 31.3593 21.7245 31.6094C21.9746 31.8594 22.3137 31.9999 22.6673 31.9999H25.334C27.1014 31.9978 28.7959 31.2947 30.0457 30.045C31.2955 28.7952 31.9985 27.1007 32.0007 25.3333V22.6666C32.0007 22.313 31.8602 21.9738 31.6101 21.7238C31.3601 21.4737 31.0209 21.3333 30.6673 21.3333Z" fill="white"/>
<path d="M1.33333 10.6667C1.68696 10.6667 2.02609 10.5262 2.27614 10.2761C2.52619 10.0261 2.66667 9.68696 2.66667 9.33333V6.66667C2.66667 5.6058 3.08809 4.58839 3.83824 3.83824C4.58839 3.08809 5.6058 2.66667 6.66667 2.66667H9.33333C9.68696 2.66667 10.0261 2.52619 10.2761 2.27614C10.5262 2.02609 10.6667 1.68696 10.6667 1.33333C10.6667 0.979711 10.5262 0.640573 10.2761 0.390524C10.0261 0.140476 9.68696 0 9.33333 0L6.66667 0C4.89921 0.00211714 3.20474 0.705176 1.95496 1.95496C0.705176 3.20474 0.00211714 4.89921 0 6.66667L0 9.33333C0 9.68696 0.140476 10.0261 0.390524 10.2761C0.640573 10.5262 0.979711 10.6667 1.33333 10.6667Z" fill="white"/>
<path d="M9.33333 29.3333H6.66667C5.6058 29.3333 4.58839 28.9118 3.83824 28.1617C3.08809 27.4115 2.66667 26.3941 2.66667 25.3333V22.6666C2.66667 22.313 2.52619 21.9738 2.27614 21.7238C2.02609 21.4737 1.68696 21.3333 1.33333 21.3333C0.979711 21.3333 0.640573 21.4737 0.390524 21.7238C0.140476 21.9738 0 22.313 0 22.6666L0 25.3333C0.00211714 27.1007 0.705176 28.7952 1.95496 30.045C3.20474 31.2947 4.89921 31.9978 6.66667 31.9999H9.33333C9.68696 31.9999 10.0261 31.8594 10.2761 31.6094C10.5262 31.3593 10.6667 31.0202 10.6667 30.6666C10.6667 30.313 10.5262 29.9738 10.2761 29.7238C10.0261 29.4737 9.68696 29.3333 9.33333 29.3333Z" fill="white"/>
<path d="M25.334 0H22.6673C22.3137 0 21.9746 0.140476 21.7245 0.390524C21.4745 0.640573 21.334 0.979711 21.334 1.33333C21.334 1.68696 21.4745 2.02609 21.7245 2.27614C21.9746 2.52619 22.3137 2.66667 22.6673 2.66667H25.334C26.3949 2.66667 27.4123 3.08809 28.1624 3.83824C28.9126 4.58839 29.334 5.6058 29.334 6.66667V9.33333C29.334 9.68696 29.4745 10.0261 29.7245 10.2761C29.9746 10.5262 30.3137 10.6667 30.6673 10.6667C31.0209 10.6667 31.3601 10.5262 31.6101 10.2761C31.8602 10.0261 32.0007 9.68696 32.0007 9.33333V6.66667C31.9985 4.89921 31.2955 3.20474 30.0457 1.95496C28.7959 0.705176 27.1014 0.00211714 25.334 0V0Z" fill="white"/>
<path d="M15.9993 14.6667C17.0542 14.6667 18.0853 14.3539 18.9624 13.7678C19.8395 13.1818 20.523 12.3489 20.9267 11.3743C21.3304 10.3998 21.436 9.32742 21.2302 8.29285C21.0244 7.25829 20.5165 6.30798 19.7706 5.5621C19.0247 4.81622 18.0744 4.30827 17.0398 4.10248C16.0053 3.89669 14.9329 4.00231 13.9584 4.40598C12.9838 4.80965 12.1509 5.49323 11.5648 6.37029C10.9788 7.24736 10.666 8.2785 10.666 9.33334C10.666 10.7478 11.2279 12.1044 12.2281 13.1046C13.2283 14.1048 14.5849 14.6667 15.9993 14.6667ZM15.9993 6.66667C16.5268 6.66667 17.0423 6.82307 17.4809 7.11608C17.9194 7.4091 18.2612 7.82558 18.463 8.31285C18.6649 8.80012 18.7177 9.33629 18.6148 9.85358C18.5119 10.3709 18.2579 10.846 17.885 11.219C17.512 11.5919 17.0369 11.8459 16.5196 11.9488C16.0023 12.0517 15.4661 11.9988 14.9789 11.797C14.4916 11.5952 14.0751 11.2534 13.7821 10.8149C13.4891 10.3763 13.3327 9.86075 13.3327 9.33334C13.3327 8.62609 13.6136 7.94781 14.1137 7.44772C14.6138 6.94762 15.2921 6.66667 15.9993 6.66667Z" fill="white"/>
<path d="M23.9993 26.6666C24.353 26.6666 24.6921 26.5261 24.9422 26.2761C25.1922 26.026 25.3327 25.6869 25.3327 25.3333C25.3306 23.2122 24.487 21.1786 22.9872 19.6787C21.4874 18.1789 19.4538 17.3354 17.3327 17.3333H14.666C12.5449 17.3354 10.5113 18.1789 9.0115 19.6787C7.51167 21.1786 6.66813 23.2122 6.66602 25.3333C6.66602 25.6869 6.80649 26.026 7.05654 26.2761C7.30659 26.5261 7.64573 26.6666 7.99935 26.6666C8.35297 26.6666 8.69211 26.5261 8.94216 26.2761C9.19221 26.026 9.33268 25.6869 9.33268 25.3333C9.33268 23.9188 9.89459 22.5622 10.8948 21.562C11.895 20.5618 13.2515 19.9999 14.666 19.9999H17.3327C18.7472 19.9999 20.1037 20.5618 21.1039 21.562C22.1041 22.5622 22.666 23.9188 22.666 25.3333C22.666 25.6869 22.8065 26.026 23.0565 26.2761C23.3066 26.5261 23.6457 26.6666 23.9993 26.6666Z" fill="white"/>
</g>
<defs>
<clipPath id="clip0_191_7758">
<rect width="32" height="32" fill="white"/>
</clipPath>
</defs>
</svg>
