<svg width="24" height="24" viewBox="0 0 24 24" fill="none" xmlns="http://www.w3.org/2000/svg">
<path d="M9.50295 4.25722L10.4314 3.88583L10.4314 3.88583L9.50295 4.25722ZM10.5572 6.89286L9.62872 7.26425L9.62872 7.26425L10.5572 6.89286ZM10.2368 8.91597L9.4686 8.27579L9.46857 8.27582L10.2368 8.91597ZM9.66943 9.59688L10.4377 10.2371L10.4377 10.237L9.66943 9.59688ZM9.79136 12.2915L9.08426 12.9986L9.08428 12.9986L9.79136 12.2915ZM11.7085 14.2085L12.4157 13.5014L12.4156 13.5014L11.7085 14.2085ZM14.4031 14.3307L13.763 13.5624L13.7629 13.5625L14.4031 14.3307ZM15.0842 13.7633L15.7243 14.5316L15.7244 14.5315L15.0842 13.7633ZM17.1071 13.4429L17.4785 12.5144L17.4785 12.5144L17.1071 13.4429ZM19.7426 14.4971L19.3712 15.4256L19.3712 15.4256L19.7426 14.4971ZM20.9999 16.354H19.9999V16.3541L20.9999 16.354ZM21 19.1053H22V19.1053L21 19.1053ZM7.646 4C8.0549 4 8.42261 4.24895 8.57447 4.62861L10.4314 3.88583C9.97584 2.74685 8.87271 2 7.646 2V4ZM8.57447 4.62861L9.62872 7.26425L11.4857 6.52148L10.4314 3.88583L8.57447 4.62861ZM9.62872 7.26425C9.76518 7.60541 9.70365 7.99372 9.4686 8.27579L11.005 9.55616C11.7106 8.70954 11.8949 7.54445 11.4857 6.52147L9.62872 7.26425ZM9.46857 8.27582L8.90119 8.95673L10.4377 10.237L11.0051 9.55613L9.46857 8.27582ZM8.90121 8.9567C7.90808 10.1485 7.98691 11.9013 9.08426 12.9986L10.4985 11.5844C10.133 11.2189 10.1064 10.6346 10.4377 10.2371L8.90121 8.9567ZM9.08428 12.9986L11.0015 14.9157L12.4156 13.5014L10.4984 11.5844L9.08428 12.9986ZM11.0014 14.9157C12.0986 16.0128 13.8513 16.0922 15.0433 15.0989L13.7629 13.5625C13.3655 13.8936 12.7813 13.8671 12.4157 13.5014L11.0014 14.9157ZM15.0431 15.099L15.7243 14.5316L14.4441 12.995L13.763 13.5624L15.0431 15.099ZM15.7244 14.5315C16.0065 14.2964 16.3947 14.2349 16.7357 14.3714L17.4785 12.5144C16.4555 12.1052 15.2906 12.2896 14.444 12.9951L15.7244 14.5315ZM16.7357 14.3713L19.3712 15.4256L20.114 13.5687L17.4785 12.5144L16.7357 14.3713ZM19.3712 15.4256C19.751 15.5775 19.9999 15.9452 19.9999 16.354H21.9999C21.9999 15.1272 21.2529 14.0242 20.114 13.5687L19.3712 15.4256ZM19.9999 16.3541L20 19.1054L22 19.1053L21.9999 16.354L19.9999 16.3541ZM20 19.1053C20 19.5995 19.5995 20 19.1055 20V22C20.7043 22 22 20.704 22 19.1053H20ZM19.1055 20C10.763 20 4 13.2372 4 4.89478H2C2 14.3418 9.65852 22 19.1055 22V20ZM4 4.89478C4 4.4006 4.40061 4 4.89474 4V2C3.29599 2 2 3.29608 2 4.89478H4ZM4.89474 4H7.646V2H4.89474V4Z" fill="#BCBCBC"/>
</svg>
