<svg width="33" height="32" viewBox="0 0 33 32" fill="none" xmlns="http://www.w3.org/2000/svg">
<g clip-path="url(#clip0_191_7773)">
<path d="M25.274 2.85341L16.9207 0.0680769C16.6472 -0.0230178 16.3515 -0.0230178 16.078 0.0680769L7.72469 2.85341C6.39656 3.29459 5.24124 4.14309 4.42288 5.27836C3.60451 6.41363 3.16473 7.77793 3.16602 9.17741V16.0001C3.16602 26.0841 15.4327 31.6534 15.958 31.8854C16.1284 31.9611 16.3129 32.0002 16.4994 32.0002C16.6858 32.0002 16.8703 31.9611 17.0407 31.8854C17.566 31.6534 29.8327 26.0841 29.8327 16.0001V9.17741C29.834 7.77793 29.3942 6.41363 28.5758 5.27836C27.7575 4.14309 26.6021 3.29459 25.274 2.85341ZM27.166 16.0001C27.166 23.2734 18.7407 28.0441 16.4994 29.1854C14.2554 28.0481 5.83269 23.2921 5.83269 16.0001V9.17741C5.83276 8.33778 6.09705 7.51946 6.58811 6.8384C7.07916 6.15734 7.77208 5.64807 8.56869 5.38274L16.4994 2.73874L24.43 5.38274C25.2266 5.64807 25.9195 6.15734 26.4106 6.8384C26.9017 7.51946 27.1659 8.33778 27.166 9.17741V16.0001Z" fill="white"/>
<path d="M20.8991 11.0668L15.3151 16.6668L12.3231 13.5468C12.203 13.4155 12.0579 13.3096 11.8962 13.2352C11.7346 13.1609 11.5597 13.1197 11.3819 13.114C11.204 13.1083 11.0269 13.1382 10.8608 13.2021C10.6947 13.2659 10.5431 13.3623 10.4149 13.4857C10.2867 13.609 10.1844 13.7567 10.1142 13.9202C10.0439 14.0837 10.0071 14.2595 10.0059 14.4374C10.0047 14.6153 10.0391 14.7917 10.107 14.9561C10.175 15.1205 10.2752 15.2697 10.4017 15.3948L13.4764 18.5948C13.7057 18.8424 13.9829 19.041 14.2911 19.1785C14.5993 19.316 14.9323 19.3896 15.2697 19.3948H15.3137C15.6445 19.3959 15.9721 19.3312 16.2777 19.2047C16.5833 19.0781 16.8607 18.8921 17.0937 18.6574L22.7897 12.9614C22.9141 12.8373 23.0129 12.6899 23.0803 12.5276C23.1477 12.3653 23.1825 12.1913 23.1827 12.0155C23.1829 11.8398 23.1485 11.6657 23.0814 11.5033C23.0143 11.3408 22.9159 11.1932 22.7917 11.0688C22.6676 10.9444 22.5202 10.8456 22.3579 10.7782C22.1956 10.7108 22.0216 10.676 21.8458 10.6758C21.6701 10.6756 21.496 10.71 21.3336 10.7771C21.1711 10.8442 21.0235 10.9426 20.8991 11.0668Z" fill="white"/>
</g>
<defs>
<clipPath id="clip0_191_7773">
<rect width="32" height="32" fill="white" transform="translate(0.5)"/>
</clipPath>
</defs>
</svg>
