<svg width="33" height="32" viewBox="0 0 33 32" fill="none" xmlns="http://www.w3.org/2000/svg">
<g clip-path="url(#clip0_191_7733)">
<path d="M32.5 13.3334C32.5001 13.2361 32.4893 13.1391 32.468 13.0441L30.7347 5.22011C30.4126 3.7351 29.5898 2.40595 28.4042 1.45555C27.2185 0.505154 25.7422 -0.00871518 24.2227 0.000111852H8.77734C7.25874 -0.00748855 5.78364 0.506941 4.59911 1.45724C3.41457 2.40754 2.59253 3.736 2.27067 5.22011L0.532002 13.0441C0.510679 13.1391 0.499947 13.2361 0.500002 13.3334V14.6668C0.498926 15.9649 0.97323 17.2185 1.83334 18.1908V25.3334C1.83545 27.1009 2.53851 28.7954 3.7883 30.0452C5.03808 31.2949 6.73254 31.998 8.5 32.0001H24.5C26.2675 31.998 27.9619 31.2949 29.2117 30.0452C30.4615 28.7954 31.1646 27.1009 31.1667 25.3334V18.1908C32.0268 17.2185 32.5011 15.9649 32.5 14.6668V13.3334ZM3.16667 13.4788L4.87334 5.79878C5.06673 4.90845 5.56002 4.11154 6.27069 3.54141C6.98135 2.97128 7.86625 2.66252 8.77734 2.66678H9.83334V6.66678C9.83334 7.0204 9.97381 7.35954 10.2239 7.60959C10.4739 7.85964 10.813 8.00011 11.1667 8.00011C11.5203 8.00011 11.8594 7.85964 12.1095 7.60959C12.3595 7.35954 12.5 7.0204 12.5 6.66678V2.66678H20.5V6.66678C20.5 7.0204 20.6405 7.35954 20.8905 7.60959C21.1406 7.85964 21.4797 8.00011 21.8333 8.00011C22.187 8.00011 22.5261 7.85964 22.7761 7.60959C23.0262 7.35954 23.1667 7.0204 23.1667 6.66678V2.66678H24.2227C25.1338 2.66252 26.0187 2.97128 26.7293 3.54141C27.44 4.11154 27.9333 4.90845 28.1267 5.79878L29.8333 13.4788V14.6668C29.8333 15.374 29.5524 16.0523 29.0523 16.5524C28.5522 17.0525 27.8739 17.3334 27.1667 17.3334H25.8333C25.1261 17.3334 24.4478 17.0525 23.9477 16.5524C23.4476 16.0523 23.1667 15.374 23.1667 14.6668C23.1667 14.3132 23.0262 13.974 22.7761 13.724C22.5261 13.4739 22.187 13.3334 21.8333 13.3334C21.4797 13.3334 21.1406 13.4739 20.8905 13.724C20.6405 13.974 20.5 14.3132 20.5 14.6668C20.5 15.374 20.219 16.0523 19.719 16.5524C19.2189 17.0525 18.5406 17.3334 17.8333 17.3334H15.1667C14.4594 17.3334 13.7811 17.0525 13.2811 16.5524C12.781 16.0523 12.5 15.374 12.5 14.6668C12.5 14.3132 12.3595 13.974 12.1095 13.724C11.8594 13.4739 11.5203 13.3334 11.1667 13.3334C10.813 13.3334 10.4739 13.4739 10.2239 13.724C9.97381 13.974 9.83334 14.3132 9.83334 14.6668C9.83334 15.374 9.55238 16.0523 9.05229 16.5524C8.55219 17.0525 7.87391 17.3334 7.16667 17.3334H5.83334C5.12609 17.3334 4.44781 17.0525 3.94772 16.5524C3.44762 16.0523 3.16667 15.374 3.16667 14.6668V13.4788ZM24.5 29.3334H8.5C7.43914 29.3334 6.42172 28.912 5.67158 28.1619C4.92143 27.4117 4.5 26.3943 4.5 25.3334V19.8308C4.93547 19.9435 5.38351 20.0004 5.83334 20.0001H7.16667C7.92376 20.0005 8.67221 19.8393 9.36201 19.5273C10.0518 19.2153 10.6671 18.7596 11.1667 18.1908C11.6663 18.7596 12.2815 19.2153 12.9713 19.5273C13.6611 19.8393 14.4096 20.0005 15.1667 20.0001H17.8333C18.5904 20.0005 19.3389 19.8393 20.0287 19.5273C20.7185 19.2153 21.3337 18.7596 21.8333 18.1908C22.3329 18.7596 22.9482 19.2153 23.638 19.5273C24.3278 19.8393 25.0763 20.0005 25.8333 20.0001H27.1667C27.6165 20.0004 28.0645 19.9435 28.5 19.8308V25.3334C28.5 26.3943 28.0786 27.4117 27.3284 28.1619C26.5783 28.912 25.5609 29.3334 24.5 29.3334Z" fill="white"/>
</g>
<defs>
<clipPath id="clip0_191_7733">
<rect width="32" height="32" fill="white" transform="translate(0.5)"/>
</clipPath>
</defs>
</svg>
