<svg width="24" height="24" viewBox="0 0 24 24" fill="none" xmlns="http://www.w3.org/2000/svg">
<path d="M20.3787 11.7261L21.3651 11.8905L20.3787 11.7261ZM19.4453 17.3261L18.4589 17.1617L19.4453 17.3261ZM4.55444 17.3261L5.54084 17.1617L4.55444 17.3261ZM3.62111 11.7261L2.63472 11.8905L3.62111 11.7261ZM3.48601 9.30359L2.54859 8.9554L3.48601 9.30359ZM4.36623 8.26514L3.86867 7.39771H3.86867L4.36623 8.26514ZM5.87599 19.8248L5.46669 20.7372L5.87599 19.8248ZM5.02923 19.1074L5.86192 18.5537L5.02923 19.1074ZM18.9707 19.1074L18.138 18.5537L18.9707 19.1074ZM18.1242 19.8248L17.7149 18.9124H17.7149L18.1242 19.8248ZM20.5139 9.30359L19.5764 9.65177L20.5139 9.30359ZM19.6343 8.26514L20.1319 7.39771L19.6343 8.26514ZM15 8C15 8.55228 15.4477 9 16 9C16.5523 9 17 8.55228 17 8H15ZM7.00002 8C7.00002 8.55228 7.44773 9 8.00002 9C8.5523 9 9.00002 8.55228 9.00002 8H7.00002ZM19.3923 11.5617L18.4589 17.1617L20.4317 17.4905L21.3651 11.8905L19.3923 11.5617ZM16.2893 19H7.71095V21H16.2893V19ZM5.54084 17.1617L4.6075 11.5617L2.63472 11.8905L3.56805 17.4905L5.54084 17.1617ZM6.77736 9H17.2224V7H6.77736V9ZM4.6075 11.5617C4.49774 10.9031 4.42681 10.4724 4.40075 10.1427C4.37544 9.82226 4.40381 9.70463 4.42344 9.65177L2.54859 8.9554C2.38268 9.40208 2.37177 9.85473 2.40697 10.3002C2.44143 10.7364 2.53082 11.2671 2.63472 11.8905L4.6075 11.5617ZM6.77736 7C6.14536 7 5.60725 6.99912 5.17146 7.03687C4.72626 7.07544 4.28185 7.16071 3.86867 7.39771L4.86379 9.13257C4.91284 9.10443 5.02419 9.05713 5.34409 9.02941C5.6734 9.00088 6.10974 9 6.77736 9V7ZM4.42344 9.65177C4.50464 9.43316 4.66044 9.24921 4.86379 9.13257L3.86867 7.39771C3.26075 7.74642 2.79303 8.29729 2.54859 8.9554L4.42344 9.65177ZM7.71095 19C7.21436 19 6.8973 18.9993 6.65418 18.981C6.42362 18.9635 6.33346 18.934 6.2853 18.9124L5.46669 20.7372C5.80908 20.8908 6.15487 20.9489 6.50339 20.9753C6.83933 21.0007 7.24448 21 7.71095 21V19ZM3.56805 17.4905C3.64476 17.9508 3.71079 18.3505 3.79119 18.6779C3.87458 19.0174 3.98883 19.3488 4.19653 19.6612L5.86192 18.5537C5.8326 18.5096 5.78861 18.4254 5.73346 18.2008C5.6753 17.964 5.62245 17.6513 5.54084 17.1617L3.56805 17.4905ZM6.2853 18.9124C6.11325 18.8352 5.96644 18.7109 5.86192 18.5537L4.19653 19.6612C4.50989 20.1324 4.95019 20.5055 5.46669 20.7372L6.2853 18.9124ZM18.4589 17.1617C18.3773 17.6514 18.3245 17.9641 18.2664 18.2009C18.2112 18.4255 18.1673 18.5097 18.138 18.5537L19.8034 19.6612C20.0112 19.3487 20.1254 19.0172 20.2087 18.6777C20.289 18.3504 20.355 17.9507 20.4317 17.4905L18.4589 17.1617ZM16.2893 21C16.7558 21 17.1609 21.0007 17.4969 20.9753C17.8454 20.9489 18.1912 20.8908 18.5336 20.7372L17.7149 18.9124C17.6668 18.934 17.5766 18.9635 17.3461 18.981C17.103 18.9993 16.7859 19 16.2893 19V21ZM18.138 18.5537C18.0333 18.7112 17.8867 18.8354 17.7149 18.9124L18.5336 20.7372C19.0504 20.5054 19.4903 20.1321 19.8034 19.6612L18.138 18.5537ZM21.3651 11.8905C21.4689 11.2672 21.5584 10.7364 21.5928 10.3003C21.6281 9.85483 21.6172 9.40214 21.4513 8.9554L19.5764 9.65177C19.5961 9.70458 19.6244 9.82216 19.5991 10.1426C19.573 10.4723 19.502 10.903 19.3923 11.5617L21.3651 11.8905ZM17.2224 9C17.89 9 18.3266 9.00088 18.6561 9.02941C18.9764 9.05715 19.0878 9.10449 19.1368 9.13257L20.1319 7.39771C19.7186 7.16065 19.2739 7.07542 18.8287 7.03687C18.3927 6.99912 17.8544 7 17.2224 7V9ZM21.4513 8.9554C21.2071 8.29805 20.7405 7.74682 20.1319 7.39771L19.1368 9.13257C19.3394 9.2488 19.495 9.4324 19.5764 9.65177L21.4513 8.9554ZM17 8C17 5.23858 14.7614 3 12 3V5C13.6569 5 15 6.34315 15 8H17ZM12 3C9.23859 3 7.00002 5.23858 7.00002 8H9.00002C9.00002 6.34315 10.3432 5 12 5V3Z" fill="#1C1E27"/>
</svg>
