<svg width="33" height="32" viewBox="0 0 33 32" fill="none" xmlns="http://www.w3.org/2000/svg">
<g clip-path="url(#clip0_191_7712)">
<path d="M31.1663 14.6667C30.8127 14.6667 30.4735 14.8071 30.2235 15.0572C29.9734 15.3072 29.833 15.6464 29.833 16C29.8438 19.1004 28.7775 22.1083 26.8163 24.5095C24.8552 26.9108 22.1209 28.5564 19.0808 29.1651C16.0408 29.7737 12.8837 29.3076 10.1492 27.8465C7.41473 26.3853 5.27262 24.0198 4.08901 21.1542C2.9054 18.2887 2.75377 15.101 3.66005 12.136C4.56633 9.17104 6.47425 6.61288 9.0577 4.89876C11.6411 3.18465 14.7397 2.42101 17.8238 2.73836C20.9079 3.05572 23.7861 4.43437 25.9663 6.63867C25.9224 6.65063 25.8779 6.65998 25.833 6.66667H21.833C21.4793 6.66667 21.1402 6.80714 20.8902 7.05719C20.6401 7.30724 20.4996 7.64638 20.4996 8C20.4996 8.35362 20.6401 8.69276 20.8902 8.94281C21.1402 9.19286 21.4793 9.33333 21.833 9.33333H25.833C26.8938 9.33333 27.9112 8.91191 28.6614 8.16176C29.4115 7.41162 29.833 6.3942 29.833 5.33333V1.33333C29.833 0.979711 29.6925 0.640573 29.4424 0.390524C29.1924 0.140476 28.8533 0 28.4996 0C28.146 0 27.8069 0.140476 27.5568 0.390524C27.3068 0.640573 27.1663 0.979711 27.1663 1.33333V4.08667C24.4364 1.64604 20.9515 0.216222 17.2941 0.0361368C13.6367 -0.143948 10.0282 0.936609 7.07174 3.09725C4.11524 5.25788 1.98981 8.36771 1.0506 11.9071C0.111385 15.4464 0.415289 19.2009 1.91153 22.5431C3.40777 25.8854 6.0057 28.6129 9.27121 30.2699C12.5367 31.9269 16.272 32.413 19.8528 31.647C23.4337 30.881 26.6432 28.9093 28.945 26.0614C31.2469 23.2135 32.5016 19.6619 32.4996 16C32.4996 15.6464 32.3592 15.3072 32.1091 15.0572C31.8591 14.8071 31.5199 14.6667 31.1663 14.6667Z" fill="white"/>
<path d="M16.4993 8C16.1457 8 15.8066 8.14048 15.5565 8.39052C15.3065 8.64057 15.166 8.97971 15.166 9.33333V16C15.1661 16.3536 15.3066 16.6927 15.5567 16.9427L19.5567 20.9427C19.8082 21.1855 20.145 21.3199 20.4946 21.3169C20.8441 21.3139 21.1786 21.1736 21.4258 20.9264C21.673 20.6792 21.8132 20.3448 21.8162 19.9952C21.8193 19.6456 21.6849 19.3088 21.442 19.0573L17.8327 15.448V9.33333C17.8327 8.97971 17.6922 8.64057 17.4422 8.39052C17.1921 8.14048 16.853 8 16.4993 8Z" fill="white"/>
</g>
<defs>
<clipPath id="clip0_191_7712">
<rect width="32" height="32" fill="white" transform="translate(0.5)"/>
</clipPath>
</defs>
</svg>
