<svg width="33" height="32" viewBox="0 0 33 32" fill="none" xmlns="http://www.w3.org/2000/svg">
<g clip-path="url(#clip0_191_7744)">
<path d="M12.5 31.9999H1.83333C1.47971 31.9999 1.14057 31.8594 0.890524 31.6094C0.640476 31.3593 0.5 31.0202 0.5 30.6666C0.5 30.313 0.640476 29.9738 0.890524 29.7238C1.14057 29.4737 1.47971 29.3333 1.83333 29.3333H12.5C12.8536 29.3333 13.1928 29.4737 13.4428 29.7238C13.6929 29.9738 13.8333 30.313 13.8333 30.6666C13.8333 31.0202 13.6929 31.3593 13.4428 31.6094C13.1928 31.8594 12.8536 31.9999 12.5 31.9999Z" fill="white"/>
<path d="M9.83333 26.6667H1.83333C1.47971 26.6667 1.14057 26.5262 0.890524 26.2761C0.640476 26.0261 0.5 25.687 0.5 25.3333C0.5 24.9797 0.640476 24.6406 0.890524 24.3905C1.14057 24.1405 1.47971 24 1.83333 24H9.83333C10.187 24 10.5261 24.1405 10.7761 24.3905C11.0262 24.6406 11.1667 24.9797 11.1667 25.3333C11.1667 25.687 11.0262 26.0261 10.7761 26.2761C10.5261 26.5262 10.187 26.6667 9.83333 26.6667Z" fill="white"/>
<path d="M7.16667 21.3334H1.83333C1.47971 21.3334 1.14057 21.1929 0.890524 20.9429C0.640476 20.6928 0.5 20.3537 0.5 20.0001C0.5 19.6465 0.640476 19.3073 0.890524 19.0573C1.14057 18.8072 1.47971 18.6667 1.83333 18.6667H7.16667C7.52029 18.6667 7.85943 18.8072 8.10948 19.0573C8.35952 19.3073 8.5 19.6465 8.5 20.0001C8.5 20.3537 8.35952 20.6928 8.10948 20.9429C7.85943 21.1929 7.52029 21.3334 7.16667 21.3334Z" fill="white"/>
<path d="M17.834 31.9399C17.4803 31.9556 17.135 31.8303 16.8738 31.5913C16.6126 31.3524 16.457 31.0195 16.4413 30.6659C16.4256 30.3123 16.5509 29.9669 16.7899 29.7057C17.0288 29.4445 17.3617 29.289 17.7153 29.2732C20.2386 29.0424 22.6438 28.0973 24.6493 26.5487C26.6549 25.0001 28.1776 22.9121 29.0392 20.5293C29.9008 18.1464 30.0656 15.5674 29.5143 13.0943C28.963 10.6212 27.7184 8.35638 25.9263 6.56511C24.1342 4.77384 21.8688 3.5303 19.3955 2.98013C16.9221 2.42997 14.3432 2.59595 11.9607 3.45866C9.57829 4.32136 7.491 5.84505 5.94333 7.85128C4.39565 9.8575 3.45168 12.2632 3.22196 14.7866C3.19014 15.1388 3.0197 15.4639 2.74815 15.6905C2.47659 15.917 2.12617 16.0264 1.77396 15.9946C1.42175 15.9627 1.09661 15.7923 0.870071 15.5208C0.643527 15.2492 0.534135 14.8988 0.565961 14.5466C0.937813 10.4443 2.87743 6.64351 5.98107 3.93533C9.0847 1.22715 13.1132 -0.179739 17.228 0.00752487C21.3428 0.194788 25.2269 1.96178 28.0717 4.94067C30.9166 7.91956 32.5029 11.8808 32.5006 15.9999C32.5211 19.9977 31.0359 23.8567 28.3405 26.8093C25.6451 29.7618 21.9371 31.5916 17.954 31.9346C17.914 31.9386 17.8726 31.9399 17.834 31.9399Z" fill="white"/>
<path d="M16.4993 8C16.1457 8 15.8066 8.14048 15.5565 8.39052C15.3065 8.64057 15.166 8.97971 15.166 9.33333V16C15.1661 16.3536 15.3066 16.6927 15.5567 16.9427L19.5567 20.9427C19.8082 21.1855 20.145 21.3199 20.4946 21.3169C20.8441 21.3139 21.1786 21.1736 21.4258 20.9264C21.673 20.6792 21.8132 20.3448 21.8162 19.9952C21.8193 19.6456 21.6849 19.3088 21.442 19.0573L17.8327 15.448V9.33333C17.8327 8.97971 17.6922 8.64057 17.4422 8.39052C17.1921 8.14048 16.853 8 16.4993 8Z" fill="white"/>
</g>
<defs>
<clipPath id="clip0_191_7744">
<rect width="32" height="32" fill="white" transform="translate(0.5)"/>
</clipPath>
</defs>
</svg>
