<svg width="24" height="24" viewBox="0 0 24 24" fill="none" xmlns="http://www.w3.org/2000/svg">
<path d="M3 11C2.44772 11 2 11.4477 2 12C2 12.5523 2.44772 13 3 13V11ZM21 12L21.7071 12.7071C22.0976 12.3166 22.0976 11.6834 21.7071 11.2929L21 12ZM16.7071 6.29289C16.3166 5.90237 15.6834 5.90237 15.2929 6.29289C14.9024 6.68342 14.9024 7.31658 15.2929 7.70711L16.7071 6.29289ZM15.2929 16.2929C14.9024 16.6834 14.9024 17.3166 15.2929 17.7071C15.6834 18.0976 16.3166 18.0976 16.7071 17.7071L15.2929 16.2929ZM3 13H21V11H3V13ZM21.7071 11.2929L16.7071 6.29289L15.2929 7.70711L20.2929 12.7071L21.7071 11.2929ZM20.2929 11.2929L15.2929 16.2929L16.7071 17.7071L21.7071 12.7071L20.2929 11.2929Z" fill="#1C1E27"/>
</svg>
