<svg width="16" height="16" viewBox="0 0 16 16" fill="none" xmlns="http://www.w3.org/2000/svg">
<g clip-path="url(#clip0_174_2687)">
<path d="M15.4133 6.6066L12.8333 3.99993C12.7714 3.93745 12.6976 3.88785 12.6164 3.85401C12.5351 3.82016 12.448 3.80273 12.36 3.80273C12.272 3.80273 12.1849 3.82016 12.1036 3.85401C12.0224 3.88785 11.9486 3.93745 11.8867 3.99993C11.7625 4.12484 11.6928 4.29381 11.6928 4.46993C11.6928 4.64606 11.7625 4.81502 11.8867 4.93993L14.26 7.33327H0.666667C0.489856 7.33327 0.320286 7.40351 0.195262 7.52853C0.0702379 7.65355 0 7.82312 0 7.99993H0C0 8.17674 0.0702379 8.34631 0.195262 8.47134C0.320286 8.59636 0.489856 8.6666 0.666667 8.6666H14.3L11.8867 11.0733C11.8242 11.1352 11.7746 11.209 11.7407 11.2902C11.7069 11.3715 11.6895 11.4586 11.6895 11.5466C11.6895 11.6346 11.7069 11.7217 11.7407 11.803C11.7746 11.8842 11.8242 11.958 11.8867 12.0199C11.9486 12.0824 12.0224 12.132 12.1036 12.1659C12.1849 12.1997 12.272 12.2171 12.36 12.2171C12.448 12.2171 12.5351 12.1997 12.6164 12.1659C12.6976 12.132 12.7714 12.0824 12.8333 12.0199L15.4133 9.43327C15.7879 9.05827 15.9982 8.54994 15.9982 8.01993C15.9982 7.48993 15.7879 6.9816 15.4133 6.6066Z" fill="white"/>
</g>
<defs>
<clipPath id="clip0_174_2687">
<rect width="16" height="16" fill="white"/>
</clipPath>
</defs>
</svg>
