<svg width="398" height="260" viewBox="0 0 398 260" fill="none" xmlns="http://www.w3.org/2000/svg">
<g clip-path="url(#clip0_191_11286)">
<path d="M390.616 61.3008L384.408 91.3482L380.411 87.4577L373.612 92.3013L368.416 85.8561L356.764 94.3244L346.806 77.6797L335.699 84.1832L331.294 78.1076L317.19 86.0507L312.947 76.9729L322.834 29.1136L375.838 40.0523L390.616 61.3008Z" fill="#EBEBEB"/>
<path d="M375.838 40.0524L390.616 61.3008L372.23 57.5076L375.838 40.0524Z" fill="#DBDBDB"/>
<path d="M383.086 97.3589L373.984 141.444L302.588 126.719L311.625 82.9772L315.868 92.0614L329.978 84.1184L334.377 90.1875L345.49 83.6839L355.442 100.329L367.1 91.8604L372.29 98.3056L379.096 93.462L383.086 97.3589Z" fill="#EBEBEB"/>
<path d="M280.9 92.1911L208.142 96.6911L202.361 3.33932L256.39 0L276.222 16.6253L280.9 92.1911Z" fill="#EBEBEB"/>
<path d="M256.389 0L276.221 16.6253L257.485 17.7859L256.389 0Z" fill="#DBDBDB"/>
<path d="M236.218 62.8051L235.933 60.7043C235.2 56.3405 236.393 51.4579 240.189 46.3485C243.608 41.8096 245.469 38.5675 245.262 34.891C245.028 30.7412 242.271 28.1216 237.139 28.3291C234.207 28.4813 231.39 29.5216 229.062 31.3118L226.824 26.2931C229.419 24.1922 233.961 22.6296 238.275 22.4026C247.636 21.8774 252.191 27.4148 252.547 33.5942C252.859 39.1251 249.991 43.288 246.345 48.1381C242.998 52.5667 241.901 56.2238 242.375 60.3541L242.576 62.468L236.218 62.8051ZM235.063 74.295C234.895 71.2864 236.809 69.0558 239.657 68.8937C242.505 68.7316 244.581 70.7417 244.749 73.7503C244.905 76.5968 243.16 78.8987 240.15 79.0673C237.295 79.2294 235.226 77.161 235.063 74.295Z" fill="#DBDBDB"/>
<path d="M54.2566 46.932L46.9322 43.6122L45.9136 45.8557C45.7623 46.1742 45.5273 46.4456 45.2336 46.6409C44.9399 46.8362 44.5987 46.948 44.2463 46.9645C43.8441 46.9645 43.4484 47.0228 43.0461 47.0812C42.6972 47.1381 42.3394 47.0967 42.0128 46.9615C41.6861 46.8263 41.4037 46.6028 41.1972 46.3161L39.7634 44.3189L33.2369 49.0005L34.6707 50.9976C34.8713 51.2875 34.9894 51.6264 35.0122 51.9782C35.0351 52.3299 34.9619 52.6813 34.8004 52.9947C34.6142 53.3507 34.4475 53.7165 34.3009 54.0905C34.1751 54.421 33.9599 54.7101 33.6792 54.9254C33.3985 55.1407 33.0634 55.2737 32.7114 55.3095L30.2656 55.5494L31.0506 63.5443L33.5094 63.298C33.862 63.2698 34.2157 63.3382 34.5323 63.4959C34.8489 63.6535 35.1166 63.8945 35.3065 64.1928C35.4103 64.3613 35.5206 64.5235 35.6373 64.6856C35.7541 64.8477 35.8709 65.0033 35.9941 65.1524C36.218 65.4247 36.362 65.7536 36.4101 66.1027C36.4582 66.4518 36.4085 66.8075 36.2666 67.1301L35.2416 69.3801L42.566 72.6999L43.5846 70.4564C43.7367 70.1385 43.9746 69.8693 44.2714 69.6791C44.5683 69.489 44.9123 69.3854 45.2649 69.3801C45.6628 69.3801 46.0585 69.3411 46.4521 69.2633C46.7997 69.2128 47.1545 69.2573 47.4789 69.392C47.8033 69.5267 48.0851 69.7466 48.2946 70.0285L49.7283 72.0256L56.2937 67.3246L54.86 65.3275C54.6546 65.0396 54.5336 64.7002 54.5107 64.3474C54.4877 63.9946 54.5638 63.6424 54.7302 63.3304C54.9031 62.978 55.0569 62.6165 55.1908 62.2475C55.3194 61.9182 55.5352 61.6301 55.8153 61.4142C56.0953 61.1982 56.429 61.0627 56.7803 61.022L59.2391 60.7821L58.4476 52.7807L55.9888 53.0206C55.6377 53.0515 55.2849 52.9841 54.9698 52.8261C54.6547 52.6681 54.3899 52.4256 54.2047 52.1258C54.0944 51.9637 53.9842 51.7951 53.8674 51.633C53.7506 51.4709 53.6338 51.3153 53.5106 51.1597C53.2894 50.8847 53.1472 50.5549 53.0992 50.2054C53.0512 49.8559 53.0992 49.4999 53.2381 49.1755L54.2566 46.932ZM50.1046 54.3304C50.8624 55.3891 51.289 56.6486 51.3306 57.9496C51.3721 59.2507 51.0268 60.5348 50.3381 61.6396C49.6495 62.7445 48.6485 63.6204 47.4617 64.1566C46.275 64.6929 44.9558 64.8654 43.671 64.6522C42.3862 64.4391 41.1934 63.85 40.2436 62.9594C39.2938 62.0687 38.6296 60.9166 38.3349 59.6486C38.0403 58.3807 38.1284 57.0539 38.5882 55.836C39.0481 54.6182 39.8589 53.5639 40.9182 52.8067C42.3386 51.7912 44.1044 51.3813 45.8271 51.6671C47.5499 51.9529 49.0885 52.9109 50.1046 54.3304Z" fill="#EBEBEB"/>
<path d="M385.056 153.025L380.177 155.839L381.04 157.331C381.168 157.544 381.231 157.789 381.223 158.038C381.215 158.286 381.136 158.527 380.995 158.731C380.842 158.968 380.701 159.213 380.573 159.464C380.463 159.685 380.294 159.871 380.084 160.001C379.874 160.132 379.633 160.201 379.386 160.203H377.66V165.831H379.373C379.621 165.829 379.865 165.898 380.076 166.03C380.286 166.162 380.454 166.352 380.56 166.577C380.688 166.826 380.829 167.069 380.982 167.303C381.123 167.508 381.202 167.748 381.21 167.997C381.218 168.245 381.155 168.49 381.027 168.704L380.164 170.202L385.043 173.009L385.912 171.511C386.038 171.299 386.221 171.126 386.44 171.011C386.659 170.897 386.905 170.845 387.151 170.863H387.567H387.982C388.228 170.845 388.475 170.897 388.694 171.011C388.912 171.126 389.095 171.299 389.221 171.511L390.084 173.009L394.963 170.202L394.1 168.704C393.977 168.487 393.917 168.241 393.926 167.993C393.935 167.744 394.013 167.503 394.152 167.297C394.301 167.063 394.443 166.823 394.573 166.57C394.684 166.35 394.853 166.164 395.062 166.033C395.272 165.903 395.514 165.833 395.76 165.831H397.486V160.203H395.76C395.514 160.201 395.272 160.132 395.062 160.001C394.853 159.871 394.684 159.685 394.573 159.464C394.443 159.211 394.301 158.971 394.152 158.738C394.013 158.532 393.935 158.292 393.926 158.045C393.917 157.797 393.977 157.552 394.1 157.337L394.963 155.839L390.097 153.025L389.234 154.523C389.106 154.733 388.923 154.905 388.705 155.019C388.486 155.133 388.241 155.186 387.995 155.171C387.859 155.171 387.722 155.171 387.58 155.171C387.437 155.171 387.301 155.171 387.164 155.171C386.917 155.187 386.671 155.135 386.451 155.021C386.232 154.907 386.047 154.734 385.919 154.523L385.056 153.025ZM387.58 158.407C388.492 158.408 389.383 158.68 390.141 159.187C390.898 159.694 391.488 160.415 391.837 161.257C392.185 162.1 392.275 163.027 392.096 163.921C391.918 164.814 391.478 165.635 390.833 166.279C390.187 166.923 389.365 167.362 388.471 167.539C387.576 167.717 386.649 167.625 385.806 167.276C384.964 166.927 384.244 166.336 383.737 165.578C383.231 164.82 382.961 163.929 382.961 163.017C382.959 162.41 383.077 161.809 383.309 161.247C383.54 160.686 383.88 160.176 384.309 159.747C384.738 159.317 385.248 158.976 385.809 158.744C386.371 158.512 386.972 158.393 387.58 158.394V158.407Z" fill="#EBEBEB"/>
<path d="M69.0601 22.9732L64.5902 26.3903L65.6347 27.7585C65.7855 27.9561 65.8782 28.1919 65.9023 28.4394C65.9263 28.6868 65.8809 28.936 65.7709 29.159C65.6468 29.4114 65.5384 29.6713 65.4465 29.9371C65.3653 30.1705 65.2211 30.377 65.0299 30.5337C64.8388 30.6905 64.608 30.7914 64.3631 30.8255L62.6504 31.0459L63.377 36.6287L65.0897 36.4083C65.3387 36.368 65.594 36.4012 65.8245 36.5036C66.0549 36.6061 66.2505 36.7735 66.3872 36.9854C66.5461 37.2107 66.7172 37.4271 66.8997 37.6338C67.0633 37.8208 67.1718 38.0496 67.213 38.2945C67.2543 38.5395 67.2267 38.7911 67.1333 39.0214L66.4845 40.61L71.6746 42.7757L72.3233 41.1741C72.4211 40.9462 72.5802 40.7498 72.7829 40.6067C72.9856 40.4636 73.224 40.3795 73.4716 40.3636L73.8869 40.3247L74.2956 40.2598C74.5357 40.2146 74.7836 40.236 75.0123 40.3218C75.2411 40.4075 75.4419 40.5543 75.5931 40.7462L76.6441 42.1467L81.114 38.7296L80.0695 37.355C79.9156 37.16 79.821 36.925 79.7969 36.6779C79.7727 36.4308 79.8201 36.1819 79.9333 35.9609C80.0574 35.7085 80.1657 35.4486 80.2576 35.1828C80.3392 34.9502 80.4836 34.7447 80.6749 34.5891C80.8661 34.4334 81.0966 34.3337 81.3411 34.3009L83.0538 34.074L82.3272 28.4912L80.6145 28.7116C80.3655 28.7519 80.1101 28.7188 79.8797 28.6163C79.6492 28.5138 79.4537 28.3464 79.3169 28.1346C79.1582 27.9091 78.9871 27.6927 78.8044 27.4861C78.6408 27.2991 78.5324 27.0704 78.4911 26.8254C78.4499 26.5804 78.4775 26.3288 78.5709 26.0985L79.2196 24.5034L74.0296 22.3442L73.3808 23.9393C73.2827 24.1665 73.1234 24.362 72.9206 24.5039C72.7179 24.6459 72.4797 24.7288 72.2325 24.7434L71.8173 24.7887L71.4086 24.8536C71.1679 24.8988 70.9194 24.8767 70.6904 24.7898C70.4615 24.7028 70.261 24.5544 70.1111 24.3608L69.0601 22.9732ZM72.2585 27.9854C73.1622 27.8693 74.08 28.0233 74.8963 28.428C75.7125 28.8326 76.3906 29.4698 76.8449 30.2592C77.2992 31.0486 77.5095 31.9548 77.4491 32.8634C77.3887 33.7721 77.0605 34.6425 76.5057 35.3649C75.951 36.0873 75.1946 36.6293 74.332 36.9226C73.4694 37.2159 72.5392 37.2472 71.6588 37.0127C70.7784 36.7782 69.9872 36.2884 69.385 35.605C68.7828 34.9216 68.3966 34.0752 68.2751 33.1727C68.1931 32.5703 68.2314 31.9576 68.3876 31.3701C68.5438 30.7825 68.8149 30.2317 69.1853 29.7494C69.5556 29.2672 70.0179 28.863 70.5453 28.5602C71.0728 28.2574 71.6551 28.0621 72.2585 27.9854Z" fill="#EBEBEB"/>
<path d="M35.6633 169.268C35.9068 163 35.8202 156.723 35.4038 150.464C34.4756 137.541 32.5034 124.715 29.5066 112.11C27.8588 104.978 25.8347 98.0333 23.7197 91.0629C23.6549 90.8554 23.3175 90.9138 23.3759 91.1342C29.9089 115.677 35.2676 141.036 34.8848 166.577C34.781 173.709 33.9506 180.751 33.2759 187.851C33.2759 188.046 33.5679 188.117 33.6133 187.923C34.9692 181.847 35.4103 175.473 35.6633 169.268Z" fill="#EBEBEB"/>
<path d="M23.3757 91.1083C23.3757 91.1083 13.4756 116.202 15.7009 122.096C17.9261 127.99 22.4804 129.228 22.4804 129.228C22.4804 129.228 16.4275 137.865 20.6574 145.964C24.8873 154.063 34.2813 153.68 34.93 162.861C34.8846 162.887 35.4296 124.495 23.3757 91.1083Z" fill="#EBEBEB"/>
<path d="M33.834 147.034C33.8498 146.99 33.8498 146.942 33.834 146.898C32.5363 129.768 29.32 112.838 24.2454 96.4253C24.2454 96.3735 24.148 96.3929 24.161 96.4253C26.1203 103.774 27.8503 111.155 29.3511 118.569C28.0219 117.31 26.398 116.405 24.6281 115.936C24.6281 115.936 24.5762 115.975 24.6281 115.988C26.4874 116.669 28.1592 117.78 29.5068 119.23C29.7922 120.682 30.0777 122.141 30.3437 123.594C28.1314 121.123 25.0693 119.904 22.0007 118.737C21.9552 118.737 21.9358 118.789 22.0007 118.802C25.199 120.099 28.3779 121.778 30.5448 124.527C31.2973 128.699 31.9591 132.879 32.53 137.068C30.9361 135.391 28.8862 134.216 26.6328 133.69C26.5614 133.69 26.5225 133.774 26.5939 133.793C28.9166 134.462 30.9947 135.791 32.5754 137.619L32.6143 137.651C32.8089 139.121 32.9949 140.597 33.1722 142.08C31.9351 141.035 30.5403 140.193 29.0397 139.584C29.0311 139.584 29.0228 139.587 29.0167 139.593C29.0106 139.599 29.0072 139.607 29.0072 139.616C29.0072 139.625 29.0106 139.633 29.0167 139.639C29.0228 139.645 29.0311 139.648 29.0397 139.648C30.5719 140.31 31.9753 141.236 33.1852 142.385C33.1852 142.385 33.2177 142.385 33.2371 142.385C33.3993 143.785 33.5615 145.192 33.7042 146.599C31.4779 143.908 28.5862 141.844 25.3158 140.615C25.2509 140.615 25.2185 140.686 25.2834 140.718C28.5114 142.138 31.3473 144.319 33.5485 147.073C33.5708 147.105 33.6034 147.129 33.641 147.141C33.6787 147.153 33.7193 147.152 33.7561 147.138C33.9702 149.297 34.1648 151.462 34.3205 153.622C34.3205 153.654 34.3724 153.654 34.3724 153.622C34.1713 151.462 34.0156 149.251 33.834 147.034Z" fill="white"/>
<path d="M25.8853 113.472C24.1021 112.356 22.0637 111.714 19.9627 111.605C19.9109 111.605 19.9109 111.669 19.9627 111.682C21.9844 112.061 23.9473 112.704 25.801 113.595C25.8983 113.634 25.9567 113.504 25.8853 113.472Z" fill="white"/>
<path d="M27.0981 140.057C25.7211 139.268 24.2065 138.749 22.6351 138.527C22.5832 138.527 22.5768 138.604 22.6351 138.611C24.171 138.918 25.6559 139.44 27.0463 140.161C27.0981 140.161 27.1436 140.057 27.0981 140.057Z" fill="white"/>
<path d="M61.664 122.504C57.4812 125.396 53.6399 128.753 50.2134 132.509C46.6797 136.485 43.9539 141.11 42.1883 146.126C38.4225 156.571 36.3932 167.562 36.1808 178.663C36.0542 184.812 36.6442 190.955 37.939 196.968C37.9495 197.012 37.9764 197.05 38.0141 197.074C38.0519 197.098 38.0976 197.107 38.1418 197.099C38.186 197.091 38.2253 197.066 38.2515 197.029C38.2778 196.993 38.289 196.948 38.2828 196.903C36.6725 186.295 36.7338 175.5 38.4645 164.91C40.1642 154.536 42.8306 143.234 49.4349 134.798C53.0291 130.207 57.512 126.589 61.943 122.854C62.2025 122.66 61.904 122.336 61.664 122.504Z" fill="#EBEBEB"/>
<path d="M37.6602 171.181C40.0419 167.33 42.8397 163.754 46.0032 160.514C50.9532 155.573 55.0858 152.085 55.7345 148.791C56.3833 145.497 50.778 143.111 50.778 143.111C50.778 143.111 57.6548 144.349 59.5362 141.477C61.4176 138.604 62.3129 121.973 62.3129 121.973C62.3129 121.973 49.8503 130.862 44.0439 143.299C38.2376 155.735 37.6602 171.181 37.6602 171.181Z" fill="#EBEBEB"/>
<path d="M57.8573 137.573C57.0366 137.458 56.2059 137.43 55.3793 137.489C55.3601 137.494 55.3432 137.506 55.3311 137.522C55.319 137.537 55.3125 137.557 55.3125 137.577C55.3125 137.597 55.319 137.616 55.3311 137.632C55.3432 137.648 55.3601 137.659 55.3793 137.664C56.1966 137.664 57.0205 137.632 57.8378 137.664C57.8447 137.67 57.8529 137.673 57.8616 137.675C57.8704 137.676 57.8793 137.676 57.8876 137.673C57.896 137.67 57.9034 137.665 57.9092 137.658C57.915 137.651 57.9191 137.643 57.9209 137.635C57.9228 137.626 57.9224 137.617 57.9198 137.609C57.9172 137.6 57.9125 137.592 57.9061 137.586C57.8998 137.58 57.8919 137.576 57.8834 137.574C57.8748 137.571 57.8658 137.571 57.8573 137.573Z" fill="white"/>
<path d="M48.891 153.712C47.5758 153.744 46.2762 154.006 45.0508 154.484C45.0508 154.484 45.0508 154.549 45.0508 154.536C46.3482 154.238 47.6001 154.114 48.8846 153.887C48.9013 153.88 48.9157 153.868 48.926 153.853C48.9363 153.838 48.9421 153.82 48.9428 153.802C48.9435 153.784 48.939 153.766 48.9298 153.75C48.9207 153.734 48.9072 153.721 48.891 153.712Z" fill="white"/>
<path d="M46.205 148.136C45.6588 148.134 45.1135 148.184 44.5768 148.285C44.5669 148.289 44.5583 148.296 44.5523 148.304C44.5462 148.313 44.543 148.323 44.543 148.334C44.543 148.344 44.5462 148.355 44.5523 148.363C44.5583 148.372 44.5669 148.379 44.5768 148.382C45.1208 148.415 45.6666 148.389 46.205 148.305C46.2274 148.305 46.2488 148.296 46.2647 148.28C46.2805 148.264 46.2894 148.243 46.2894 148.22C46.2894 148.198 46.2805 148.177 46.2647 148.161C46.2488 148.145 46.2274 148.136 46.205 148.136Z" fill="white"/>
<path d="M1.14844 140.161C5.20134 141.535 9.08605 143.362 12.7287 145.607C16.5055 148.011 19.7813 151.122 22.3758 154.769C27.8323 162.358 32.0093 170.789 34.7411 179.727C36.2653 184.673 37.2059 189.78 37.5437 194.945C37.5413 194.98 37.5268 195.013 37.5026 195.038C37.4784 195.063 37.4461 195.079 37.4113 195.083C37.3765 195.087 37.3414 195.078 37.3123 195.059C37.2831 195.04 37.2617 195.011 37.2517 194.977C36.1026 186.017 33.5522 177.294 29.6937 169.125C25.9115 161.117 21.1431 152.591 13.8511 147.287C9.88071 144.401 5.41726 142.514 0.966793 140.517C0.919476 140.493 0.883667 140.451 0.867242 140.401C0.850817 140.35 0.855122 140.295 0.879211 140.248C0.903299 140.201 0.945198 140.165 0.995689 140.149C1.04618 140.132 1.10113 140.136 1.14844 140.161Z" fill="#EBEBEB"/>
<path d="M31.8284 174.014C29.0131 171.44 25.9214 169.185 22.6096 167.29C17.4585 164.431 13.274 162.55 11.996 160.054C10.7179 157.557 14.6948 154.322 14.6948 154.322C14.6948 154.322 9.43986 156.915 7.26004 155.009C5.08022 153.103 0.5 139.875 0.5 139.875C0.5 139.875 12.6382 144.194 20.2157 152.934C27.7932 161.675 31.8284 174.014 31.8284 174.014Z" fill="#EBEBEB"/>
<path d="M11.1651 147.955C10.6204 147.916 10.073 147.948 9.53685 148.052C9.47846 148.052 9.49793 148.156 9.53685 148.149C10.0753 148.091 10.6007 148.11 11.1326 148.097C11.1516 148.101 11.1714 148.098 11.1878 148.088C11.2043 148.077 11.2159 148.061 11.2202 148.042C11.2245 148.023 11.2211 148.003 11.2108 147.987C11.2004 147.97 11.184 147.959 11.1651 147.955Z" fill="white"/>
<path d="M47.4829 211.674H20.0859L23.9915 183.072L24.9905 175.739H42.5783L43.5774 183.072L47.4829 211.674Z" fill="#DBDBDB"/>
<path d="M43.5781 183.072H23.9922L24.9913 175.739H42.5791L43.5781 183.072Z" fill="#C7C7C7"/>
<path d="M45.0883 173.197H22.4727V179.409H45.0883V173.197Z" fill="#DBDBDB"/>
<path d="M2.66602 211.674L51.978 211.512L101.29 211.46L199.914 211.35L298.538 211.453L347.85 211.512L397.162 211.674L347.85 211.83L298.538 211.888L199.914 211.992L101.29 211.888L51.978 211.83L2.66602 211.674Z" fill="#263238"/>
<path d="M201.212 260C303.95 260 387.236 250.879 387.236 239.627C387.236 228.375 303.95 219.254 201.212 219.254C98.4735 219.254 15.1875 228.375 15.1875 239.627C15.1875 250.879 98.4735 260 201.212 260Z" fill="#EBEBEB"/>
<path d="M157.908 236.249C156.396 236.761 113.053 236.897 111.392 235.879C110.743 235.484 110.373 229.181 110.095 221.543C110.036 219.896 109.991 218.19 109.952 216.459L106.436 193.356L135.416 193.168L138.147 216.278L138.036 221.361C138.036 221.361 154.658 228.727 156.357 230.056C158.057 231.386 159.445 235.736 157.908 236.249Z" fill="#EB9481"/>
<path d="M157.907 236.249C156.395 236.761 113.052 236.897 111.391 235.879C110.625 235.399 110.21 226.185 109.977 216.459L138.172 216.278L138.061 221.361C138.061 221.361 154.682 228.727 156.382 230.056C158.082 231.386 159.444 235.736 157.907 236.249Z" fill="white"/>
<path d="M157.907 236.249C156.396 236.761 113.052 236.897 111.391 235.879C110.743 235.484 110.373 229.181 110.094 221.543L138.036 221.361C138.036 221.361 154.657 228.727 156.357 230.056C158.056 231.386 159.445 235.736 157.907 236.249Z" fill="#A6A6A6"/>
<path d="M157.278 234.517C150.012 234.368 120.688 234.44 113.493 234.835C113.435 234.835 113.435 234.881 113.493 234.881C120.694 235.192 150.018 234.881 157.278 234.641C157.433 234.634 157.433 234.524 157.278 234.517Z" fill="#263238"/>
<path d="M153.607 228.507C152.799 228.489 151.996 228.638 151.249 228.946C150.502 229.254 149.827 229.714 149.267 230.296C148.249 231.337 147.672 232.731 147.658 234.187C147.658 234.232 147.736 234.232 147.743 234.187C147.983 232.751 148.682 231.432 149.734 230.426C150.786 229.42 152.136 228.781 153.581 228.604C153.594 228.607 153.607 228.606 153.619 228.599C153.631 228.592 153.639 228.581 153.642 228.568C153.646 228.555 153.644 228.542 153.637 228.53C153.631 228.519 153.62 228.51 153.607 228.507Z" fill="#263238"/>
<path d="M140.884 222.075C137.977 222.075 134.61 223.086 132.807 225.466C132.742 225.556 132.871 225.66 132.956 225.615C135.494 224.27 138.169 223.203 140.936 222.431C140.978 222.419 141.015 222.393 141.04 222.355C141.064 222.318 141.074 222.274 141.067 222.23C141.061 222.186 141.039 222.146 141.005 222.117C140.971 222.089 140.928 222.074 140.884 222.075Z" fill="#263238"/>
<path d="M143.135 222.943C140.222 222.911 136.855 223.948 135.058 226.334C134.986 226.425 135.116 226.522 135.207 226.477C137.744 225.138 140.417 224.072 143.18 223.3C143.222 223.288 143.259 223.262 143.283 223.226C143.307 223.189 143.318 223.145 143.312 223.102C143.307 223.059 143.286 223.019 143.253 222.99C143.221 222.96 143.178 222.944 143.135 222.943Z" fill="#263238"/>
<path d="M145.38 223.812C142.473 223.78 139.106 224.817 137.303 227.203C137.238 227.294 137.368 227.391 137.452 227.346C139.991 226.006 142.666 224.941 145.432 224.169C145.474 224.157 145.511 224.13 145.536 224.093C145.56 224.056 145.57 224.011 145.563 223.968C145.557 223.924 145.535 223.884 145.501 223.855C145.467 223.827 145.424 223.811 145.38 223.812Z" fill="#263238"/>
<path d="M147.632 224.675C144.719 224.675 141.352 225.686 139.555 228.066C139.484 228.163 139.62 228.26 139.704 228.215C142.242 226.869 144.917 225.802 147.684 225.031C147.727 225.02 147.764 224.993 147.788 224.956C147.812 224.918 147.822 224.874 147.816 224.83C147.809 224.786 147.787 224.746 147.753 224.718C147.72 224.689 147.676 224.674 147.632 224.675Z" fill="#263238"/>
<path d="M115.329 227.936C112.086 227.936 112.086 233.019 115.329 233C118.573 232.981 118.573 227.91 115.329 227.936Z" fill="#263238"/>
<path d="M143.999 214.307C142.526 213.094 140.671 214.307 139.769 215.564C138.269 217.774 137.374 220.338 137.174 223.001C137.173 223.013 137.175 223.025 137.179 223.036C137.183 223.048 137.19 223.058 137.199 223.066C137.207 223.074 137.218 223.08 137.23 223.084C137.241 223.087 137.253 223.088 137.265 223.086C137.277 223.14 137.302 223.191 137.337 223.235C137.372 223.278 137.418 223.312 137.469 223.335C137.52 223.358 137.576 223.368 137.632 223.365C137.687 223.363 137.742 223.347 137.791 223.319C139.854 221.88 142.241 220.596 143.804 218.566C144.693 217.386 145.394 215.461 143.999 214.307ZM140.457 220.499C139.458 221.231 138.426 221.912 137.453 222.677C137.972 221.231 138.42 219.766 139.082 218.365C139.388 217.694 139.739 217.044 140.133 216.42C140.781 215.461 143.61 213.016 143.908 216.18C144.077 217.905 141.644 219.623 140.457 220.499Z" fill="#263238"/>
<path d="M129.932 224.11C132.463 224.486 135.077 223.76 137.562 223.365C137.616 223.351 137.666 223.324 137.708 223.287C137.749 223.25 137.782 223.204 137.803 223.153C137.824 223.101 137.832 223.045 137.827 222.99C137.823 222.934 137.805 222.88 137.776 222.833C137.785 222.826 137.793 222.816 137.798 222.806C137.803 222.795 137.806 222.783 137.806 222.771C137.806 222.759 137.803 222.748 137.798 222.737C137.793 222.726 137.785 222.717 137.776 222.71C135.779 220.934 133.353 219.712 130.737 219.163C129.206 218.878 127.039 219.293 126.844 221.193C126.611 222.982 128.453 223.883 129.932 224.11ZM128.168 222.457C126.222 219.974 129.939 219.76 131.055 220.019C131.779 220.198 132.49 220.425 133.183 220.7C134.623 221.251 135.966 221.997 137.341 222.684C136.109 222.801 134.895 223.027 133.669 223.19C132.197 223.384 129.258 223.831 128.168 222.457Z" fill="#263238"/>
<path d="M63.8828 86.5435C63.8828 86.5435 97.5338 143.759 98.4615 147.773C99.8434 153.946 107.181 214.909 107.181 214.909L142.214 214.261C142.214 214.261 136.18 160.514 130.465 142.806C126.352 130.052 96.6515 87.7495 96.6515 87.7495L63.8828 86.5435Z" fill="#37474F"/>
<path d="M138.989 208.912C133.961 208.879 116.14 208.678 109.445 209.301C109.393 209.301 109.399 209.391 109.445 209.398C111.748 209.729 133.955 209.21 138.983 209.054C138.992 209.055 139.001 209.053 139.01 209.05C139.019 209.047 139.027 209.042 139.034 209.036C139.041 209.029 139.047 209.022 139.051 209.013C139.055 209.005 139.057 208.996 139.057 208.986C139.058 208.977 139.056 208.967 139.053 208.959C139.05 208.95 139.045 208.942 139.039 208.935C139.032 208.928 139.025 208.922 139.016 208.918C139.008 208.914 138.998 208.912 138.989 208.912Z" fill="#263238"/>
<path d="M69.6246 91.7957C71.8304 95.2517 74.1659 98.6364 76.4106 102.06C78.6553 105.484 80.9454 108.933 83.1317 112.376C87.5692 119.293 91.8943 126.254 96.1068 133.262C98.161 136.496 99.9177 139.91 101.355 143.461C102.669 147.026 103.654 150.702 104.301 154.445C104.988 158.199 105.442 161.993 105.864 165.779C106.297 169.817 106.749 173.854 107.22 177.892C108.141 186.152 109.065 194.413 109.99 202.674C110.101 203.686 110.211 204.697 110.315 205.715C110.315 205.858 110.062 205.89 110.042 205.715C109.011 197.506 108.154 189.278 107.22 181.075C106.753 176.982 106.288 172.89 105.825 168.801C105.391 164.995 104.975 161.189 104.385 157.402C103.843 153.671 103.019 149.986 101.92 146.379C100.71 142.642 99.0868 139.051 97.08 135.674C93.0252 128.677 88.7305 121.804 84.4357 114.924C80.141 108.045 75.7554 101.152 71.2141 94.3504C70.6561 93.5139 70.0917 92.6775 69.5078 91.854C69.4689 91.7892 69.5857 91.7243 69.6246 91.7957Z" fill="#263238"/>
<path d="M74.9122 239.627C73.3163 239.53 32.0943 222.833 30.946 221.257C30.9021 221.162 30.8821 221.057 30.8876 220.953C30.8876 219.533 33.7486 214.572 36.136 208.069C36.2853 207.654 37.3492 205.721 38.8219 203.115C42.8831 195.982 50.0648 183.714 50.0648 183.714L77.0077 194.413L64.1104 213.71L62.1317 218.378C62.1317 218.378 74.776 231.437 75.8399 233.292C76.9039 235.146 76.5017 239.718 74.9122 239.627Z" fill="#EB9481"/>
<path d="M74.9122 239.627C73.3163 239.53 32.0943 222.833 30.946 221.257C30.9021 221.162 30.8821 221.057 30.8876 220.953C30.8876 219.533 33.7486 214.572 36.136 208.069C36.2853 207.654 37.3492 205.721 38.8219 203.115L64.1234 213.71L62.1317 218.378C62.1317 218.378 74.776 231.437 75.8399 233.292C76.9039 235.146 76.5017 239.718 74.9122 239.627Z" fill="white"/>
<path d="M74.9126 239.62C73.3167 239.53 32.0947 222.833 30.9529 221.251C30.5117 220.654 32.3542 215.026 36.1429 208.069L62.0932 218.378C62.0932 218.378 74.7375 231.437 75.8079 233.292C76.8784 235.146 76.5021 239.718 74.9126 239.62Z" fill="#A6A6A6"/>
<path d="M74.9764 237.785C68.3007 234.919 41.0918 223.987 34.2734 221.659C34.215 221.659 34.202 221.659 34.2734 221.705C40.8323 224.688 68.1255 235.399 74.9504 237.915C75.1061 237.967 75.1061 237.844 74.9764 237.785Z" fill="#263238"/>
<path d="M73.8084 230.834C73.0681 230.509 72.2684 230.342 71.4599 230.342C70.6513 230.342 69.8516 230.509 69.1114 230.834C67.7831 231.421 66.7294 232.492 66.166 233.83C66.166 233.875 66.2244 233.901 66.2439 233.862C67.0134 232.617 68.1677 231.655 69.5324 231.123C70.897 230.59 72.398 230.517 73.8084 230.912C73.8084 230.925 73.8603 230.834 73.8084 230.834Z" fill="#263238"/>
<path d="M64.4473 220.097C61.7679 218.981 58.2517 218.683 55.6891 220.213C55.5918 220.272 55.6891 220.414 55.7734 220.408C58.6298 220.112 61.5099 220.127 64.363 220.453C64.4055 220.454 64.4469 220.439 64.4803 220.413C64.5137 220.387 64.5373 220.35 64.5471 220.309C64.5568 220.267 64.5523 220.224 64.5342 220.185C64.5161 220.147 64.4854 220.116 64.4473 220.097Z" fill="#263238"/>
<path d="M66.2051 221.757C63.5257 220.641 60.0095 220.337 57.4469 221.873C57.3496 221.932 57.4469 222.074 57.5312 222.068C60.3875 221.773 63.2673 221.786 66.1208 222.107C66.1647 222.112 66.2088 222.1 66.2449 222.075C66.2811 222.049 66.3067 222.012 66.317 221.969C66.3274 221.926 66.3217 221.881 66.3011 221.842C66.2805 221.803 66.2464 221.772 66.2051 221.757Z" fill="#263238"/>
<path d="M67.9714 223.391C65.2855 222.275 61.7692 221.971 59.2067 223.507C59.1093 223.566 59.2067 223.708 59.291 223.702C62.1473 223.407 65.027 223.42 67.8805 223.741C67.9253 223.748 67.9713 223.739 68.0094 223.714C68.0475 223.689 68.075 223.651 68.0864 223.607C68.0978 223.563 68.0923 223.517 68.071 223.477C68.0497 223.437 68.0142 223.406 67.9714 223.391Z" fill="#263238"/>
<path d="M69.7296 225.038C67.0438 223.922 63.534 223.618 60.9714 225.154C60.8676 225.213 60.9714 225.355 61.0493 225.342C63.9059 225.053 66.7853 225.068 69.6388 225.388C69.6836 225.395 69.7296 225.386 69.7677 225.361C69.8058 225.336 69.8333 225.298 69.8447 225.254C69.8561 225.21 69.8506 225.164 69.8293 225.124C69.808 225.084 69.7724 225.053 69.7296 225.038Z" fill="#263238"/>
<path d="M38.5565 215.921C35.5271 214.715 33.6459 219.422 36.6883 220.628C39.7306 221.834 41.5924 217.153 38.5565 215.921Z" fill="#263238"/>
<path d="M70.2543 214.066C69.3395 212.387 67.1792 212.802 65.8622 213.645C63.644 215.128 61.8543 217.167 60.6721 219.558C60.667 219.569 60.6642 219.581 60.6641 219.593C60.6639 219.605 60.6664 219.617 60.6713 219.628C60.6763 219.64 60.6835 219.649 60.6926 219.657C60.7017 219.665 60.7124 219.671 60.724 219.675C60.724 219.889 60.8668 220.142 61.1198 220.083C63.5786 219.526 66.2709 219.234 68.4767 217.937C69.7418 217.179 71.1171 215.655 70.2543 214.066ZM64.6425 218.475C63.4423 218.78 62.2357 219.027 61.0484 219.37C62.0305 218.19 63.072 217.06 64.1689 215.986C64.7081 215.473 65.2803 214.997 65.8817 214.559C66.8288 213.911 70.384 212.705 69.4758 215.752C68.9762 217.432 66.0763 218.112 64.6425 218.475Z" fill="#263238"/>
<path d="M53.5365 217.866C55.7422 219.163 58.4346 219.468 60.8869 220.032C61.1399 220.09 61.3086 219.837 61.2891 219.623C61.3005 219.62 61.3112 219.615 61.3203 219.608C61.3294 219.6 61.3367 219.591 61.3417 219.581C61.3466 219.57 61.3492 219.558 61.3491 219.547C61.3489 219.535 61.3462 219.523 61.341 219.513C60.1627 217.114 58.3726 215.068 56.1509 213.58C54.8534 212.737 52.6801 212.283 51.7589 213.989C50.8376 215.694 52.2454 217.114 53.5365 217.866ZM52.5244 215.675C51.6226 212.627 55.1713 213.833 56.112 214.494C56.716 214.929 57.2883 215.406 57.8247 215.921C58.9601 216.978 59.9202 218.171 60.9388 219.325C59.7515 218.968 58.5449 218.722 57.3447 218.417C55.9174 218.061 53.0499 217.367 52.5244 215.687V215.675Z" fill="#263238"/>
<path d="M66.1939 212.627L36.0332 200.456C36.0332 200.456 73.4275 145.51 73.7 141.451C73.9465 137.826 57.52 106.301 56.8777 97.1126C56.1771 87.1984 60.9519 79.5212 66.2069 74.7618L97.3147 87.9765C97.3147 87.9765 94.032 93.2286 88.8809 96.1529C88.8809 96.1529 104.834 132.594 103.926 143.798C103.017 155.003 66.1939 212.627 66.1939 212.627Z" fill="#37474F"/>
<path d="M67.5288 206.895C63.1692 205.021 64.4473 205.501 60.0617 203.653C57.9208 202.758 43.8428 196.903 41.6759 196.423C41.6305 196.423 41.5981 196.488 41.6759 196.514C43.5508 197.662 57.7456 203.27 59.906 204.12C64.324 205.864 63.0719 205.313 67.5094 207.005C67.5189 207 67.5271 206.993 67.5334 206.984C67.5397 206.975 67.544 206.965 67.5458 206.954C67.5477 206.944 67.5471 206.933 67.5442 206.923C67.5413 206.912 67.536 206.903 67.5288 206.895Z" fill="#263238"/>
<path d="M93.9793 95.4527C90.7408 96.205 87.5721 97.2309 84.5075 98.5195C84.4854 98.5309 84.4682 98.5497 84.4588 98.5726C84.4495 98.5956 84.4487 98.6211 84.4565 98.6446C84.4643 98.6681 84.4803 98.688 84.5016 98.7007C84.5228 98.7135 84.5479 98.7182 84.5723 98.714C87.7512 97.7804 90.982 96.918 94.109 95.8223C94.1333 95.8138 94.1557 95.8005 94.1749 95.7834C94.194 95.7662 94.2096 95.7455 94.2208 95.7223C94.2319 95.6991 94.2384 95.674 94.2398 95.6483C94.2413 95.6226 94.2376 95.5969 94.2291 95.5727C94.2206 95.5484 94.2073 95.526 94.1902 95.5069C94.173 95.4877 94.1522 95.4721 94.129 95.461C94.1059 95.4498 94.0807 95.4434 94.055 95.4419C94.0293 95.4405 94.0036 95.4442 93.9793 95.4527Z" fill="#263238"/>
<path d="M90.2886 94.1753C89.9876 94.711 89.7211 95.2655 89.4907 95.8351C89.2673 96.272 89.1287 96.7472 89.082 97.2356C89.082 97.3264 89.2118 97.3523 89.2637 97.294C89.5907 96.9048 89.8555 96.4674 90.0486 95.9972C90.3146 95.485 90.587 94.9728 90.84 94.4541C91.0022 94.091 90.4767 93.8446 90.2886 94.1753Z" fill="#263238"/>
<path d="M90.6775 91.2508C90.8722 90.771 91.0603 90.2912 91.2614 89.8179C91.4625 89.3445 91.7155 88.8453 91.9101 88.3396C91.9101 88.2618 92.0657 88.3396 92.0333 88.3914C91.8387 88.8712 91.7155 89.3834 91.5663 89.8762C91.4171 90.369 91.2484 90.8617 91.0862 91.3545C90.7813 92.2687 90.4375 93.1765 90.0159 94.0583C90.5265 94.0869 91.0369 93.9981 91.5079 93.7989C91.9854 93.5 92.3557 93.0573 92.5652 92.5346C92.8377 92.0029 93.0907 91.4518 93.3696 90.9201C93.7142 90.3482 94.0031 89.7446 94.2324 89.1176C94.2324 89.0398 94.3881 89.1176 94.3556 89.1695C93.9339 90.501 93.3798 91.7869 92.7015 93.0079C92.4096 93.4812 92.1825 93.974 91.6506 94.162C91.0749 94.3239 90.4717 94.3637 89.8797 94.2787C89.8018 94.2787 89.711 94.2787 89.7369 94.1685C90.0017 93.1809 90.3156 92.2071 90.6775 91.2508Z" fill="#263238"/>
<path d="M89.3401 97.3071C90.4495 99.6479 91.4226 101.982 92.4542 104.316C93.4857 106.651 94.4004 108.907 95.3282 111.222C97.1836 115.91 98.8444 120.682 100.304 125.487C101.024 127.873 101.692 130.279 102.289 132.697C102.946 135.117 103.427 137.581 103.73 140.07C103.99 142.553 103.77 145.062 103.081 147.462C102.366 149.832 101.448 152.136 100.337 154.348C99.6554 155.755 99.4283 155.56 99.7527 154.854C100.68 152.85 103.113 146.761 102.938 141.639C102.79 139.176 102.403 136.733 101.783 134.344C101.217 131.893 100.579 129.462 99.8695 127.05C98.4876 122.29 96.8462 117.628 95.1595 112.973C94.2123 110.379 93.2132 107.785 92.2401 105.192C91.2669 102.598 90.2938 100.205 89.2039 97.346C89.2013 97.3371 89.2006 97.3277 89.2016 97.3185C89.2027 97.3092 89.2056 97.3003 89.2101 97.2922C89.2146 97.284 89.2207 97.2769 89.228 97.2711C89.2353 97.2653 89.2436 97.261 89.2525 97.2585C89.2615 97.2559 89.2709 97.2551 89.2801 97.2562C89.2893 97.2573 89.2983 97.2601 89.3064 97.2647C89.3146 97.2692 89.3217 97.2752 89.3275 97.2825C89.3333 97.2898 89.3376 97.2982 89.3401 97.3071Z" fill="#263238"/>
<path d="M66.4468 89.5648C66.9852 89.3638 67.7443 89.701 68.2892 89.7917C68.9954 89.9083 69.7084 89.9797 70.4236 90.0057C71.1316 90.0274 71.8402 90.0036 72.5451 89.9344C73.2544 89.914 73.9494 89.7298 74.5757 89.3962C75.6036 88.6484 76.4836 87.7162 77.1707 86.6471C77.9932 85.559 78.6714 84.369 79.1883 83.107C79.1883 83.0356 79.3246 83.107 79.2986 83.1588C79.0716 83.885 78.9029 84.6112 78.6499 85.3179C78.3688 85.9813 78.0347 86.6209 77.6508 87.2306C77.0246 88.4549 76.1011 89.5027 74.9649 90.278C73.7128 90.9912 72.1039 90.9264 70.7091 90.8681C69.9 90.8187 69.0955 90.7104 68.3022 90.5439C67.7313 90.4272 66.7711 90.3364 66.4078 89.8306C66.3908 89.8115 66.3781 89.7889 66.3707 89.7644C66.3633 89.7399 66.3614 89.714 66.3651 89.6886C66.3688 89.6633 66.3781 89.6391 66.3922 89.6177C66.4063 89.5963 66.4249 89.5782 66.4468 89.5648Z" fill="#263238"/>
<path d="M44.6152 194.712C49.5717 187.216 54.4374 179.651 59.2122 172.017C63.9871 164.383 68.697 156.699 73.3421 148.966C74.4515 147.118 75.7296 145.27 76.4432 143.221C77.2217 140.997 76.7806 138.844 76.0799 136.666C74.7569 132.691 73.2104 128.795 71.4478 124.994C69.7091 121.162 67.8342 117.395 65.9917 113.608C64.1493 109.821 62.2484 106.1 60.8341 102.157C59.5366 98.39 59.0111 94.4866 60.0232 90.5766C61.0352 86.6667 63.2151 83.2237 65.4922 79.9751C66.089 79.1192 66.7054 78.2698 67.3087 77.4204C67.3541 77.349 67.4514 77.4204 67.406 77.4982C64.8953 80.8829 62.4495 84.4621 60.9768 88.4369C60.2242 90.3983 59.8032 92.4713 59.7312 94.5709C59.7184 96.6978 60.0492 98.8129 60.7109 100.835C61.9305 104.777 63.8573 108.512 65.6544 112.214C67.4514 115.917 69.3718 119.768 71.1429 123.581C72.9498 127.411 74.5566 131.333 75.9566 135.33C76.56 137.12 77.2541 138.981 77.2022 140.893C77.1568 142.988 76.1577 144.875 75.1197 146.638C70.5784 154.328 65.9269 161.921 61.1909 169.469C56.455 177.016 51.5829 184.564 46.6523 192.027L44.8098 194.848C44.732 194.964 44.5633 194.828 44.6152 194.712Z" fill="#263238"/>
<path d="M99.0396 52.9946C101.849 59.161 116.037 67.6487 122.68 68.5565C127.455 69.2049 141.974 69.4383 146.95 68.6797C152.789 67.7914 148.326 52.0609 144.881 52.4694C135.409 53.5782 127.364 54.8102 124.834 54.8102C121.746 54.8102 105.041 49.4478 103.029 48.6957C98.0989 46.8477 97.4502 49.5062 99.0396 52.9946Z" fill="#EB9481"/>
<path d="M99.1117 54.6287C102.667 59.8873 114.481 68.4788 114.481 68.4788L116.122 64.8477L121.552 52.8456C121.552 52.8456 110.699 49.422 103.556 47.8982C102.715 47.707 101.86 47.5856 101 47.5351C96.4583 47.2887 96.0626 50.1028 99.1117 54.6287Z" fill="#FB7571"/>
<path d="M99.1117 54.6287C102.667 59.8873 114.481 68.4788 114.481 68.4788L116.122 64.8477C111.717 59.7382 104.912 51.9897 101 47.5351C96.4583 47.2887 96.0626 50.1028 99.1117 54.6287Z" fill="#263238"/>
<path d="M112.372 66.0537C113.273 63.8491 117.282 54.9464 118.281 53.0854C118.346 52.9558 118.45 52.9622 118.392 53.0854C116.653 57.5127 114.673 61.8419 112.463 66.0537C112.437 66.138 112.346 66.138 112.372 66.0537Z" fill="#263238"/>
<path d="M143.143 52.6381C148.904 51.873 156.033 50.5761 162.073 53.1698C162.753 53.4374 163.322 53.9263 163.689 54.5574C166.413 55.6597 166.712 57.2742 166.712 57.2742C168.937 59.0768 169.015 60.7692 169.015 60.7692C169.015 60.7692 172.207 62.066 171.72 64.1603C171.188 66.4687 166.816 64.1603 163.637 64.3484C156.338 64.7958 146.12 67.4737 144.012 67.8174L143.143 52.6381Z" fill="#EB9481"/>
<path d="M155.656 59.4334C157.79 59.2876 159.932 59.2876 162.066 59.4334C164.39 59.7248 166.689 60.1908 168.943 60.8274C168.957 60.8326 168.973 60.8318 168.987 60.8251C169.001 60.8184 169.012 60.8064 169.017 60.7918C169.022 60.7772 169.021 60.7611 169.015 60.7471C169.008 60.7331 168.996 60.7224 168.981 60.7172C164.747 59.0568 160.138 58.5903 155.656 59.3686C155.552 59.3556 155.552 59.4334 155.656 59.4334Z" fill="#263238"/>
<path d="M154.748 55.0697C156.844 55.0697 160.529 55.1734 166.692 57.3195C166.692 57.3195 166.731 57.3195 166.692 57.2871C162.999 55.42 158.859 54.6184 154.735 54.9724C154.619 54.9789 154.606 55.0697 154.748 55.0697Z" fill="#263238"/>
<path d="M154.301 52.7223C157.862 52.9039 160.088 53.468 163.669 54.5443C163.669 54.5443 163.708 54.5443 163.669 54.5119C159.724 52.8585 158.109 52.7094 154.281 52.5991C154.158 52.5927 154.164 52.7094 154.301 52.7223Z" fill="#263238"/>
<path d="M154.904 65.4247C153.976 65.8591 154.203 66.3519 155.974 66.7603C157.745 67.1688 165.109 67.292 164.849 69.8531C164.59 72.4142 154.203 72.0965 151.303 71.1888C148.403 70.281 144.037 67.7977 144.037 67.7977C146.042 67.4347 150.894 66.1379 154.904 65.4247Z" fill="#EB9481"/>
<path d="M106.753 62.8181C106.707 63.9269 106.603 65.0551 106.448 66.1703L106.493 66.0536C106.707 65.47 106.921 64.867 107.181 64.3029C107.181 64.3029 107.246 64.3029 107.239 64.3029C107.111 64.9203 106.925 65.5239 106.681 66.1054C106.564 66.3777 106.454 66.6565 106.331 66.9289C106.253 67.4281 106.162 67.9209 106.065 68.4072C105.87 69.3343 104.995 73.283 104.768 73.9443C104.729 74.087 104.56 74.0546 104.573 73.8989C104.618 73.1728 105.351 69.062 105.501 68.1348C105.79 66.33 106.178 64.5421 106.662 62.7792C106.694 62.7598 106.759 62.7792 106.753 62.8181Z" fill="#263238"/>
<path d="M99.9929 92.2949C98.2607 93.1897 96.029 94.5708 85.9733 92.5931C85.3245 92.4635 84.7147 92.3078 84.0789 92.1198C74.6525 89.2863 63.3187 78.2049 62.6699 77.4268C62.6699 77.4268 77.6497 53.1568 96.8075 45.525C99.1754 44.5848 103.094 46.4003 105.241 48.6633C106.013 49.4738 107.694 55.4262 107.051 60.2504C106.409 65.0746 101.706 91.426 99.9929 92.2949Z" fill="#FB7571"/>
<path d="M98.6567 60.0299C98.7298 61.0576 98.5861 62.0892 98.2351 63.0578C98.1535 62.0299 98.2974 60.9965 98.6567 60.0299Z" fill="white"/>
<path d="M92.1235 76.558C92.1649 77.0705 92.1475 77.5861 92.0716 78.0946C92.0083 78.6047 91.8842 79.1054 91.7019 79.5859C91.6572 79.0735 91.6746 78.5575 91.7538 78.0493C91.8193 77.5396 91.9434 77.0392 92.1235 76.558Z" fill="white"/>
<path d="M81.0243 64.0696C81.0967 65.0951 80.953 66.1244 80.6027 67.091C80.5559 66.581 80.5711 66.0672 80.6481 65.5609C80.7159 65.051 80.8421 64.5506 81.0243 64.0696Z" fill="white"/>
<path d="M102.932 75.7216C102.973 76.2341 102.956 76.7496 102.88 77.2582C102.817 77.7662 102.693 78.2647 102.51 78.743C102.466 78.2327 102.483 77.7189 102.562 77.2128C102.628 76.7032 102.752 76.2028 102.932 75.7216Z" fill="white"/>
<path d="M88.6797 61.9234C89.7057 61.8511 90.7355 61.9946 91.7026 62.3448C90.6765 62.4185 89.6464 62.2749 88.6797 61.9234Z" fill="white"/>
<path d="M76.0801 73.8671C77.1061 73.7948 78.1359 73.9384 79.103 74.2885C78.0769 74.3622 77.0468 74.2186 76.0801 73.8671Z" fill="white"/>
<path d="M90.8984 86.79C91.4112 86.7485 91.927 86.7659 92.4358 86.8418C92.944 86.9051 93.4428 87.0291 93.9213 87.2114C93.4108 87.2559 92.8968 87.2385 92.3904 87.1595C91.8806 87.094 91.3799 86.97 90.8984 86.79Z" fill="white"/>
<path d="M72.1934 82.0953C72.704 82.054 73.2176 82.0714 73.7243 82.1472C74.2347 82.2096 74.7357 82.3337 75.2163 82.5168C74.1902 82.5891 73.1604 82.4455 72.1934 82.0953Z" fill="white"/>
<path d="M98.5586 48.4169C99.069 48.3734 99.5826 48.3886 100.09 48.4623C100.6 48.527 101.101 48.6533 101.582 48.8383C100.555 48.9106 99.5257 48.7671 98.5586 48.4169Z" fill="white"/>
<path d="M94.8935 52.5538C94.2263 53.3355 93.396 53.9618 92.4609 54.3887C92.7946 53.9998 93.1711 53.6496 93.5832 53.3449C93.9858 53.0284 94.4259 52.7627 94.8935 52.5538Z" fill="white"/>
<path d="M74.9177 64.303C74.5858 64.6956 74.2092 65.0481 73.7954 65.3534C73.396 65.6676 72.9604 65.9332 72.498 66.1444C72.8299 65.7517 73.2065 65.3992 73.6203 65.094C74.0222 64.7833 74.4573 64.518 74.9177 64.303Z" fill="white"/>
<path d="M99.863 69.6135C99.5311 70.0062 99.1545 70.3587 98.7407 70.6639C98.3388 70.9746 97.9037 71.2399 97.4434 71.4549C97.7752 71.0623 98.1518 70.7098 98.5656 70.4045C98.9666 70.0925 99.4019 69.8271 99.863 69.6135Z" fill="white"/>
<path d="M83.7087 79.7546C83.3768 80.1473 83.0002 80.4998 82.5864 80.805C82.1854 81.1171 81.7502 81.3824 81.2891 81.596C81.6209 81.2034 81.9975 80.8509 82.4113 80.5457C82.8108 80.2314 83.2463 79.9658 83.7087 79.7546Z" fill="white"/>
<path d="M106.053 55.718C105.727 56.1095 105.357 56.462 104.95 56.7684C104.551 57.0836 104.115 57.3492 103.652 57.5594C103.984 57.1668 104.361 56.8143 104.775 56.509C105.169 56.1983 105.598 55.9329 106.053 55.718Z" fill="white"/>
<path d="M105.709 67.506C105.32 67.1724 104.969 66.7962 104.664 66.3843C104.348 65.9866 104.082 65.551 103.873 65.0875C104.654 65.7583 105.28 66.5899 105.709 67.5254V67.506Z" fill="white"/>
<path d="M69.7095 75.6177C69.3168 75.2883 68.9641 74.914 68.6586 74.5024C68.3491 74.0998 68.0837 73.665 67.8672 73.2057C68.2599 73.5351 68.6126 73.9094 68.9181 74.3209C69.2298 74.722 69.4953 75.157 69.7095 75.6177Z" fill="white"/>
<path d="M101.336 85.2789C100.944 84.9472 100.591 84.5708 100.286 84.1572C99.9744 83.7557 99.7089 83.3208 99.4941 82.8605C99.8884 83.1883 100.241 83.5627 100.545 83.9757C100.859 84.3779 101.124 84.8153 101.336 85.2789Z" fill="white"/>
<path d="M85.4868 57.7539C85.094 57.4222 84.7413 57.0458 84.4359 56.6322C84.1237 56.2314 83.8582 55.7963 83.6445 55.3354C84.0347 55.653 84.3873 56.0141 84.6954 56.4118C85.0092 56.8278 85.2747 57.278 85.4868 57.7539Z" fill="white"/>
<path d="M85.7661 90.7775C85.3733 90.4458 85.0206 90.0693 84.7152 89.6558C84.403 89.2549 84.1375 88.8199 83.9238 88.359C84.3167 88.6907 84.6694 89.0671 84.9747 89.4807C85.2891 89.88 85.5548 90.3153 85.7661 90.7775Z" fill="white"/>
<path d="M88.4588 71.3252C88.0683 70.9955 87.7178 70.6212 87.4145 70.21C87.0991 69.8113 86.8334 69.3759 86.623 68.9132C87.0139 69.245 87.3644 69.6215 87.6674 70.0349C87.9827 70.4313 88.2485 70.8645 88.4588 71.3252Z" fill="white"/>
<path d="M101.777 55.115C99.3307 54.6611 97.0341 49.6165 96.7422 46.2188C96.7422 45.9854 97.884 44.1309 99.188 41.8161C99.9795 40.409 100.816 38.8269 101.485 37.3226C101.621 37.0114 102.419 38.0423 102.419 38.0423L104.157 39.3391L109.899 43.7419C108.532 45.3844 107.371 47.1873 106.441 49.1107C106.349 49.319 106.28 49.5363 106.233 49.7591C106.232 49.7937 106.232 49.8283 106.233 49.8629C105.877 51.1597 104.132 55.5624 101.777 55.115Z" fill="#EB9481"/>
<path d="M106.248 49.7975C106.246 49.832 106.246 49.8666 106.248 49.9012C105.907 49.8037 105.575 49.6779 105.255 49.5251C98.9236 46.5815 101.707 38.1591 101.707 38.1591L104.172 39.378L109.914 43.7805C108.547 45.423 107.386 47.2258 106.456 49.1491C106.364 49.3573 106.294 49.5747 106.248 49.7975Z" fill="#263238"/>
<path d="M116.498 25.8392C116.498 25.8392 119.365 27.6612 119.385 30.9031C119.404 34.145 118.087 37.3155 117.815 37.4258C117.542 37.536 116.498 25.8392 116.498 25.8392Z" fill="#263238"/>
<path d="M102.238 27.5185C100.512 30.9291 100.603 41.6539 102.757 44.4226C105.884 48.4298 111.904 49.8109 115.544 45.8491C119.066 42.004 118.703 28.0243 116.192 25.4177C112.54 21.5855 104.794 22.4868 102.238 27.5185Z" fill="#EB9481"/>
<path d="M111.398 36.1166C111.398 36.1166 111.34 36.1166 111.346 36.1814C111.385 36.9141 111.308 37.757 110.652 38.0163V38.0552C111.437 37.9191 111.554 36.8039 111.398 36.1166Z" fill="#263238"/>
<path d="M110.729 35.3643C109.548 35.306 109.51 37.6661 110.606 37.7244C111.702 37.7828 111.715 35.4162 110.729 35.3643Z" fill="#263238"/>
<path d="M115.401 36.0906C115.401 36.0906 115.459 36.123 115.459 36.1554C115.42 36.8816 115.505 37.7245 116.166 37.9774V38.0227C115.33 37.8931 115.252 36.7779 115.401 36.0906Z" fill="#263238"/>
<path d="M116.07 35.332C117.244 35.2672 117.302 37.6273 116.213 37.6921C115.123 37.7569 115.084 35.3968 116.07 35.332Z" fill="#263238"/>
<path d="M109.99 33.5683C110.3 33.4823 110.605 33.3806 110.905 33.2635C111.245 33.2019 111.556 33.0285 111.787 32.7708C111.842 32.6751 111.866 32.564 111.853 32.4542C111.84 32.3443 111.792 32.2415 111.716 32.1613C111.539 32.0289 111.331 31.946 111.112 31.9209C110.893 31.8958 110.672 31.9296 110.47 32.0186C110.032 32.1307 109.652 32.4039 109.406 32.7837C109.354 32.8737 109.329 32.9771 109.335 33.0811C109.341 33.1851 109.377 33.285 109.439 33.3686C109.501 33.4521 109.587 33.5156 109.685 33.5511C109.783 33.5866 109.889 33.5926 109.99 33.5683Z" fill="#263238"/>
<path d="M116.886 34.6186C116.579 34.5494 116.276 34.465 115.978 34.3657C115.636 34.3205 115.319 34.1632 115.076 33.9183C115.014 33.8268 114.984 33.7173 114.991 33.607C114.998 33.4967 115.042 33.3918 115.115 33.3089C115.283 33.1671 115.485 33.0726 115.702 33.035C115.919 32.9974 116.141 33.0181 116.347 33.0949C116.79 33.1897 117.182 33.4435 117.45 33.8081C117.505 33.8974 117.533 34.0008 117.53 34.1057C117.527 34.2106 117.494 34.3123 117.434 34.3985C117.374 34.4846 117.29 34.5513 117.193 34.5904C117.095 34.6295 116.989 34.6393 116.886 34.6186Z" fill="#263238"/>
<path d="M113.98 39.9159C113.98 39.9159 114.012 41.0116 113.98 41.5174C112.983 41.4158 111.976 41.4529 110.99 41.6276C110.756 41.6795 110.782 41.4914 111.048 41.3683C111.843 41.005 112.728 40.8876 113.591 41.0311C113.643 40.8949 113.506 39.3453 113.591 39.3518C113.982 39.4303 114.361 39.5589 114.72 39.7343C114.72 37.452 114.356 35.1957 114.389 32.9199C114.389 32.8421 114.512 32.8291 114.525 32.9199C114.985 35.3343 115.203 37.7888 115.174 40.2466C115.18 40.5254 114.175 40.0261 113.98 39.9159Z" fill="#263238"/>
<path d="M112.52 41.1288C112.261 41.8087 111.781 42.3819 111.157 42.7563C110.178 43.1582 109.86 42.27 110.846 41.4595C111.362 41.1963 111.942 41.0818 112.52 41.1288Z" fill="#263238"/>
<path d="M111.503 42.5553C111.399 42.6395 111.283 42.7073 111.159 42.7563C110.257 43.1194 109.901 42.3996 110.627 41.6735C111.12 41.7124 111.659 41.8939 111.503 42.5553Z" fill="#FF99BA"/>
<path d="M101.746 36.7001C102.933 37.0632 104.295 33.497 104.678 32.1288C105.022 30.9163 105.411 27.0842 105.47 26.8248C105.528 26.5654 110.66 30.216 113.631 29.3406C116.602 28.4653 118.62 25.7874 118.665 24.5359C118.711 23.2845 114.993 20.1073 111.782 19.9452C108.571 19.7831 104.217 23.8356 104.217 23.8356C104.743 23.2392 105.221 22.6018 105.645 21.9293C105.593 21.7802 103.517 22.5777 103.134 24.0885C103.134 24.0885 103.549 22.2341 103.394 22.2016C103.238 22.1692 101.622 23.7513 101.986 24.9574C101.986 24.9574 100.117 26.5719 99.9487 28.3421C99.78 30.1123 100.351 36.2722 101.746 36.7001Z" fill="#263238"/>
<path d="M115.758 28.7181C114.87 29.1924 113.917 29.5332 112.929 29.7295C111.822 29.8288 110.707 29.6505 109.686 29.2108C108.671 28.8072 107.729 28.2423 106.896 27.538C106.15 26.9221 105.482 26.1829 104.684 25.6318C104.482 25.4956 104.255 25.7809 104.379 25.9689C105.712 27.8446 107.614 29.2424 109.802 29.9565C110.819 30.2901 111.905 30.3538 112.954 30.1412C114.002 29.9287 114.978 29.4472 115.784 28.744C115.784 28.744 115.771 28.7116 115.758 28.7181Z" fill="#263238"/>
<path d="M103.002 36.3822C103.002 36.3822 101.16 32.6476 99.4991 33.2506C97.8384 33.8536 98.8504 39.0211 100.556 39.9613C100.765 40.0967 100.999 40.1887 101.244 40.2317C101.489 40.2747 101.74 40.2678 101.982 40.2115C102.224 40.1552 102.453 40.0506 102.654 39.904C102.855 39.7574 103.024 39.5718 103.151 39.3583L103.002 36.3822Z" fill="#EB9481"/>
<path d="M99.8122 34.7224C99.8122 34.7224 99.7733 34.7548 99.8122 34.7678C100.993 35.4745 101.473 36.7454 101.758 38.0097C101.705 37.8719 101.623 37.7472 101.517 37.6444C101.411 37.5416 101.283 37.4632 101.144 37.4144C101.004 37.3657 100.856 37.3479 100.709 37.3622C100.562 37.3766 100.42 37.4227 100.292 37.4975C100.253 37.4975 100.292 37.5753 100.292 37.5688C100.524 37.5337 100.761 37.5709 100.971 37.6753C101.182 37.7797 101.354 37.9463 101.466 38.1523C101.653 38.5003 101.801 38.8678 101.907 39.2481C101.946 39.3648 102.16 39.3389 102.141 39.2027V39.1703C102.42 37.6077 101.512 35.1503 99.8122 34.7224Z" fill="#263238"/>
<path d="M90.8205 53.053C89.5229 60.3995 97.4897 85.1494 102.595 89.7726C110.192 96.6522 124.238 101.172 129.331 102.644C131.549 103.292 137.687 87.6782 135.442 86.6537C130.635 84.4491 115.7 79.7935 114.292 78.6004C112.885 77.4074 104.302 65.0616 100.493 57.9485C95.3747 48.3974 91.4627 49.3376 90.8205 53.053Z" fill="#EB9481"/>
<path d="M131.658 85.2791C131.658 85.2791 138.288 86.9649 142.564 88.2747C144.951 89.0009 148.935 90.6155 150.446 91.9577C152.704 93.9548 160.865 103.765 158.53 105.795C156.415 107.63 150.472 98.3121 150.472 98.3121C150.472 98.3121 157.297 107.189 154.365 108.927C151.432 110.664 146.099 99.2523 146.099 99.2523C146.099 99.2523 152.905 108.525 149.577 109.841C147.06 110.839 141.662 100.763 141.662 100.763C141.662 100.763 147.462 108.771 144.906 109.906C142.09 111.157 136.53 102.177 136.53 102.177C129.576 103.973 125.501 101.982 122.822 100.231C122.16 99.81 131.658 85.2791 131.658 85.2791Z" fill="#EB9481"/>
<path d="M148.306 95.0961C149.143 96.1075 150.006 97.1255 150.752 98.2148C151.498 99.304 152.205 100.406 152.847 101.554C153.715 103.04 154.411 104.619 154.923 106.261C153.807 103.415 151.193 99.4921 150.447 98.4093C149.701 97.3265 149.007 96.2048 148.267 95.122C148.248 95.0961 148.286 95.0701 148.306 95.0961Z" fill="#263238"/>
<path d="M144.341 97.7156C145.781 98.8567 148.798 103.104 149.959 105.944C150.011 106.067 149.959 106.054 149.875 105.944C148.96 104.537 145.282 99.0901 144.309 97.735C144.289 97.7221 144.322 97.7026 144.341 97.7156Z" fill="#263238"/>
<path d="M140.535 99.3561C142.322 101.234 143.736 103.434 144.699 105.84C144.745 105.957 144.654 105.937 144.583 105.84C143.24 103.655 142.202 101.95 140.463 99.4079C140.438 99.3755 140.496 99.3171 140.535 99.3561Z" fill="#263238"/>
<path d="M98.0397 53.5977C92.1166 45.2203 88.5744 48.3261 89.7616 57.4169C90.8775 65.9175 93.8553 76.0392 93.8553 76.0392L108.777 68.803L98.0397 53.5977Z" fill="#FB7571"/>
<path d="M101.66 56.8851C102.046 57.8392 102.223 58.8652 102.178 59.8936C101.984 59.4206 101.845 58.9267 101.763 58.4218C101.667 57.9156 101.632 57.3997 101.66 56.8851Z" fill="white"/>
<path d="M92.8184 61.9816C93.7711 61.5964 94.7948 61.4174 95.8218 61.4564C95.3498 61.6559 94.8554 61.7974 94.3493 61.8779C93.8442 61.9677 93.3309 62.0024 92.8184 61.9816Z" fill="white"/>
<path d="M93.2013 48.9551C93.0073 49.4307 92.7568 49.8813 92.4553 50.2972C92.1644 50.7202 91.8247 51.1076 91.4434 51.4513C91.8495 50.5062 92.4482 49.6561 93.2013 48.9551Z" fill="white"/>
<path d="M105.813 65.8916C105.411 66.8392 104.812 67.6902 104.055 68.3879C104.249 67.9123 104.499 67.4617 104.801 67.0457C105.092 66.6227 105.431 66.2354 105.813 65.8916Z" fill="white"/>
<path d="M95.4701 70.9685C94.5221 70.567 93.6707 69.968 92.9727 69.2114C93.9207 69.6129 94.7721 70.212 95.4701 70.9685Z" fill="white"/>
<path d="M100.027 56.1136C100.824 57.2094 101.648 58.2858 102.466 59.3557C102.258 58.811 102.077 58.2663 101.921 57.7022C101.921 57.7022 101.921 57.7022 101.96 57.7022C102.122 58.1367 102.31 58.5581 102.466 58.999L102.699 59.6475C102.719 59.6895 102.737 59.7328 102.751 59.7771C103.4 60.6136 104.049 61.4565 104.646 62.3124C105.379 63.3369 106.086 64.3744 106.8 65.4118C107.513 66.4493 108.233 67.7396 109.005 68.7771C109.077 68.8679 107.708 69.4255 107.552 69.5033C107.396 69.5811 107.332 69.445 107.474 69.406C107.617 69.3671 108.707 68.6863 108.72 68.6733C108.006 67.6294 107.182 66.6633 106.436 65.6388C105.69 64.6143 104.951 63.5444 104.23 62.5329C102.771 60.432 101.434 58.2534 99.9811 56.146C99.9681 56.1136 100.007 56.0877 100.027 56.1136Z" fill="#263238"/>
<path d="M90.1318 63.4276C90.3588 63.8685 90.6053 64.3094 90.7805 64.7633L91.027 65.3274C90.6831 63.7064 90.3783 62.0854 90.0215 60.4708C90.0215 60.4708 90.0215 60.4384 90.0215 60.4708C90.7091 63.0969 91.4032 65.7165 92.0389 68.3555C92.6422 70.8649 93.3752 73.4131 93.7255 75.9743C94.1797 75.7809 94.6482 75.6226 95.1267 75.501C94.6479 75.8177 94.1286 76.0685 93.5828 76.2467C92.8001 73.638 92.1506 70.9912 91.6367 68.3166C91.4746 67.5904 91.3253 66.8642 91.1697 66.1315C91.001 65.697 90.7999 65.2756 90.5988 64.8346C90.3977 64.3937 90.2161 63.9139 90.0345 63.447C90.0734 63.4211 90.1188 63.4016 90.1318 63.4276Z" fill="#263238"/>
<path d="M94.0961 73.5425C96.1721 72.3689 104.846 67.8822 106.786 67.0587C106.922 67.0004 106.993 67.0587 106.857 67.143C102.741 69.5358 98.4959 71.7003 94.1415 73.6268C94.0896 73.6463 94.0377 73.5749 94.0961 73.5425Z" fill="#263238"/>
<path d="M331.819 244.01H134.156L162.734 82.0045H360.397L331.819 244.01Z" fill="#F95F5F"/>
<path d="M230.387 65.2236H165.699L162.734 82.0045H231.97L230.387 65.2236Z" fill="#F95F5F"/>
<g opacity="0.1">
<path d="M331.819 244.01H134.156L162.734 82.0045H360.397L331.819 244.01Z" fill="#F95F5F"/>
<path d="M230.387 65.2236H165.699L162.734 82.0045H231.97L230.387 65.2236Z" fill="#F95F5F"/>
</g>
<path d="M158.719 72.0705C158.286 70.2128 158.286 68.2808 158.719 66.4231C159.151 68.2808 159.151 70.2128 158.719 72.0705Z" fill="#263238"/>
<path d="M152.957 73.7305C152.297 73.046 151.728 72.2788 151.264 71.4483C150.777 70.6353 150.396 69.7638 150.129 68.8547C150.791 69.5376 151.361 70.305 151.822 71.137C152.307 71.9511 152.688 72.8223 152.957 73.7305Z" fill="#263238"/>
<path d="M148.818 78.0426C147.909 77.7774 147.037 77.3983 146.223 76.9144C145.391 76.4529 144.623 75.8839 143.939 75.2222C145.764 75.7722 147.436 76.7377 148.824 78.0426H148.818Z" fill="#263238"/>
<path d="M147.384 83.846C145.528 84.2783 143.597 84.2783 141.74 83.846C143.597 83.4137 145.528 83.4137 147.384 83.846Z" fill="#263238"/>
<path d="M149.065 89.5909C148.382 90.2511 147.617 90.8199 146.788 91.2832C145.974 91.7676 145.102 92.1487 144.193 92.4179C144.877 91.7556 145.644 91.1866 146.477 90.7256C147.288 90.2402 148.158 89.859 149.065 89.5909Z" fill="#263238"/>
<path d="M153.359 93.7407C153.096 94.6503 152.717 95.5221 152.23 96.3342C151.768 97.1659 151.199 97.9332 150.537 98.6165C150.804 97.7073 151.185 96.8357 151.672 96.023C152.137 95.1948 152.704 94.4281 153.359 93.7407Z" fill="#263238"/>
<path d="M159.172 95.1737C159.398 96.0965 159.507 97.0441 159.496 97.9942C159.51 98.9444 159.401 99.8924 159.172 100.815C158.939 99.8929 158.83 98.9445 158.847 97.9942C158.833 97.044 158.943 96.0959 159.172 95.1737Z" fill="#263238"/>
<path d="M164.92 93.5138C165.58 94.1961 166.149 94.961 166.613 95.7896C167.098 96.6026 167.477 97.4742 167.742 98.3831C166.44 96.9931 165.474 95.3228 164.92 93.5009V93.5138Z" fill="#263238"/>
<path d="M169.066 89.2019C169.977 89.4637 170.849 89.8429 171.661 90.3301C172.492 90.7933 173.26 91.3622 173.945 92.0223C173.034 91.7583 172.162 91.3769 171.35 90.8877C170.52 90.4246 169.753 89.8581 169.066 89.2019Z" fill="#263238"/>
<path d="M170.473 83.3921C171.396 83.1661 172.344 83.0571 173.294 83.0679C174.247 83.0534 175.198 83.1624 176.123 83.3921C175.199 83.6249 174.247 83.7339 173.294 83.7163C172.344 83.7303 171.395 83.6213 170.473 83.3921Z" fill="#263238"/>
<path d="M168.839 77.6471C169.524 76.9869 170.292 76.4181 171.123 75.9548C171.935 75.4677 172.807 75.0884 173.717 74.8267C172.325 76.13 170.652 77.0951 168.826 77.6471H168.839Z" fill="#263238"/>
<path d="M164.525 73.5036C164.79 72.5948 165.169 71.7233 165.654 70.9101C166.118 70.0795 166.687 69.3124 167.347 68.6278C167.085 69.5377 166.706 70.4095 166.218 71.2213C165.755 72.0519 165.186 72.819 164.525 73.5036Z" fill="#263238"/>
<path d="M331.527 244.01H133.436L105.312 87.8856H303.404L331.527 244.01Z" fill="#FB7571"/>
<path d="M173.957 183.325C178.504 183.325 182.19 179.641 182.19 175.097C182.19 170.553 178.504 166.869 173.957 166.869C169.411 166.869 165.725 170.553 165.725 175.097C165.725 179.641 169.411 183.325 173.957 183.325Z" fill="#263238"/>
<path d="M239.041 183.325C243.588 183.325 247.274 179.641 247.274 175.097C247.274 170.553 243.588 166.869 239.041 166.869C234.495 166.869 230.809 170.553 230.809 175.097C230.809 179.641 234.495 183.325 239.041 183.325Z" fill="#263238"/>
<path d="M218.326 184.634L217.872 183.772C217.833 183.694 213.577 175.842 205.02 175.842C197.235 175.842 195.289 183.24 195.237 183.552L195.003 184.498L193.115 184.038L193.342 183.098C193.342 183.007 195.665 173.897 205.02 173.897C214.751 173.897 219.403 182.508 219.597 182.871L220.052 183.733L218.326 184.634Z" fill="#263238"/>
<path d="M318.391 174.15C318.812 174.06 319.234 173.962 319.649 173.852" stroke="#263238" stroke-miterlimit="10"/>
<path d="M322.134 173.126C332.06 169.774 340.37 161.973 341.149 152.856C342.874 132.756 318.384 121.655 320.914 98.4223C323.327 76.2661 346.579 74.684 355.901 77.751C366.197 81.1292 362.668 91.024 353.345 89.7466C337.204 87.5355 327.025 69.9701 334.7 50.0509C340.448 35.1633 354.721 29.5546 360.56 27.8428" stroke="#263238" stroke-miterlimit="10" stroke-dasharray="4 4"/>
<path d="M361.793 27.4992C362.591 27.2917 363.051 27.2009 363.051 27.2009" stroke="#263238" stroke-miterlimit="10"/>
<path d="M373.341 23.6214C371.687 18.4992 360.606 20.3406 362.766 27.0319C364.927 33.7232 374.995 28.7436 373.341 23.6214Z" fill="#263238"/>
<path d="M356.74 21.5531C356.824 19.3097 359.951 17.5785 364.375 18.376C368.8 19.1735 372.958 22.1496 372.958 22.1496C372.958 22.1496 368.586 24.8274 364.122 25.2942C359.659 25.761 356.668 23.8159 356.74 21.5531Z" fill="#EBEBEB"/>
<path d="M372.957 22.1498C370.66 22.1498 368.37 22.0914 366.08 22.0201C363.79 21.9488 361.493 21.8321 359.203 21.644C361.5 21.644 363.796 21.7089 366.086 21.7802C368.377 21.8515 370.673 21.9682 372.957 22.1498Z" fill="#263238"/>
<path d="M361.209 19.5625C362.515 20.1849 363.744 20.955 364.874 21.8578C364.223 21.547 363.59 21.1985 362.98 20.8139C362.366 20.4316 361.774 20.0137 361.209 19.5625Z" fill="#263238"/>
<path d="M367.197 21.9423C366.607 22.4081 365.992 22.841 365.354 23.239C364.727 23.6485 364.077 24.023 363.408 24.3607C363.997 23.8934 364.612 23.4604 365.25 23.064C365.878 22.6545 366.528 22.28 367.197 21.9423Z" fill="#263238"/>
<path d="M367.865 20.6713C368.19 20.8319 368.497 21.0275 368.78 21.2548C369.064 21.4866 369.319 21.7522 369.539 22.0458C369.213 21.8867 368.906 21.691 368.624 21.4623C368.34 21.2305 368.085 20.9649 367.865 20.6713Z" fill="#263238"/>
<path d="M360.956 34.897C362.338 36.6671 365.887 36.2456 369.007 33.0102C372.128 29.7748 373.762 24.9314 373.762 24.9314C373.762 24.9314 368.65 25.3204 364.751 27.5249C360.852 29.7294 359.568 33.1139 360.956 34.897Z" fill="#EBEBEB"/>
<path d="M373.763 24.9314C371.894 26.2282 370.078 27.6611 368.255 29.0616C366.432 30.4621 364.647 31.8885 362.902 33.3798C364.771 32.083 366.587 30.6501 368.404 29.2496C370.22 27.8491 372.011 26.4162 373.763 24.9314Z" fill="#263238"/>
<path d="M365.75 33.9117C366.097 33.2818 366.406 32.6323 366.678 31.9666C366.954 31.3011 367.188 30.619 367.378 29.9242C367.031 30.554 366.722 31.2035 366.451 31.8693C366.175 32.5349 365.941 33.217 365.75 33.9117Z" fill="#263238"/>
<path d="M369.208 28.4718C368.451 28.4296 367.693 28.4296 366.937 28.4718C366.181 28.5068 365.427 28.5869 364.68 28.7117C365.436 28.7538 366.194 28.7538 366.95 28.7117C367.707 28.6774 368.461 28.5973 369.208 28.4718Z" fill="#263238"/>
<path d="M370.492 29.1072C370.664 28.7884 370.799 28.4513 370.894 28.1022C370.99 27.7529 371.046 27.3941 371.063 27.0323C370.889 27.3498 370.754 27.6873 370.661 28.0373C370.562 28.3859 370.505 28.7451 370.492 29.1072Z" fill="#263238"/>
<path d="M373.34 23.6214C372.974 23.7403 372.58 23.7478 372.21 23.6431C371.839 23.5384 371.508 23.326 371.258 23.033C371.008 22.74 370.851 22.3795 370.806 21.9971C370.761 21.6147 370.831 21.2276 371.007 20.8849C371.182 20.5422 371.456 20.2593 371.792 20.072C372.129 19.8846 372.513 19.8013 372.897 19.8326C373.281 19.8639 373.647 20.0083 373.949 20.2476C374.25 20.487 374.474 20.8104 374.592 21.177C374.749 21.6671 374.706 22.1995 374.471 22.6577C374.237 23.1159 373.83 23.4624 373.34 23.6214Z" fill="#455A64"/>
<path d="M374.533 27.3174C374.167 27.4363 373.774 27.4439 373.403 27.3391C373.032 27.2344 372.701 27.0221 372.451 26.7291C372.201 26.4361 372.044 26.0755 371.999 25.6931C371.955 25.3107 372.025 24.9237 372.2 24.581C372.376 24.2383 372.649 23.9553 372.986 23.768C373.322 23.5807 373.707 23.4974 374.091 23.5286C374.474 23.5599 374.84 23.7044 375.142 23.9437C375.444 24.183 375.668 24.5064 375.785 24.873C375.943 25.3631 375.899 25.8956 375.665 26.3537C375.43 26.8119 375.023 27.1584 374.533 27.3174Z" fill="#455A64"/>
<path d="M161.841 25.6707C161.531 28.6496 160.399 31.4838 158.57 33.8567C156.742 36.2296 154.29 38.0476 151.487 39.1078C148.684 40.1679 145.642 40.4284 142.7 39.8601C139.758 39.2918 137.032 37.9171 134.826 35.8896L126.736 37.0762L130.785 30.0863C129.854 27.8103 129.455 25.3521 129.619 22.8988C129.782 20.4455 130.503 18.0618 131.727 15.929C132.951 13.7963 134.646 11.9707 136.682 10.5913C138.719 9.2118 141.043 8.3148 143.479 7.96851C145.914 7.62221 148.397 7.83577 150.737 8.59291C153.078 9.35005 155.214 10.6308 156.985 12.3378C158.756 14.0447 160.113 16.1329 160.955 18.4433C161.796 20.7537 162.099 23.2255 161.841 25.6707Z" fill="white"/>
<path d="M161.84 25.6706C161.536 28.6473 160.413 31.4818 158.596 33.8601C158.145 34.4532 157.655 35.0164 157.13 35.5459C156.593 36.0642 156.023 36.5471 155.424 36.9919C154.233 37.8921 152.923 38.6231 151.531 39.1641C150.134 39.7071 148.67 40.0561 147.178 40.2015C146.432 40.2663 145.682 40.2793 144.933 40.2404C144.182 40.2244 143.434 40.1464 142.695 40.007C139.714 39.4609 136.944 38.0958 134.696 36.0647L134.884 36.123L126.807 37.3615L126.217 37.4523L126.515 36.9335L130.538 29.9307V30.2095C129.594 27.9141 129.186 25.4339 129.346 22.9574C129.506 20.4809 130.228 18.0735 131.459 15.9181C132.689 13.7627 134.395 11.9161 136.447 10.5189C138.499 9.12161 140.843 8.21043 143.3 7.85464C145.757 7.49885 148.264 7.70782 150.628 8.46564C152.992 9.22346 155.152 10.5102 156.944 12.228C158.736 13.9457 160.113 16.0493 160.969 18.3787C161.825 20.7081 162.139 23.202 161.885 25.6706H161.84ZM161.84 25.6706C162.102 23.2355 161.801 20.7727 160.959 18.4725C160.118 16.1722 158.759 14.096 156.987 12.404C155.215 10.7121 153.078 9.44983 150.741 8.71457C148.403 7.97931 145.928 7.79077 143.506 8.16351C141.109 8.5233 138.825 9.42596 136.83 10.8025C134.852 12.1865 133.201 13.9856 131.991 16.0741C130.796 18.1676 130.093 20.5052 129.934 22.9101C129.776 25.3151 130.166 27.7246 131.076 29.9566L131.134 30.0993L131.057 30.229L127.008 37.2188L126.723 36.7909L134.793 35.6626H134.904L134.981 35.7404C137.144 37.761 139.826 39.1415 142.728 39.7282C143.451 39.8721 144.184 39.961 144.92 39.994C145.657 40.0459 146.396 40.0459 147.133 39.994C148.61 39.8806 150.064 39.562 151.453 39.0473C152.846 38.5404 154.158 37.8327 155.346 36.9465C155.942 36.5048 156.512 36.0285 157.052 35.52C157.579 34.9948 158.071 34.436 158.525 33.8471C160.365 31.4803 161.513 28.65 161.84 25.6706Z" fill="#263238"/>
<path d="M137.856 31.5193C137.844 31.3047 137.876 31.0897 137.95 30.8879C138.024 30.686 138.139 30.5015 138.287 30.3459C138.435 30.1902 138.614 30.0667 138.812 29.983C139.011 29.8994 139.224 29.8573 139.439 29.8594C139.655 29.8543 139.869 29.8943 140.068 29.9771C140.267 30.0598 140.447 30.1834 140.596 30.3398C140.744 30.4962 140.858 30.6819 140.93 30.8851C141.003 31.0883 141.032 31.3043 141.015 31.5193C141.031 31.7344 141.001 31.9504 140.928 32.1534C140.856 32.3565 140.742 32.5422 140.594 32.6989C140.445 32.8556 140.266 32.9798 140.067 33.0636C139.869 33.1474 139.655 33.189 139.439 33.1858C139.224 33.187 139.01 33.1441 138.812 33.0597C138.614 32.9753 138.435 32.8512 138.287 32.695C138.138 32.5389 138.024 32.354 137.95 32.1518C137.876 31.9496 137.844 31.7343 137.856 31.5193ZM138.505 27.6872L138.129 14.8228H140.723L140.347 27.6872H138.505Z" fill="#FB7571"/>
<path d="M144.018 31.5193C144.007 31.3049 144.039 31.0904 144.114 30.8889C144.188 30.6875 144.303 30.5034 144.451 30.3479C144.599 30.1925 144.778 30.069 144.976 29.9849C145.173 29.9009 145.386 29.8582 145.601 29.8594C145.817 29.8533 146.032 29.8927 146.232 29.9751C146.432 30.0574 146.613 30.1808 146.762 30.3373C146.911 30.4938 147.026 30.6799 147.099 30.8835C147.171 31.0872 147.2 31.3038 147.184 31.5193C147.199 31.735 147.169 31.9515 147.096 32.155C147.024 32.3585 146.909 32.5446 146.76 32.7013C146.611 32.8581 146.431 32.9822 146.232 33.0656C146.032 33.149 145.817 33.1899 145.601 33.1858C145.386 33.187 145.172 33.1441 144.974 33.0597C144.776 32.9753 144.597 32.8512 144.449 32.695C144.3 32.5389 144.186 32.354 144.112 32.1518C144.038 31.9496 144.006 31.7343 144.018 31.5193ZM144.667 27.6872L144.291 14.8228H146.885L146.509 27.6872H144.667Z" fill="#FB7571"/>
<path d="M150.188 31.5193C150.176 31.3049 150.209 31.0904 150.283 30.8889C150.358 30.6875 150.473 30.5034 150.621 30.3479C150.769 30.1925 150.948 30.069 151.145 29.9849C151.343 29.9009 151.556 29.8582 151.771 29.8594C151.987 29.8533 152.202 29.8927 152.402 29.9751C152.602 30.0574 152.782 30.1808 152.932 30.3373C153.081 30.4938 153.195 30.6799 153.268 30.8835C153.341 31.0872 153.37 31.3038 153.353 31.5193C153.353 31.939 153.187 32.3414 152.89 32.6381C152.593 32.9348 152.19 33.1015 151.771 33.1015C151.351 33.1015 150.948 32.9348 150.651 32.6381C150.355 32.3414 150.188 31.939 150.188 31.5193ZM150.836 27.6872L150.46 14.8228H153.055L152.685 27.6872H150.836Z" fill="#FB7571"/>
</g>
<defs>
<clipPath id="clip0_191_11286">
<rect width="397" height="260" fill="white" transform="translate(0.5)"/>
</clipPath>
</defs>
</svg>
