<svg width="24" height="24" viewBox="0 0 24 24" fill="none" xmlns="http://www.w3.org/2000/svg">
<path d="M12 8.19431C10 3.49988 3 3.99988 3 9.99991C3 15.9999 12 20.9999 12 20.9999C12 20.9999 21 15.9999 21 9.99991C21 3.99988 14 3.49988 12 8.19431Z" fill="#FF718F"/>
<path d="M12 8.19431L11.08 8.58626C11.2371 8.955 11.5992 9.19431 12 9.19431C12.4008 9.19431 12.7629 8.955 12.92 8.58626L12 8.19431ZM12 20.9999L11.5144 21.874C11.8164 22.0418 12.1836 22.0418 12.4856 21.874L12 20.9999ZM4 9.99991C4 8.69995 4.37574 7.78173 4.89025 7.1701C5.40763 6.55505 6.11636 6.18832 6.89263 6.07646C8.4546 5.85138 10.2619 6.66609 11.08 8.58626L12.92 7.80237C11.7381 5.0281 9.0454 3.74559 6.60737 4.09691C5.38364 4.27325 4.21737 4.86313 3.35975 5.88263C2.49926 6.90556 2 8.29985 2 9.99991H4ZM12.92 8.58626C13.7381 6.66609 15.5454 5.85138 17.1074 6.07646C17.8836 6.18832 18.5924 6.55505 19.1098 7.1701C19.6243 7.78173 20 8.69995 20 9.99991H22C22 8.29985 21.5007 6.90556 20.6402 5.88263C19.7826 4.86313 18.6164 4.27325 17.3926 4.09691C14.9546 3.74559 12.2619 5.0281 11.08 7.80237L12.92 8.58626ZM20 9.99991C20 12.5331 18.0616 15.0238 15.8356 17.0025C14.7547 17.9633 13.6691 18.7478 12.8516 19.2928C12.4438 19.5647 12.1051 19.7754 11.8702 19.917C11.7529 19.9878 11.6616 20.0413 11.6008 20.0764C11.5704 20.094 11.5476 20.1069 11.533 20.1152C11.5257 20.1193 11.5205 20.1223 11.5174 20.124C11.5158 20.1249 11.5148 20.1255 11.5142 20.1258C11.514 20.1259 11.5139 20.126 11.5139 20.126C11.5139 20.126 11.514 20.1259 11.514 20.1259C11.5142 20.1258 11.5144 20.1257 12 20.9999C12.4856 21.874 12.4859 21.8739 12.4862 21.8737C12.4863 21.8737 12.4866 21.8735 12.4869 21.8733C12.4875 21.873 12.4882 21.8726 12.489 21.8722C12.4907 21.8712 12.4929 21.87 12.4957 21.8684C12.5012 21.8653 12.5089 21.861 12.5186 21.8555C12.5381 21.8445 12.5658 21.8287 12.6013 21.8081C12.6724 21.7671 12.7745 21.7073 12.9032 21.6296C13.1606 21.4744 13.525 21.2476 13.9609 20.9569C14.8309 20.377 15.9953 19.5365 17.1644 18.4973C19.4384 16.476 22 13.4667 22 9.99991H20ZM12 20.9999C12.4856 20.1257 12.4858 20.1258 12.486 20.1259C12.486 20.1259 12.4861 20.126 12.4861 20.126C12.4861 20.126 12.486 20.1259 12.4858 20.1258C12.4852 20.1255 12.4842 20.1249 12.4826 20.124C12.4795 20.1223 12.4743 20.1193 12.467 20.1152C12.4524 20.1069 12.4296 20.094 12.3992 20.0764C12.3384 20.0413 12.2471 19.9878 12.1298 19.917C11.8949 19.7754 11.5562 19.5647 11.1484 19.2928C10.3309 18.7478 9.2453 17.9633 8.16436 17.0025C5.93835 15.0238 4 12.5331 4 9.99991H2C2 13.4667 4.56165 16.476 6.83564 18.4973C8.0047 19.5365 9.16911 20.377 10.0391 20.9569C10.475 21.2476 10.8395 21.4744 11.0968 21.6296C11.2255 21.7073 11.3276 21.7671 11.3987 21.8081C11.4342 21.8287 11.4619 21.8445 11.4814 21.8555C11.4911 21.861 11.4988 21.8653 11.5043 21.8684C11.5071 21.87 11.5093 21.8712 11.511 21.8722C11.5118 21.8726 11.5125 21.873 11.5131 21.8733C11.5134 21.8735 11.5137 21.8737 11.5138 21.8737C11.5141 21.8739 11.5144 21.874 12 20.9999Z" fill="#FF718F"/>
</svg>
