<svg width="24" height="24" viewBox="0 0 24 24" fill="none" xmlns="http://www.w3.org/2000/svg">
<g clip-path="url(#clip0_186_6691)">
<path d="M12 2.162C15.204 2.162 15.584 2.174 16.849 2.232C18.157 2.292 19.504 2.59 20.457 3.543C21.419 4.505 21.708 5.839 21.768 7.151C21.826 8.416 21.838 8.796 21.838 12C21.838 15.204 21.826 15.584 21.768 16.849C21.709 18.15 21.404 19.51 20.457 20.457C19.495 21.419 18.162 21.708 16.849 21.768C15.584 21.826 15.204 21.838 12 21.838C8.796 21.838 8.416 21.826 7.151 21.768C5.86 21.709 4.482 21.397 3.543 20.457C2.586 19.5 2.292 18.153 2.232 16.849C2.174 15.584 2.162 15.204 2.162 12C2.162 8.796 2.174 8.416 2.232 7.151C2.291 5.855 2.599 4.487 3.543 3.543C4.503 2.583 5.842 2.292 7.151 2.232C8.416 2.174 8.796 2.162 12 2.162ZM12 0C8.741 0 8.332 0.014 7.052 0.072C5.197 0.157 3.355 0.673 2.014 2.014C0.668 3.36 0.157 5.198 0.072 7.052C0.014 8.332 0 8.741 0 12C0 15.259 0.014 15.668 0.072 16.948C0.157 18.801 0.675 20.648 2.014 21.986C3.359 23.331 5.2 23.843 7.052 23.928C8.332 23.986 8.741 24 12 24C15.259 24 15.668 23.986 16.948 23.928C18.802 23.843 20.646 23.326 21.986 21.986C23.333 20.639 23.843 18.802 23.928 16.948C23.986 15.668 24 15.259 24 12C24 8.741 23.986 8.332 23.928 7.052C23.843 5.197 23.326 3.354 21.986 2.014C20.643 0.671 18.797 0.156 16.948 0.072C15.668 0.014 15.259 0 12 0Z" fill="black"/>
<path d="M11.9999 5.83801C8.59689 5.83801 5.83789 8.59701 5.83789 12C5.83789 15.403 8.59689 18.162 11.9999 18.162C15.4029 18.162 18.1619 15.403 18.1619 12C18.1619 8.59701 15.4029 5.83801 11.9999 5.83801ZM11.9999 16C9.79089 16 7.99989 14.209 7.99989 12C7.99989 9.79101 9.79089 8.00001 11.9999 8.00001C14.2089 8.00001 15.9999 9.79101 15.9999 12C15.9999 14.209 14.2089 16 11.9999 16Z" fill="black"/>
<path d="M18.4058 7.03405C19.2011 7.03405 19.8458 6.38934 19.8458 5.59405C19.8458 4.79876 19.2011 4.15405 18.4058 4.15405C17.6105 4.15405 16.9658 4.79876 16.9658 5.59405C16.9658 6.38934 17.6105 7.03405 18.4058 7.03405Z" fill="black"/>
</g>
<defs>
<clipPath id="clip0_186_6691">
<rect width="24" height="24" fill="white"/>
</clipPath>
</defs>
</svg>
