<svg width="32" height="32" viewBox="0 0 32 32" fill="none" xmlns="http://www.w3.org/2000/svg">
<path d="M7.16004 13.12C7.16004 13.12 5.10004 14.48 4.45004 15C4.29986 15.1037 4.16226 15.2245 4.04004 15.36C4.04004 15.36 4.04004 15.42 4.04004 15.27C4.18703 13.2268 4.82881 11.2499 5.91004 9.51001L7.16004 13.12Z" fill="white"/>
<path d="M14.9999 8.45001V11.55L11.8499 13.92L9.14992 12.77L7.41992 7.63001L7.51992 7.52001C7.73992 7.30001 7.96992 7.09001 8.19992 6.89001C8.42992 6.69001 8.60992 6.55001 8.82992 6.39001C8.88219 6.3412 8.93913 6.29766 8.99992 6.26001C9.24992 6.08001 9.51992 5.91001 9.78992 5.74001C10.0699 5.57001 10.3499 5.41001 10.6499 5.26001L14.9999 8.45001Z" fill="#F29A98"/>
<path d="M11.6803 27.19H11.6203C9.72719 26.4444 8.0548 25.2297 6.76025 23.66V23.61L10.5703 23.54L11.6803 27.19Z" fill="white"/>
<path d="M12.3999 19.7601L10.8199 21.5201L5.37986 21.5701C5.22986 21.2801 5.09986 20.9901 4.96986 20.7001C4.83986 20.4101 4.74986 20.1601 4.65986 19.8801C4.65573 19.8435 4.65573 19.8066 4.65986 19.7701C4.5614 19.4812 4.47795 19.1875 4.40986 18.8901C4.31495 18.5984 4.23814 18.3012 4.17986 18.0001C4.17986 17.8501 4.17986 17.7101 4.10986 17.5701L8.46986 14.5701L11.1699 15.7301L12.3999 19.7601Z" fill="#F29A98"/>
<path d="M18.8499 15.49L17.7499 19H14.2599L13.1499 15.44L15.9999 13.3L18.8499 15.49Z" fill="white"/>
<path d="M19.07 4.40004L16 6.70004L13 4.39004C13.9785 4.1285 14.9872 3.99737 16 4.00004C17.0126 4 18.021 4.13109 19 4.39004L19.07 4.40004Z" fill="white"/>
<path d="M24.69 7.73009L22.86 12.7301L20.16 14.0001L17 11.5501V8.45009L21.26 5.22009L21.38 5.28009C21.66 5.42009 21.94 5.57009 22.21 5.74009L22.82 6.14009L23.17 6.39009H23.22L23.76 6.82009C24.0084 7.02709 24.2454 7.24741 24.47 7.48009L24.69 7.73009Z" fill="#F29A98"/>
<path d="M19.6101 22.76L18.0901 27.76H17.9401L17.4401 27.83H17.0501H16.6201L16.0001 28H15.3801C14.8906 27.9769 14.403 27.9235 13.9201 27.84L12.3901 22.84L14.0001 21H18.0001L19.6101 22.76Z" fill="#F29A98"/>
<path d="M25.3398 23.53L25.2698 23.62C23.9606 25.214 22.2627 26.4435 20.3398 27.19L21.4898 23.53H25.3398Z" fill="white"/>
<path d="M27.8599 17.79C27.8648 17.8399 27.8648 17.8902 27.8599 17.94C27.8099 18.24 27.7499 18.55 27.6799 18.85C27.6799 18.85 27.6799 18.95 27.6799 19C27.6099 19.27 27.5299 19.54 27.4399 19.8C27.3499 20.06 27.2299 20.4 27.0999 20.7C26.9699 21 26.8299 21.3 26.6699 21.6L21.2499 21.52L19.6699 19.76L20.8999 15.85L23.5999 14.66L27.8599 17.79Z" fill="#F29A98"/>
<path d="M28.0001 15.32L24.8701 13.11L26.1301 9.54004C27.2418 11.2731 27.886 13.2643 28.0001 15.32Z" fill="white"/>
</svg>
