<svg width="200" height="56" viewBox="0 0 200 56" fill="none" xmlns="http://www.w3.org/2000/svg">
<path d="M9.83047 36.8335C9.74878 36.6374 10.2226 36.4577 10.582 35.7876C10.9415 35.1176 10.7454 34.8071 11.0068 34.039C11.3173 33.0912 11.9544 32.5028 12.1668 32.3067C12.8204 31.7184 12.9674 31.9962 14.2745 31.1464C14.4542 31.032 14.9607 30.6888 15.6959 30.2476C16.4311 29.8064 16.6108 29.741 16.7415 29.8064C17.15 30.0188 16.8396 31.3425 16.7415 31.7838C16.5128 32.7643 16.2677 33.8102 15.3691 34.8725C14.2418 36.1798 12.8694 36.5884 12.2485 36.7682C11.2192 37.046 9.96118 37.144 9.83047 36.8335Z" fill="#03B2AE"/>
<path d="M48.8951 35.7059C48.4377 35.9347 48.8951 37.618 49.0258 38.1082C49.0258 38.1082 49.565 40.102 51.4439 41.6055C51.6563 41.7852 51.8687 41.9323 52.0321 41.8506C52.3915 41.6709 52.1464 40.3308 51.9014 39.53C51.2315 37.3402 49.4506 35.4281 48.8951 35.7059Z" fill="#03B2AE"/>
<path d="M52.8816 45.1027C53.1921 44.6942 53.7802 44.0732 55.316 43.3868C56.7211 42.7658 57.8975 42.537 58.7471 42.3736C60.6259 42.014 60.9364 42.2755 61.5736 41.9813C61.6716 41.9323 62.031 41.7689 62.2598 41.916C62.4068 42.014 62.4395 42.2101 62.4395 42.2919C62.5048 42.8311 62.0474 43.3214 61.8186 43.5665C60.4789 44.9556 59.8254 45.6584 59.613 45.8054C57.9955 46.8513 56.476 46.9331 54.9239 47.0148C53.8456 47.0638 52.5876 47.1455 52.3098 46.5572C52.1137 46.1159 52.6039 45.4786 52.8816 45.1027Z" fill="#03B2AE"/>
<path d="M19.7805 5.96302C19.9928 5.58715 20.2543 5.3747 20.3196 5.30933C21.1202 4.60661 20.8098 4.67198 22.2802 3.28289C23.0318 2.58017 23.4075 2.22064 23.7343 1.99185C24.5512 1.41987 25.2537 1.17473 25.989 0.913257C27.8188 0.259566 29.2076 0.194196 29.5997 0.537384C29.6324 0.570069 29.7141 0.635438 29.7468 0.749834C29.8611 1.07668 29.5344 1.43621 29.371 1.665C28.9789 2.20429 29.0932 2.49846 28.8318 3.26654C28.456 4.34513 27.7698 5.11322 27.4267 5.45641C27.247 5.65252 26.3484 6.50232 24.927 6.94356C24.0937 7.18869 24.3225 6.92721 22.2965 7.23772C22.2965 7.23772 21.5123 7.35211 20.4176 7.28674C19.8948 7.25406 19.6334 7.18869 19.519 6.99258C19.3557 6.68208 19.6497 6.19181 19.7805 5.96302Z" fill="#03B2AE"/>
<path d="M12.4609 3.85479C12.2322 3.77308 12.0361 3.70771 11.8728 3.77308C11.5787 3.88747 11.6767 4.29603 11.3989 4.41043C11.2192 4.49214 11.1049 4.34506 10.5984 4.247C10.2226 4.18164 9.99386 4.13261 9.7978 4.247C9.52005 4.41043 9.35667 4.83533 9.47104 5.12949C9.61808 5.50536 10.1409 5.5217 10.1409 5.76683C10.1409 5.96294 9.83048 5.99563 9.55273 6.43687C9.43836 6.61663 9.34033 6.78005 9.38935 6.95982C9.48738 7.35203 10.2226 7.45009 10.2553 7.46643C10.582 7.51546 10.6474 7.40106 10.8434 7.49912C11.1539 7.6462 11.0558 7.97304 11.3663 8.21817C11.644 8.43062 12.0361 8.46331 12.3466 8.36525C12.6243 8.2672 13.0001 8.00572 13.0164 7.69522C13.0328 7.40106 12.7387 7.2213 12.8204 7.1069C12.8857 7.02519 13.0654 7.15593 13.3269 7.1069C13.7516 7.00885 13.9477 6.46955 13.964 6.40418C14.0131 6.2571 14.1274 5.89757 13.964 5.65244C13.7516 5.32559 13.2288 5.45633 13.1635 5.2112C13.1145 5.03143 13.3759 4.93338 13.3595 4.65556C13.3432 4.39408 13.0818 4.19798 12.9184 4.06724C12.8367 4.0509 12.6897 3.9365 12.4609 3.85479Z" fill="#F17CA9"/>
<path d="M12.4446 21.2103C12.6733 21.0959 12.5426 20.7527 12.804 20.4913C13.0328 20.2625 13.4249 20.2625 13.67 20.3278C14.0457 20.4259 14.3888 20.7527 14.4215 21.1123C14.4542 21.4718 14.1274 21.6516 14.2255 21.8313C14.3235 22.0111 14.6993 21.8313 15.0914 22.0601C15.3365 22.2072 15.5489 22.4687 15.5979 22.7792C15.6469 23.1224 15.5325 23.5636 15.2384 23.727C14.781 23.9722 14.0948 23.3839 13.964 23.5636C13.8824 23.678 14.1601 23.8905 14.1601 24.348C14.1601 24.4624 14.1601 24.7076 13.9967 24.871C13.7516 25.1325 13.2452 25.1488 13.0001 24.92C12.7223 24.6912 12.8531 24.2663 12.6407 24.201C12.4283 24.1193 12.2649 24.5115 11.8891 24.5278C11.546 24.5605 11.1212 24.2827 11.0558 23.9722C10.9578 23.5146 11.7094 23.1877 11.5787 22.7465C11.5133 22.5014 11.2682 22.5504 11.0722 22.1909C11.0232 22.0928 10.8271 21.6843 11.0232 21.3901C11.2192 21.0796 11.6767 21.0796 11.7747 21.0796C12.1342 21.0796 12.2485 21.3084 12.4446 21.2103Z" fill="#F17CA9"/>
<path d="M54.058 31.1138C53.7803 29.4795 54.107 28.3356 54.3521 27.7146C54.7442 26.7014 55.3977 25.9333 56.0676 25.1488C57.0969 23.9395 57.5217 23.8088 57.9302 22.9099C58.453 21.7496 58.2406 20.8018 58.4366 20.7855C58.698 20.7528 59.1392 22.4197 59.4006 23.9068C59.7927 26.1457 60.0051 27.4204 59.4169 28.9076C58.9104 30.2313 58.0445 31.0321 57.6851 31.3262C56.427 32.3885 55.0873 32.6499 54.5155 32.7317" fill="#03B2AE"/>
<path d="M1.87377 10.8493C2.15152 10.8983 1.85743 11.9769 2.42927 13.3496C2.96843 14.6243 3.60562 14.6243 4.30816 15.9154C4.63492 16.52 4.78197 17.3698 5.07606 19.0367C5.27211 20.148 5.74592 22.8935 5.32113 23.0243C5.23944 23.0406 5.20676 22.9752 4.94535 22.8118C4.47154 22.5176 4.1121 22.4523 3.78534 22.3542C3.78534 22.3542 2.96843 22.1091 2.00447 21.5371C0.566711 20.671 0.288962 18.4321 0.174594 17.5169C-0.0214643 15.9154 0.321637 14.706 0.697416 13.3496C0.975166 12.3527 1.53066 10.8002 1.87377 10.8493Z" fill="#03B2AE"/>
<path d="M47.7514 23.5309C47.7514 22.2889 47.3757 21.5535 47.4737 21.5045C47.6044 21.4391 48.503 22.485 48.8134 23.9231C49.2055 25.7371 48.4703 27.1752 48.2579 27.5675C48.1599 27.7636 47.6698 28.6624 47.441 28.597C47.0979 28.4826 47.441 26.1293 47.6534 24.6749C47.7024 24.3317 47.7514 24.0048 47.7514 23.5309Z" fill="#03B2AE"/>
<path d="M41.1672 49.6132C40.6117 49.1392 39.9091 48.8124 39.9091 48.8124C39.5824 48.6653 39.2883 48.4529 38.9778 48.2894C38.0139 47.7665 36.7395 47.0801 35.7429 46.0996C34.6155 44.9883 34.0927 43.7463 33.8313 43.0599C33.2921 41.7198 33.6026 41.6545 33.0471 40.2C32.6713 39.2031 32.1158 37.7814 30.7924 36.7518C30.3349 36.3923 29.8775 36.1962 28.9625 35.8039C28.9625 35.8039 24.9597 34.1207 21.8391 34.611C21.643 34.6436 20.8751 34.758 20.8751 34.9705C20.8751 35.0849 21.1038 35.1993 21.3653 35.3137C21.8064 35.5098 21.9698 35.4771 22.3455 35.6405C22.6886 35.7876 22.9664 35.902 23.0644 36.1471C23.0971 36.2452 23.1461 36.4249 22.7867 37.1604C22.4599 37.814 22.2312 38.2553 21.79 38.7782C21.5613 39.0397 21.4633 39.1214 21.4796 39.2195C21.545 39.4646 22.2312 39.3666 23.2278 39.6934C23.767 39.8732 24.2571 40.0202 24.3715 40.4125C24.4695 40.723 24.3061 41.0335 24.1754 41.2786C24.1101 41.4093 23.9467 41.6708 23.3422 42.1774C22.6723 42.7331 22.4272 42.7658 22.4272 42.9782C22.4272 43.1906 22.6887 43.305 23.6853 43.8607C24.2081 44.1548 24.7146 44.449 25.2374 44.7432C25.9073 45.119 26.2994 45.3642 26.5281 45.4949C27.7372 46.214 30.4166 47.456 34.6482 49.2536C34.8116 49.319 34.6809 49.27 39.0922 50.463C39.0922 50.463 40.3176 50.7898 40.9711 50.3486C41.0528 50.2832 41.3469 50.0871 41.3305 49.8746C41.2979 49.7276 41.2162 49.6458 41.1672 49.6132Z" fill="#F1847C"/>
<path d="M26.3484 13.1862C24.6819 15.2617 24.4042 17.5986 24.2244 19.0204C23.5056 24.7892 26.6262 29.1526 27.3124 30.1168C29.3056 32.9113 31.593 34.2514 34.7789 36.1308C36.6742 37.242 37.099 37.2257 37.1643 37.1276C37.393 36.8008 34.6972 35.1993 33.0961 31.8818C32.6713 30.983 31.8707 29.267 32.0504 26.9954C32.2138 24.9853 33.0471 23.5309 33.4229 22.9426C34.5502 21.1939 36.0206 20.3605 36.6742 19.9846C38.0302 19.2165 39.5497 18.7753 40.3012 18.5628C41.1998 18.3013 42.2291 18.0726 43.3075 17.3535C43.6179 17.141 44.2551 16.7488 44.4675 16.0134C44.5328 15.7846 44.5982 15.5722 44.5002 15.3924C44.2388 14.8858 43.1768 15.1963 41.8861 15.0166C40.8894 14.8858 40.2359 14.5263 39.1739 13.938C38.2263 13.415 37.1806 12.843 36.2494 11.6827C35.9226 11.2742 34.6809 9.68897 34.5829 7.51545C34.5339 6.32247 34.8116 4.99874 34.5339 4.93337C34.4358 4.90069 34.2888 5.03143 34.0927 5.21119C33.8967 5.37461 33.7823 5.53804 33.7006 5.63609C33.4392 6.01196 33.3085 6.19173 33.1614 6.48589C32.5896 7.6135 30.3186 9.54189 30.3186 9.54189C28.1456 11.4049 27.0346 12.3364 26.3484 13.1862Z" fill="#F1847C"/>
<path d="M35.3508 23.3511C34.1091 24.6912 34.2398 27.3223 34.2398 27.3223C34.3541 29.7246 35.5795 34.2187 39.1412 36.1634C42.3435 37.9121 44.5655 38.1735 44.5655 38.1735C44.974 38.2226 45.6929 38.2716 46.3791 38.7619C47.5881 39.6117 47.8332 41.1969 47.8822 41.491C48.2579 43.8933 46.5588 46.6552 45.023 47.9462C44.0754 48.7306 43.7976 48.9921 43.2421 49.5314C43.1278 49.6295 43.0624 49.8419 43.1278 49.9563C43.2748 50.2015 44.1407 49.94 44.4675 49.8419C46.9509 49.0902 48.6337 47.3416 48.6337 47.3416C49.3199 46.6225 52.1791 43.6809 51.3295 41.6708C50.9864 40.8864 50.3983 41.0007 49.6304 39.6443C49.0422 38.6148 48.9278 37.7486 48.8461 37.144C48.7971 36.7354 48.6501 35.6568 48.9932 35.5261C49.1892 35.4607 49.4506 35.7222 49.8264 36.1144C50.578 36.8825 50.9047 37.5198 50.9374 37.5035C51.0028 37.4708 50.2349 34.8397 48.2416 32.1596C47.8985 31.702 46.5751 29.9697 44.3204 28.2865C41.3959 26.1129 39.1576 25.7207 38.1446 24.3153C38.1446 24.3153 37.5728 23.5145 36.6088 23.1223C36.4291 23.0406 36.1677 22.9752 35.8899 23.0406C35.8736 23.0243 35.5958 23.0896 35.3508 23.3511Z" fill="#F1847C"/>
<path d="M44.974 39.7098C45.7092 40.9191 44.5655 41.6709 41.9024 41.867C43.7813 45.0374 43.7486 48.1914 41.6736 51.4272C42.4579 51.2965 43.1114 51.1984 43.7486 51.0513C48.1436 50.0708 50.8557 47.358 52.0157 43.0436C52.1464 42.5534 52.0647 42.2755 51.6073 42.0304C49.3036 40.772 48.5684 38.6475 48.4867 36.1962C48.4867 35.9838 48.5357 35.7386 48.6337 35.5425C48.8134 35.1503 49.2056 35.0849 49.516 35.4771C50.4963 36.7682 51.689 37.9285 52.1791 39.5464C52.1955 39.6117 52.2445 39.6771 52.3098 39.7261C52.2608 37.3238 51.5909 35.1176 50.2675 33.1075C48.7644 30.8523 46.7548 29.1363 44.5328 27.6655C43.4545 26.9628 42.3435 26.3255 41.2162 25.7045C39.4516 24.7403 37.9322 23.4983 36.6415 21.9621C36.5271 21.815 36.5108 21.5862 36.4618 21.4065C36.6415 21.5045 36.8702 21.5535 36.9846 21.6843C38.3407 23.2695 39.9745 24.4951 41.8044 25.5084C43.4055 26.3908 44.9413 27.4041 46.4934 28.3356C46.4934 28.3029 46.4771 28.1885 46.4281 28.1068C45.9869 27.1426 45.9216 26.1294 46.232 25.1161C46.6078 23.9232 46.7548 22.7302 46.4281 21.5045C46.3627 21.2757 46.5261 20.9816 46.5751 20.7201C46.8365 20.8018 47.1469 20.8181 47.343 20.9816C48.8951 22.2562 49.4343 23.9395 49.0422 25.8515C48.8134 26.9792 48.3233 28.0578 47.9802 29.1527C47.9148 29.3325 47.9312 29.643 48.0455 29.7573C49.516 31.1628 50.774 32.7316 51.6563 34.5947C52.1791 34.3986 52.3098 34.1207 52.2281 33.5651C52.0974 32.6663 52.0484 31.7348 52.0647 30.8196C52.0974 28.8585 52.8 27.1589 54.2704 25.8025C54.7279 25.3776 55.169 24.92 55.6428 24.4788C56.5904 23.5963 57.2603 22.5341 57.5544 21.2594C57.5871 21.145 57.6034 21.0142 57.6688 20.9162C57.8158 20.6874 57.9955 20.4913 58.1589 20.2788C58.355 20.4586 58.649 20.6057 58.7471 20.8345C59.8091 23.2368 60.2829 25.7372 59.8417 28.3519C59.5803 29.9371 58.7144 31.1301 57.2603 31.8655C56.6231 32.1924 55.9532 32.4538 55.3487 32.8297C54.2867 33.467 53.2411 34.1534 52.2118 34.8398C52.0811 34.9379 51.9831 35.2647 52.0321 35.4281C53.2574 39.0398 53.1267 42.5697 51.3459 45.9852C51.3295 46.0342 51.3295 46.0996 51.4276 46.263C51.8197 45.9035 52.2445 45.5767 52.5712 45.1518C52.996 44.6125 53.3718 44.0242 53.7476 43.4358C54.4501 42.3409 55.4468 41.8179 56.7375 41.8343C57.391 41.8343 58.0445 41.9323 58.6981 41.8997C59.7274 41.8506 60.7567 41.7035 61.786 41.6218C62.1127 41.6055 62.4395 41.6709 62.7663 41.7036C62.7336 42.0304 62.7663 42.3899 62.6356 42.6841C61.1815 45.8055 57.7668 47.6358 54.0743 47.2599C53.2901 47.1782 52.5059 47.0311 51.7216 46.8677C51.2478 46.7697 50.8721 46.8514 50.578 47.2436C48.552 50.0708 45.6275 51.2638 42.3272 51.705C41.6736 51.7867 41.1835 51.9992 40.7097 52.4895C38.8635 54.4015 36.4944 55.333 33.9293 55.7416C28.2927 56.6404 23.2115 55.1369 18.5061 52.1299C17.4931 51.4762 16.5618 50.7245 15.4835 49.9237C15.4835 50.7408 15.4835 51.5089 15.4835 52.2607C15.4835 52.3587 15.5652 52.4731 15.5489 52.5548C15.5162 52.7182 15.4345 52.849 15.3691 52.9961C15.2711 52.8817 15.1077 52.8 15.075 52.6692C14.8953 51.9502 14.6829 51.2474 14.6176 50.512C14.4869 49.27 13.9477 48.3058 13.1635 47.3253C8.40906 41.3604 6.36678 34.5456 6.9713 26.9301C7.00397 26.4562 6.88961 25.9169 6.69355 25.4757C6.17073 24.299 5.28846 23.4329 4.14479 22.8609C3.58929 22.5831 3.06647 22.2889 2.51097 22.0111C1.00785 21.2267 0.22362 19.952 0.0602377 18.3014C-0.217512 15.5069 0.485031 12.9248 1.75941 10.4571C1.80843 10.3754 1.85744 10.261 1.92279 10.212C2.08618 10.0976 2.28223 9.91783 2.46195 9.91783C2.55998 9.91783 2.70703 10.1957 2.75604 10.3754C2.8214 10.6532 2.83773 10.9474 2.85407 11.2252C2.93576 12.3365 3.2952 13.3334 4.0631 14.1668C4.14479 14.2485 4.21014 14.3629 4.29183 14.4446C6.49749 16.5201 6.84059 19.1185 6.21974 21.8967C5.99101 22.9426 5.8603 23.8414 6.74256 24.6259C6.88961 24.7566 6.9713 24.9691 7.06933 25.1325C7.08567 25.1488 7.10201 25.1488 7.16736 25.1815C7.20003 25.0344 7.24905 24.8874 7.28172 24.7403C7.73919 22.4197 8.57244 20.2298 9.68344 18.1543C9.79781 17.9419 9.89584 17.6314 9.81415 17.4353C8.49075 14.1178 8.63779 10.8984 10.4023 7.8587C9.97753 7.61357 9.50372 7.46649 9.24231 7.15599C8.89921 6.71475 9.24231 6.2735 9.56907 5.93032C9.07893 5.26028 9.04625 4.70465 9.43837 4.21438C9.83048 3.74045 10.386 3.65874 11.1702 4.00193C11.5297 3.51166 12.0198 3.3319 12.608 3.528C13.2125 3.72411 13.5719 4.11632 13.5719 4.78636C13.5719 4.88441 13.6536 4.99881 13.7353 5.04784C14.6503 5.70153 14.5522 6.74743 13.5393 7.27039C13.4086 7.33575 13.2288 7.48283 13.2125 7.61357C13.1308 8.18555 12.804 8.49605 12.2812 8.62679C11.7584 8.75753 11.3173 8.59411 10.9905 8.13652C10.9578 8.0875 10.9088 8.05482 10.8271 8.00579C9.14428 10.9474 8.89921 13.9544 10.2063 17.1575C10.3043 17.0267 10.3696 16.945 10.4187 16.8633C12.6407 13.3007 15.4181 10.212 18.5387 7.43381C18.8165 7.18867 19.0779 6.86183 19.2576 6.53498C19.7151 5.66884 20.1726 4.8027 20.5483 3.88753C21.3653 1.87743 22.8847 0.864213 24.976 0.619079C25.7602 0.521025 26.5608 0.471998 27.345 0.373945C28.0312 0.292233 28.7174 0.177836 29.3873 0.030756C29.8284 -0.0672977 30.0245 0.063442 29.9918 0.504683C29.9755 0.700791 29.9592 0.91324 29.8775 1.10935C29.4853 2.08988 29.1422 3.1031 28.6848 4.05096C27.5901 6.27351 25.7276 7.38478 23.2932 7.46649C22.1985 7.49917 21.1038 7.33575 20.0092 7.30307C19.7641 7.28673 19.4537 7.30307 19.2903 7.45015C15.1731 11.0291 11.595 15.0493 9.27499 20.05C7.93525 22.9263 7.34708 25.9659 7.28172 29.1363C7.28172 29.2344 7.29806 29.3325 7.3144 29.5122C9.5364 28.5644 11.1049 27.0609 11.9708 24.822C10.7291 24.3807 10.484 23.7107 11.1375 22.6811C10.6474 22.3543 10.435 21.8804 10.7291 21.3247C11.0395 20.7364 11.546 20.573 12.1668 20.7854C12.7387 20.0827 13.3269 19.8703 13.9967 20.1154C14.5849 20.3279 14.7646 20.6384 14.7483 21.4718C15.7449 21.9294 16.039 22.338 15.8756 23.008C15.7122 23.678 15.2711 24.0049 14.4215 24.0212C14.5359 24.5442 14.5359 25.0508 13.9314 25.2796C13.3269 25.5084 12.9021 25.2796 12.5753 24.7239C12.4936 24.8874 12.4283 24.9854 12.3792 25.0998C11.4806 27.2897 9.92851 28.8422 7.80455 29.8064C7.39609 29.9861 7.29806 30.2149 7.3144 30.6398C7.41243 32.8297 7.77187 34.9869 8.36005 37.095C8.4254 37.3238 8.50709 37.5526 8.58878 37.7814C9.42203 37.4219 9.65076 37.1114 9.60175 36.2616C9.55273 35.183 9.63443 34.1371 10.0592 33.1402C10.5657 31.9472 11.4316 31.1301 12.6897 30.7706C13.1635 30.6398 13.6536 30.5745 14.1111 30.3947C14.8627 30.1005 15.5652 29.7083 16.3004 29.3815C16.5128 29.2834 16.7906 29.12 16.9376 29.2017C17.0846 29.2834 17.199 29.6103 17.199 29.8227C17.1337 31.7348 16.6925 33.5488 15.5489 35.1176C14.4869 36.5884 12.8857 37.1441 11.1866 37.2911C10.2389 37.3728 9.47104 37.6507 8.7685 38.3697C9.89584 41.7689 11.595 44.8903 14.1111 47.6031C14.0948 47.3907 14.0784 47.1619 14.0621 46.9494C13.8497 44.874 13.7353 42.7985 14.0784 40.723C14.781 36.5394 17.1827 34.2678 21.3979 33.6958C24.9106 33.2056 28.0803 34.1534 31.0538 35.8857C32.2302 36.5721 33.3575 37.3565 34.4848 38.1409C36.233 39.3339 38.1119 40.2654 40.1379 40.8538C40.3339 40.9191 40.5463 40.9518 40.9221 41.0499C39.8928 39.6117 38.7818 38.4678 37.6054 37.4219C35.8736 35.8694 34.1254 34.3168 33.0307 32.2087C30.3676 27.1262 32.2955 21.5372 37.5401 19.2329C38.6838 18.7263 39.9255 18.4158 41.1181 18.0073C42.1148 17.6804 43.1114 17.3699 43.8466 16.5855C44.01 16.4057 44.1734 16.2096 44.2878 15.9972C44.7126 15.1964 44.5982 15.082 43.7159 14.9186C40.5463 14.3629 37.9976 12.8104 36.2167 10.0976C35.5632 9.10072 35.3671 7.94042 35.3181 6.76377C35.3017 6.11008 35.3181 5.45639 35.2854 4.8027C35.2527 4.08364 35.024 3.9529 34.4195 4.36146C33.9783 4.67196 33.5209 5.03149 33.2105 5.47274C32.0014 7.27039 30.3676 8.57776 28.7011 9.91783C24.9106 12.9902 22.8847 16.9287 23.4239 21.9131C23.7506 24.9691 24.9106 27.7472 26.3974 30.411C26.5281 30.6398 26.5445 30.9503 26.6262 31.2118C26.4301 31.032 26.1523 30.8686 26.0216 30.6398C24.4532 27.9107 23.2768 25.0181 22.9501 21.864C22.4599 17.1575 24.2898 13.3334 27.6555 10.1793C28.0803 9.77075 28.5541 9.41122 29.0279 9.06804C30.4003 8.0875 31.5766 6.9272 32.5733 5.55445C32.9981 4.94978 33.5699 4.41049 34.1744 3.98559C35.0893 3.3319 35.6775 3.65874 35.7265 4.78636C35.7592 5.45639 35.7429 6.12642 35.7592 6.8128C35.7756 8.57776 36.4291 10.0813 37.6871 11.3069C39.5333 13.0719 41.6246 14.3466 44.2551 14.4937C44.8106 14.5264 45.0557 14.8859 44.9249 15.4905C44.7289 16.4221 44.2061 17.1575 43.3892 17.5987C42.703 17.9746 41.9514 18.2524 41.1998 18.5302C40.1869 18.8897 39.1249 19.1349 38.1119 19.5434C35.1384 20.7528 33.0634 22.7792 32.5079 26.0477C32.0504 28.7278 32.655 31.1955 34.3215 33.32C35.2691 34.513 36.4127 35.5425 37.4584 36.6701C38.7654 38.0919 40.0725 39.53 41.3632 40.9682C41.3959 41.0172 41.4286 41.0662 41.4776 41.1152C42.2455 41.8179 44.4185 41.2296 44.7289 40.2327C44.7779 40.0857 44.8759 39.9386 44.974 39.7098ZM20.3196 40.0203C20.7934 40.0203 21.0712 40.004 21.3489 40.0203C21.8717 40.053 22.4109 40.0366 22.9174 40.1674C23.2115 40.2327 23.5873 40.4942 23.6689 40.7557C23.7343 40.9682 23.4892 41.3931 23.2605 41.5565C22.7377 41.9323 22.1495 42.2265 21.5613 42.5207C21.1692 42.7168 21.0712 42.9946 21.4143 43.2561C22.1658 43.8444 22.9174 44.4327 23.7343 44.9066C24.7309 45.495 25.8256 45.9362 26.8222 46.5082C27.6228 46.9658 28.3417 47.5541 29.1096 48.0444C32.5733 50.2506 36.3147 51.5416 40.481 51.4762C40.9221 51.4762 41.1835 51.3128 41.4122 50.9533C43.2911 47.979 43.2421 44.9883 41.4286 42.0141C41.3142 41.8343 41.0855 41.6709 40.8731 41.6218C38.4877 41.0335 36.2984 40.0366 34.2724 38.6639C33.1778 37.9285 32.0995 37.1441 30.9558 36.474C27.9496 34.6927 24.7473 33.6958 21.2019 34.3005C20.8914 34.3495 20.532 34.4476 20.3359 34.66C19.8131 35.2157 19.3393 35.8367 18.8818 36.4577C18.7348 36.6538 18.6858 36.9153 18.5224 37.3075C19.3557 37.1931 20.0092 37.0787 20.6627 37.0297C21.1202 36.997 21.7737 36.7028 21.9861 37.2421C22.1005 37.5363 21.7574 38.0756 21.5286 38.4514C21.2019 38.9417 20.8098 39.3993 20.3196 40.0203ZM40.579 52.1299C40.5463 52.0646 40.5136 51.9992 40.4646 51.9338C40.3339 51.9338 40.1869 51.9338 40.0562 51.9338C37.9159 51.9502 35.8409 51.5416 33.815 50.8552C31.3479 50.0218 29.1586 48.698 27.0509 47.2109C25.6295 46.1977 24.0774 45.4132 22.3782 45.0047C19.2413 44.2366 16.5128 45.8545 15.7122 48.9759C15.6632 49.172 15.7449 49.5152 15.9083 49.6459C20.6137 53.6824 25.9726 55.9377 32.2792 55.5455C34.5502 55.3984 36.7068 54.8264 38.6511 53.6007C39.3373 53.1758 39.9418 52.6202 40.579 52.1299ZM21.6103 37.5363C21.5777 37.4872 21.545 37.4382 21.5123 37.3892C20.7607 37.4872 19.9928 37.6343 19.2413 37.6834C18.8982 37.6997 18.408 37.5853 18.2283 37.3565C18.0813 37.1604 18.2447 36.6538 18.408 36.3596C18.7185 35.8203 19.1106 35.3301 19.4864 34.8071C19.421 34.7908 19.372 34.7581 19.3393 34.7744C19.2413 34.7908 19.1433 34.8235 19.0452 34.8725C16.6925 35.755 15.2711 37.4382 14.6993 39.8569C14.0457 42.6514 14.2581 45.4459 14.6503 48.2568C14.6829 48.5183 14.928 48.7471 15.1241 49.0739C16.3331 45.8872 18.2447 43.9588 21.8554 44.3347C21.7901 44.2203 21.6593 44.1876 21.5777 44.1222C20.336 42.9783 20.4013 42.6024 21.8881 41.8997C22.3782 41.6545 22.8194 41.3113 23.2932 41.0172C23.2768 40.9355 23.2605 40.8538 23.2278 40.772C22.8684 40.6903 22.5089 40.5923 22.1332 40.5596C21.6103 40.5106 21.0712 40.5596 20.5483 40.5106C19.9765 40.4452 19.8131 40.102 20.0909 39.6117C20.2869 39.2849 20.532 38.9744 20.7607 38.6639C21.0712 38.2553 21.3326 37.8958 21.6103 37.5363ZM54.9239 32.2741C54.9566 32.3231 54.9893 32.3721 55.022 32.4211C55.7245 32.0616 56.427 31.7184 57.1296 31.3589C58.3386 30.7215 59.0085 29.7083 59.2699 28.3846C59.5476 26.9628 59.4823 25.541 59.1882 24.1356C58.9595 23.057 58.6164 22.0111 58.3223 20.9489C58.1262 21.0633 58.0772 21.145 58.0445 21.243C57.7014 22.9426 56.7048 24.2337 55.4468 25.3613C55.0056 25.7535 54.5972 26.1784 54.1887 26.6033C53.3064 27.5185 52.7509 28.6134 52.6529 29.8554C52.5712 30.983 52.6366 32.127 52.6529 33.2709C52.6529 33.4017 52.7183 33.5161 52.8 33.7775C53.3391 33.1402 53.7966 32.6009 54.2704 32.078C55.8552 30.3293 56.8028 28.2375 57.4073 25.9986C57.5544 25.492 57.6361 24.9527 57.7831 24.4625C57.8321 24.299 58.0445 24.1846 58.1916 24.0539C58.2569 24.2173 58.3713 24.3971 58.3876 24.5605C58.404 24.7566 58.3223 24.9527 58.2733 25.1652C57.6687 27.7636 56.7048 30.2149 54.9239 32.2741ZM29.5834 0.684447C28.6521 0.782501 27.8679 0.847871 27.0836 0.945924C26.1197 1.06032 25.1394 1.14203 24.1754 1.33814C23.2115 1.53425 22.2965 1.92646 21.7737 2.7926C21.1529 3.82216 20.63 4.9171 20.0745 5.99569C20.3359 5.99569 20.4667 5.91397 20.581 5.81592C22.2312 4.72099 23.865 3.62606 25.5152 2.54747C25.6132 2.4821 25.7276 2.38404 25.8419 2.3677C26.0053 2.35136 26.1687 2.38404 26.3321 2.40039C26.2667 2.56381 26.234 2.75992 26.136 2.907C26.0543 3.00505 25.8909 3.05408 25.7766 3.13579C24.0937 4.21438 22.4272 5.30931 20.7444 6.3879C20.5974 6.48595 20.4503 6.61669 20.3196 6.74743C20.336 6.8128 20.3523 6.87817 20.3686 6.9272C21.2836 6.95988 22.1822 7.05794 23.0971 7.02525C25.4498 6.94354 27.2633 5.963 28.2763 3.77314C28.7338 2.77626 29.1422 1.74669 29.5834 0.684447ZM2.28223 10.7349C1.43265 12.2711 0.86081 13.8727 0.632075 15.5723C0.452355 16.8143 0.387002 18.0399 0.762781 19.2656C1.17124 20.6547 2.85407 22.1092 4.22648 22.2236C4.09578 22.0275 3.96507 21.8314 3.83436 21.6516C2.44562 19.6578 1.69406 17.4516 1.79209 15.0003C1.80843 14.7225 1.97181 14.4446 2.06984 14.1668C2.16787 14.4446 2.36392 14.7061 2.36392 14.9839C2.34759 18.0073 3.54028 20.5403 5.48452 22.7792C5.97467 21.6189 6.10537 19.3473 5.81129 17.9582C5.54988 16.7162 4.81466 15.7847 3.98141 14.9022C2.93576 13.7909 2.38026 12.5163 2.33125 10.9964C2.33125 10.9311 2.29857 10.833 2.28223 10.7349ZM16.5782 30.1496C15.4181 30.4928 14.2581 30.885 13.0654 31.1955C11.693 31.555 10.7944 32.3885 10.3206 33.7285C9.96119 34.7744 9.99387 35.8367 10.0756 36.9153C13.9804 37.046 17.0193 33.7939 16.5782 30.1496ZM52.7673 45.7074C52.8 45.7728 52.849 45.8218 52.8817 45.8872C53.0777 45.8545 53.2738 45.8381 53.4535 45.7728C55.5611 45.021 57.6688 44.2529 59.76 43.4849C59.9234 43.4195 60.0868 43.3214 60.2665 43.2888C60.3646 43.2724 60.5443 43.3541 60.5606 43.4195C60.5933 43.5339 60.5606 43.7137 60.4789 43.779C60.3482 43.9098 60.1685 43.9751 60.0051 44.0568C58.7797 44.5634 57.5707 45.1027 56.329 45.5603C55.2344 45.9525 54.1234 46.2631 52.9797 46.6062C56.9335 47.407 60.4626 45.9525 62.3088 42.0958C62.1291 42.1121 61.982 42.1285 61.8187 42.1448C60.6423 42.2429 59.4823 42.3572 58.3059 42.4226C57.7178 42.4553 57.1296 42.3736 56.5251 42.3899C55.8389 42.4063 55.1363 42.5207 54.6952 43.0763C54.0253 43.9098 53.4208 44.8249 52.7673 45.7074ZM13.6046 20.5893C12.8857 20.6057 12.6407 20.9489 12.804 21.4882C12.8204 21.5535 12.8694 21.6026 12.8694 21.6516C12.8531 21.8477 12.8204 22.0438 12.7877 22.2562C12.608 22.1255 12.4283 22.0111 12.2812 21.864C12.1668 21.7333 12.1178 21.4391 12.0035 21.4228C11.7747 21.3901 11.4316 21.3901 11.2846 21.5372C11.0558 21.7496 11.0722 22.0438 11.4316 22.2236C12.0852 22.5668 12.1015 22.5831 11.5623 23.1387C11.2519 23.4656 11.2029 23.7761 11.546 24.0866C11.8891 24.3971 12.1015 24.2173 12.3302 23.8905C12.5753 23.5473 12.8204 23.6127 12.9674 24.0376C13.0328 24.25 13.0491 24.5115 13.1962 24.6586C13.3105 24.7893 13.5883 24.8383 13.768 24.8056C13.866 24.7893 13.9477 24.4788 13.9314 24.3154C13.915 24.1193 13.7353 23.9558 13.6863 23.7597C13.6373 23.5963 13.6536 23.4165 13.6373 23.2531C13.817 23.2531 14.0131 23.2531 14.1928 23.2858C14.2581 23.3022 14.3398 23.4002 14.4052 23.4002C14.6829 23.3839 15.075 23.4329 15.2058 23.2858C15.3528 23.0897 15.4182 22.6158 15.2874 22.436C15.1404 22.2399 14.7319 22.2399 14.4379 22.1909C14.3398 22.1745 14.2418 22.3543 14.1274 22.3706C13.9804 22.387 13.8333 22.3216 13.7026 22.2889C13.7353 22.1582 13.7353 22.0275 13.8007 21.9131C13.8333 21.8313 13.9804 21.7987 14.0131 21.717C14.1111 21.4718 14.2908 21.1613 14.2255 20.9652C14.0621 20.7691 13.719 20.671 13.6046 20.5893ZM11.4806 7.33575C11.4153 7.36844 11.3663 7.40112 11.3009 7.43381C11.4316 7.67894 11.5133 8.03847 11.7257 8.12018C11.9545 8.20189 12.2812 8.03847 12.559 7.9731C12.4936 7.71163 12.4446 7.43381 12.3792 7.17233C12.3139 6.94354 12.2322 6.71475 12.1668 6.48595C12.3956 6.55132 12.6733 6.55133 12.8204 6.69841C13.0981 6.97622 13.3759 6.95988 13.5393 6.69841C13.7026 6.45327 13.719 6.12642 13.7843 5.83226C13.5229 5.76689 13.2778 5.68518 13.0164 5.63616C12.755 5.60347 12.4936 5.60347 12.2322 5.58713C12.4119 5.40736 12.5753 5.2276 12.7387 5.04784C12.8367 4.93344 13.0164 4.70465 13.0164 4.70465C12.7714 4.47585 12.5263 4.18169 12.2159 4.0673C11.9054 3.9529 11.644 4.16535 11.595 4.55757C11.5623 4.83539 11.4643 5.1132 11.399 5.37468C11.2192 5.14589 11.0395 4.90075 10.8761 4.67196C10.8598 4.63928 10.8435 4.57391 10.8108 4.57391C10.5494 4.52488 10.2389 4.36146 10.0429 4.45951C9.84682 4.55757 9.69978 4.90076 9.68344 5.14589C9.6671 5.27663 9.99387 5.42371 10.1736 5.55445C10.3533 5.66884 10.533 5.73421 10.7291 5.83226C10.5657 5.97934 10.386 6.11008 10.2226 6.27351C10.0265 6.48596 9.84682 6.73109 9.6671 6.95988C9.97753 7.02525 10.288 7.09062 10.582 7.1233C10.6637 7.1233 10.7454 7.00891 10.8435 6.97622C10.9905 6.9272 11.1866 6.82914 11.2682 6.89451C11.4153 6.97622 11.4316 7.17233 11.4806 7.33575ZM46.8692 21.3247C47.3757 22.8609 46.8855 24.3154 46.5588 25.7698C46.3627 26.6523 46.5588 27.4858 47.1306 28.3846C47.1143 28.0904 47.0653 27.9597 47.0979 27.829C47.2286 26.7667 47.3593 25.7045 47.5227 24.6422C47.5391 24.5115 47.7841 24.4134 47.9312 24.299C47.9639 24.4625 48.0619 24.6422 48.0292 24.7893C47.9475 25.2142 47.7841 25.6064 47.7351 26.0313C47.6534 26.7504 47.6534 27.4694 47.6208 28.1722C47.6861 28.1722 47.7351 28.1722 47.8005 28.1722C49.1075 25.3449 48.7808 22.5668 46.8692 21.3247ZM49.1892 36.0164C48.8788 38.1246 50.2349 40.8211 51.885 41.4421C52.0321 39.1215 50.5289 37.6343 49.1892 36.0164Z" fill="black"/>
<path d="M40.579 52.1299C39.9418 52.6202 39.3373 53.1595 38.6511 53.6007C36.7068 54.8264 34.5502 55.4147 32.2792 55.5455C25.989 55.9377 20.6137 53.6824 15.9083 49.6459C15.7613 49.5152 15.6632 49.172 15.7122 48.9759C16.5128 45.8545 19.2413 44.2366 22.3782 45.0047C24.0937 45.4296 25.6295 46.1977 27.0509 47.2109C29.1586 48.7144 31.3479 50.0218 33.815 50.8552C35.8409 51.5416 37.9159 51.9502 40.0562 51.9338C40.1869 51.9338 40.3339 51.9338 40.4646 51.9338C40.4973 51.9992 40.5463 52.0646 40.579 52.1299Z" fill="white"/>
<path d="M21.6103 37.5363C21.3326 37.8958 21.0712 38.2717 20.7934 38.6312C20.5647 38.9417 20.3033 39.2359 20.1236 39.5791C19.8295 40.0693 20.0092 40.4125 20.581 40.4779C21.1038 40.5269 21.643 40.4779 22.1658 40.5269C22.5253 40.5596 22.9011 40.674 23.2605 40.7394C23.2768 40.8211 23.2932 40.9028 23.3258 40.9845C22.852 41.2787 22.4109 41.6218 21.9208 41.867C20.434 42.586 20.3523 42.9619 21.6103 44.0895C21.692 44.1712 21.8391 44.1876 21.8881 44.302C18.2773 43.9261 16.3658 45.8708 15.1567 49.0412C14.9607 48.7144 14.7156 48.4856 14.6829 48.2241C14.2908 45.4296 14.0784 42.6187 14.7319 39.8242C15.3038 37.4055 16.7252 35.7223 19.0779 34.8398C19.1759 34.8071 19.274 34.7744 19.372 34.7417C19.4047 34.7417 19.4374 34.7581 19.519 34.7744C19.1433 35.2974 18.7511 35.7713 18.4407 36.3269C18.2773 36.6211 18.1303 37.1277 18.261 37.3238C18.4407 37.569 18.9309 37.667 19.274 37.6507C20.0419 37.618 20.7934 37.4709 21.545 37.3565C21.545 37.4219 21.5777 37.4709 21.6103 37.5363Z" fill="white"/>
<path d="M132.961 25.9333C131.67 26.2438 130.51 26.6523 129.301 26.7994C126.572 27.1426 123.828 27.355 121.083 27.6165C120.511 27.6655 119.939 27.7473 119.367 27.7636C118.844 27.7799 118.616 28.0087 118.387 28.4827C117.358 30.6235 116.263 32.748 115.168 34.8725C114.956 35.2647 114.711 35.9347 114.106 35.5915C113.453 35.2157 114.025 34.7417 114.237 34.3495C115.201 32.4865 116.165 30.6235 117.129 28.7441C117.227 28.548 117.276 28.3356 117.407 28.0087C116.557 28.1068 115.822 28.2048 115.07 28.2702C114.662 28.3029 114.106 28.4827 114.008 27.878C113.91 27.2243 114.515 27.257 114.94 27.1916C115.707 27.0772 116.475 26.9628 117.243 26.9138C117.701 26.8811 117.946 26.685 118.044 26.2438C118.436 24.5278 118.828 22.8282 119.237 21.1123C119.433 20.3115 119.612 19.5271 119.857 18.7427C120.478 16.7816 121.851 15.7357 123.893 15.6867C125.004 15.654 126.148 15.6867 127.259 15.8011C129.709 16.0298 132.144 16.1116 134.594 15.8011C134.774 15.7847 134.97 15.7684 135.134 15.8337C135.281 15.8991 135.46 16.0789 135.477 16.2096C135.493 16.373 135.379 16.6182 135.232 16.7162C135.068 16.8306 134.823 16.8633 134.594 16.896C131.817 17.2882 129.056 17.0594 126.295 16.8306C125.363 16.7489 124.416 16.7816 123.484 16.847C122.324 16.9287 121.491 17.5824 121.083 18.661C120.805 19.3964 120.576 20.1644 120.397 20.9489C119.972 22.7302 119.58 24.5278 119.171 26.3255C119.155 26.4235 119.155 26.5216 119.155 26.636C119.253 26.6523 119.335 26.685 119.416 26.685C122.782 26.3582 126.164 26.0803 129.53 25.6554C130.706 25.5084 131.833 25.0018 132.977 24.6422C133.549 24.4625 133.908 24.0702 134.186 23.5146C135.591 20.7201 137.013 17.9419 138.483 15.1801C138.924 14.3303 139.48 13.5458 140.002 12.7451C140.166 12.4999 140.362 12.3038 140.574 12.1077C141.407 11.3233 142.29 11.5521 142.649 12.6307C143.025 13.7256 142.878 14.8205 142.535 15.8828C141.653 18.5956 139.986 20.8018 137.878 22.6648C137.029 23.4166 136.049 24.0376 135.15 24.7239C134.905 24.92 134.594 25.1162 134.464 25.394C133.304 27.8943 132.176 30.411 131.065 32.9278C130.984 33.1239 130.951 33.3363 130.853 33.6468C131.082 33.5488 131.18 33.4997 131.294 33.4507C133.059 32.4865 134.823 31.506 136.62 30.5745C137.045 30.3457 137.339 30.1005 137.519 29.643C138.074 28.2702 138.859 27.0609 140.084 26.1947C140.64 25.8025 141.309 25.5574 141.947 25.3286C142.453 25.1488 142.845 25.6228 143.27 25.7372C143.695 25.8679 144.169 25.7535 144.577 26.1294C146.423 27.7636 146.783 27.7799 148.923 26.5216C149.446 26.2111 149.969 25.8679 150.524 25.6228C151.374 25.2469 151.978 25.7372 151.799 26.636C151.668 27.2733 151.439 27.8943 151.276 28.5153C150.949 29.7737 150.622 31.0484 150.312 32.3067C150.263 32.5355 150.263 32.7807 150.361 33.0748C150.524 32.9114 150.688 32.748 150.818 32.5682C151.88 31.1138 152.926 29.6593 153.988 28.2212C154.315 27.7799 154.641 27.3224 155.05 26.9628C155.295 26.7667 155.769 26.6033 156.014 26.7014C156.259 26.8157 156.455 27.257 156.504 27.5838C156.553 27.9924 156.471 28.4336 156.39 28.8585C156.194 29.9044 155.965 30.934 155.769 31.9799C155.703 32.3394 155.671 32.699 155.605 33.2383C155.932 33.0258 156.145 32.9278 156.324 32.7807C157.207 32.0453 158.089 31.3262 158.938 30.5581C159.118 30.3947 159.2 30.0188 159.151 29.7737C158.971 28.45 159.412 27.4041 160.442 26.587C161.046 26.0967 161.667 25.9823 162.075 26.2928C162.631 26.7014 162.631 27.3224 162.402 27.8453C162.075 28.5971 161.585 29.2834 161.16 29.9861C161.046 30.1659 160.866 30.313 160.703 30.5091C161.144 31.0647 161.732 31.2935 162.353 31.4079C163.529 31.6204 164.673 31.4243 165.784 31.0647C166.176 30.934 166.176 30.6725 166.176 30.3457C166.16 28.1885 167.009 26.5052 168.872 25.3776C169.329 25.0998 169.869 24.8874 170.408 24.8056C171.502 24.6259 172.156 25.3286 171.944 26.4072C171.846 26.9138 171.633 27.4204 171.388 27.878C170.604 29.3325 169.428 30.4437 167.99 31.2282C167.467 31.5223 167.467 31.8001 167.696 32.2414C168.235 33.2709 168.937 33.5978 169.95 33.0422C170.898 32.5192 171.829 31.8819 172.63 31.1301C174.231 29.643 175.718 28.0414 177.27 26.5052C177.678 26.0967 178.103 25.7208 178.561 25.394C179.149 24.9854 179.639 25.0508 180.031 25.6554C180.75 26.7504 181.747 26.9792 182.923 26.685C183.593 26.5216 184.23 26.2274 184.867 25.9659C185.227 25.8189 185.586 25.6554 185.847 26.0477C186.142 26.4889 185.798 26.7667 185.472 26.9955C184.344 27.7473 183.348 28.6624 182.612 29.8064C182.09 30.6235 181.796 31.506 182.024 32.4865C182.269 33.5488 182.825 33.7939 183.691 33.1729C184.524 32.5519 185.292 31.8492 186.06 31.1464C187.481 29.8391 188.837 28.4336 190.324 27.1916C191.304 26.3745 192.415 25.6718 193.559 25.1325C195.683 24.1193 197.774 24.6259 199.8 26.5706C199.98 26.734 200.062 27.208 199.947 27.4204C199.751 27.8126 199.375 27.6655 199.049 27.4858C198.15 27.0119 197.284 26.4562 196.32 26.1294C195.242 25.7535 194.262 26.2274 193.706 27.1916C193.281 27.927 193.363 28.4173 194.098 28.8422C194.719 29.1854 195.389 29.4305 196.042 29.7247C196.549 29.9535 197.072 30.1496 197.546 30.4274C198.542 31.0157 198.722 31.9309 198.019 32.8624C197.301 33.8429 196.288 34.3495 195.128 34.5293C193.216 34.8235 191.402 34.3822 189.622 33.6632C189.295 33.5324 189.033 33.3036 189.197 32.9114C189.36 32.5192 189.687 32.5682 190.03 32.6663C191.043 32.9441 192.056 33.2873 193.102 33.4507C193.788 33.5651 194.539 33.5324 195.226 33.369C195.83 33.2219 196.435 32.8624 196.908 32.4702C197.529 31.9636 197.431 31.5877 196.729 31.2282C196.369 31.0484 195.977 30.9013 195.601 30.7379C195.078 30.5091 194.539 30.3293 194.017 30.0679C192.53 29.3488 192.203 28.6951 192.481 26.9628C192.219 27.1263 192.007 27.2243 191.844 27.3714C190.455 28.5971 189.066 29.8391 187.71 31.0974C186.958 31.7838 186.24 32.5192 185.488 33.2056C185.096 33.5651 184.671 33.8919 184.23 34.1698C182.71 35.134 181.436 34.611 180.979 32.8624C180.652 31.6204 180.946 30.4764 181.599 29.4142C181.894 28.9402 182.237 28.5153 182.629 27.9597C181.175 28.0251 179.998 27.6329 179.165 26.3418C178.838 26.6196 178.544 26.8484 178.299 27.0936C176.763 28.6461 175.26 30.2313 173.675 31.7348C172.826 32.5355 171.878 33.2873 170.865 33.8756C168.954 35.0196 167.516 34.513 166.617 32.5029C166.438 32.1106 166.258 32.1106 165.915 32.225C164.673 32.6173 163.399 32.8297 162.124 32.5029C161.454 32.3231 160.817 31.9636 160.213 31.604C159.902 31.4079 159.755 31.3916 159.494 31.6204C158.677 32.3231 157.844 33.0258 157.01 33.7122C156.782 33.9083 156.52 34.0717 156.243 34.2188C155.311 34.7254 154.543 34.3332 154.609 33.2709C154.674 32.1597 154.936 31.0484 155.115 29.9535C155.197 29.4795 155.311 29.022 155.393 28.548C155.344 28.5317 155.295 28.5153 155.246 28.4827C155.115 28.6461 154.968 28.8095 154.837 28.9729C153.841 30.3457 152.861 31.7184 151.864 33.0912C151.57 33.4997 151.21 33.8756 150.851 34.2351C150.541 34.5456 150.116 34.8561 149.724 34.562C149.43 34.3332 149.25 33.892 149.168 33.4997C149.086 33.1402 149.152 32.7153 149.233 32.3558C149.609 30.7706 150.034 29.1854 150.443 27.6165C150.492 27.4041 150.557 27.208 150.655 26.8157C150.279 27.0445 150.05 27.1753 149.838 27.306C149.381 27.5675 148.907 27.829 148.449 28.0904C147.191 28.7768 145.999 28.7441 144.839 27.8453C144.757 27.7799 144.675 27.7473 144.479 27.6165C144.495 27.9924 144.512 28.2702 144.544 28.5644C144.806 31.5387 143.482 33.7449 140.803 34.8235C140.574 34.9215 140.346 34.9869 140.1 35.0523C138.058 35.5425 136.816 34.5293 136.865 32.4375C136.865 32.2414 136.865 32.0289 136.865 31.7675C136.686 31.8165 136.539 31.8492 136.408 31.9145C134.97 32.699 133.549 33.4671 132.111 34.2678C131.784 34.4476 131.507 34.7254 131.163 34.8235C130.788 34.9215 130.232 35.0359 129.987 34.8398C129.742 34.6437 129.709 34.0881 129.726 33.6958C129.758 33.2873 129.922 32.8624 130.085 32.4702C130.918 30.5418 131.768 28.6297 132.618 26.7014C132.732 26.4399 132.83 26.2111 132.961 25.9333ZM143.107 27.1099C143.058 27.1426 142.992 27.1589 142.96 27.208C142.012 28.6951 140.689 29.79 139.12 30.5091C138.091 30.983 137.911 31.7184 137.944 32.6499C137.976 33.7449 138.483 34.1534 139.561 34.0063C142.551 33.5651 144.446 29.8881 143.107 27.1099ZM135.787 22.8609C138.565 20.7528 140.819 18.2851 141.653 14.7878C141.767 14.2812 141.685 13.7419 141.669 13.219C141.669 13.0882 141.538 12.9575 141.407 12.6797C138.973 15.8664 137.552 19.4617 135.787 22.8609ZM167.287 30.4437C169.003 29.3978 170.293 28.1885 170.865 26.3745C171.012 25.9006 170.702 25.8516 170.342 25.9496C169.493 26.1784 168.807 26.685 168.251 27.355C167.549 28.2048 167.287 29.2017 167.287 30.4437ZM142.077 26.5216C140.999 26.5379 139.3 28.0904 138.973 29.3815C140.247 28.6297 141.326 27.7963 142.077 26.5216ZM160.327 29.1854C160.964 28.7605 161.405 27.9597 161.307 27.4041C160.572 27.8126 160.213 28.4827 160.327 29.1854Z" fill="black"/>
<path d="M72.5583 28.3847C72.836 28.3847 73.0321 28.4173 73.2281 28.3847C75.2377 28.0415 77.2473 27.6983 79.2569 27.3551C79.7471 27.2734 80.0575 26.9792 80.3516 26.5707C80.9071 25.8189 81.4953 25.0835 82.1978 24.4789C82.7206 24.0213 83.4068 23.6944 84.0604 23.482C86.021 22.8283 87.328 23.3676 88.3573 25.1325C88.7658 25.8516 89.1252 26.6197 89.5663 27.3224C90.3179 28.5154 90.71 28.5481 91.6576 27.5512C92.2458 26.9302 92.7686 26.2602 93.3568 25.6228C93.6672 25.2796 93.994 24.9364 94.3698 24.6423C95.4318 23.8088 96.3467 23.9886 96.9839 25.1816C97.2616 25.6718 97.425 26.2275 97.6374 26.7504C97.7191 26.9465 97.7845 27.159 97.8825 27.4531C98.1276 27.3061 98.3073 27.1917 98.487 27.0609C100.268 25.8516 102.163 24.9528 104.32 24.6586C104.745 24.5932 105.186 24.5769 105.594 24.6259C106.77 24.7567 107.244 25.4921 106.852 26.6033C106.64 27.1917 106.313 27.7473 106.068 28.3193C105.627 29.3652 105.137 30.4111 104.794 31.4897C104.614 32.0453 104.63 32.699 104.679 33.3037C104.728 33.9901 105.088 34.2352 105.741 34.0064C106.525 33.7286 107.261 33.32 107.996 32.9441C108.372 32.748 108.698 32.4539 109.058 32.2251C109.352 32.029 109.695 31.8165 109.973 32.1924C110.283 32.5846 109.989 32.8951 109.679 33.1076C109.041 33.5488 108.404 34.0064 107.734 34.3823C107.179 34.6928 106.591 34.9379 105.986 35.1013C104.679 35.4445 103.83 34.8562 103.601 33.5325C103.388 32.2905 103.65 31.0811 104.124 29.9372C104.581 28.8422 105.137 27.7963 105.643 26.7341C106.052 25.8516 105.937 25.6392 104.941 25.7045C102.98 25.8353 101.232 26.6197 99.598 27.6493C98.1602 28.5481 98.1439 28.5644 98.5197 30.1823C98.8138 31.457 99.2059 32.699 99.5 33.9574C99.549 34.1535 99.4346 34.5293 99.3203 34.5784C99.1242 34.6601 98.7484 34.5947 98.6341 34.4476C98.389 34.1371 98.2256 33.7449 98.1276 33.3527C97.8498 32.3068 97.6374 31.2446 97.3924 30.1823C97.3433 29.9699 97.278 29.7574 97.1963 29.4469C96.8205 29.7901 96.4937 30.0352 96.2323 30.3294C95.2357 31.4407 94.2717 32.5683 93.2915 33.6796C93.1607 33.8266 93.0464 34.0391 92.883 34.1208C92.7033 34.2025 92.4092 34.2352 92.2785 34.1371C92.1478 34.0391 92.0824 33.7449 92.1151 33.5652C92.1641 33.3364 92.3275 33.1239 92.4745 32.9441C93.7979 31.506 95.105 30.0516 96.4611 28.6461C96.7878 28.3029 96.9349 28.0415 96.7552 27.5839C96.5428 27.0609 96.3957 26.489 96.167 25.9823C95.7585 25.0835 95.4644 25.0181 94.7456 25.7209C94.2881 26.1621 93.896 26.6687 93.4712 27.1263C92.981 27.6656 92.5072 28.2539 91.9681 28.7278C90.8897 29.6757 89.9258 29.594 89.0435 28.4337C88.5861 27.8454 88.2429 27.159 87.8672 26.5053C87.7855 26.3746 87.7038 26.2275 87.5241 25.9497C87.4424 26.3092 87.3934 26.538 87.328 26.7504C86.9522 28.0251 86.6745 29.3325 86.1843 30.5418C85.5471 32.127 84.3871 33.2547 82.7533 33.843C80.5477 34.6601 78.9629 33.6142 78.9302 31.2772C78.9138 30.3784 79.1099 29.4632 79.2243 28.5154C79.1099 28.5317 78.9629 28.5317 78.8158 28.5644C76.7572 28.8749 74.6986 29.2018 72.64 29.4796C72.1988 29.545 71.9701 29.6757 71.774 30.0842C71.0061 31.6858 70.2056 33.271 69.405 34.8562C69.3233 35.0196 69.2253 35.183 69.1272 35.3301C68.9312 35.6243 68.6698 35.8531 68.3103 35.6406C67.9509 35.4282 68.0489 35.085 68.2123 34.7745C68.9148 33.4181 69.6174 32.0617 70.3199 30.6889C70.4833 30.3784 70.5977 30.0679 70.7937 29.643C70.5323 29.6267 70.3363 29.6103 70.1566 29.594C69.405 29.5776 68.6371 29.6267 67.8855 29.545C67.6405 29.5286 67.4281 29.2018 67.1993 29.022C67.4444 28.8422 67.6568 28.5481 67.9182 28.5317C68.8332 28.4664 69.7481 28.4827 70.663 28.5154C71.1205 28.5317 71.3492 28.352 71.5126 27.9271C72.7217 24.7894 73.6039 21.5699 73.9634 18.2198C74.0614 17.3046 74.1921 16.3894 74.4208 15.5069C74.9273 13.4642 76.0547 12.4509 78.1623 12.4836C80.0738 12.5 81.9854 12.7451 83.8807 13.0229C87.0176 13.4968 90.1545 13.791 93.3405 13.4968C93.7162 13.4642 94.141 13.4805 94.1901 13.9544C94.2391 14.4937 93.7816 14.5427 93.3895 14.5754C90.1382 14.8696 86.9032 14.5918 83.7009 14.0852C82.2141 13.84 80.711 13.6276 79.2079 13.5295C76.5448 13.3824 75.6952 14.0852 75.2867 16.6999C74.8783 19.4291 74.6005 22.1746 73.7346 24.8057C73.4242 25.7699 73.0811 26.7341 72.7543 27.7146C72.7053 27.9271 72.64 28.1068 72.5583 28.3847ZM86.3804 26.015C84.4852 26.7014 82.7533 27.3224 81.0215 27.9598C80.8908 28.0088 80.7274 28.1395 80.6784 28.2703C80.1882 29.4142 79.8614 30.5909 80.1065 31.8329C80.2862 32.7644 80.8417 33.1403 81.7894 32.9932C82.7697 32.8298 83.5866 32.3395 84.2401 31.6041C85.6288 30.0516 85.9719 28.0905 86.3804 26.015ZM81.8057 26.538C83.4395 25.9333 85.008 25.443 86.5274 24.6096C85.057 23.8905 82.6226 24.8874 81.8057 26.538Z" fill="black"/>
<path d="M107.685 23.0571C107.783 22.6485 107.865 22.24 107.996 21.8477C108.078 21.6189 108.241 21.4392 108.355 21.2267C108.519 21.4228 108.731 21.6026 108.813 21.8151C109.058 22.4361 108.976 23.0571 108.584 23.6127C108.159 24.2174 107.342 24.3971 106.819 24.0213C106.329 23.6781 106.117 22.5505 106.46 22.0765C106.558 21.9458 106.819 21.7987 106.95 21.8477C107.114 21.8968 107.293 22.1092 107.359 22.289C107.44 22.5014 107.391 22.7629 107.408 22.9917C107.506 23.0244 107.604 23.0407 107.685 23.0571Z" fill="black"/>
<path d="M143.107 27.1099C144.446 29.8881 142.551 33.5651 139.545 34.0064C138.467 34.1698 137.96 33.7449 137.927 32.65C137.895 31.7021 138.091 30.9667 139.104 30.5091C140.672 29.7901 141.996 28.6951 142.943 27.208C142.992 27.159 143.058 27.1426 143.107 27.1099Z" fill="white"/>
<path d="M135.787 22.8609C137.552 19.4454 138.973 15.8501 141.407 12.6634C141.555 12.9412 141.669 13.072 141.669 13.2027C141.685 13.7257 141.767 14.2813 141.653 14.7716C140.836 18.2851 138.565 20.7691 135.787 22.8609Z" fill="white"/>
<path d="M167.287 30.4437C167.304 29.1854 167.549 28.1885 168.251 27.355C168.807 26.685 169.493 26.1784 170.342 25.9496C170.702 25.8516 171.012 25.9169 170.865 26.3745C170.293 28.2048 169.003 29.3978 167.287 30.4437Z" fill="white"/>
<path d="M142.077 26.5216C141.309 27.7963 140.247 28.6297 138.973 29.3815C139.3 28.0904 140.999 26.5379 142.077 26.5216Z" fill="white"/>
<path d="M160.327 29.1854C160.213 28.4663 160.572 27.7963 161.307 27.4041C161.405 27.976 160.964 28.7768 160.327 29.1854Z" fill="white"/>
<path d="M86.3804 26.015C85.9719 28.0742 85.6288 30.0516 84.2237 31.6041C83.5702 32.3395 82.7533 32.8298 81.773 32.9932C80.8254 33.1566 80.2699 32.7808 80.0902 31.8329C79.8451 30.5745 80.1719 29.3979 80.662 28.2703C80.711 28.1396 80.8744 28.0088 81.0051 27.9598C82.737 27.3224 84.4852 26.7014 86.3804 26.015Z" fill="white"/>
<path d="M86.5274 24.6096C85.057 23.8905 82.6226 24.8874 81.8057 26.538C83.4395 25.9333 85.008 25.443 86.5274 24.6096Z" fill="white"/>
</svg>
