<svg width="32" height="32" viewBox="0 0 32 32" fill="none" xmlns="http://www.w3.org/2000/svg">
<path d="M7.16004 13.1203C7.16004 13.1203 5.10004 14.4803 4.45004 15.0003C4.29986 15.1039 4.16226 15.2247 4.04004 15.3603C4.04004 15.3603 4.04004 15.4203 4.04004 15.2703C4.18703 13.227 4.82881 11.2502 5.91004 9.51025L7.16004 13.1203Z" fill="#1C1E27"/>
<path d="M14.9999 8.45025V11.5503L11.8499 13.9203L9.14992 12.7703L7.41992 7.63025L7.51992 7.52025C7.73992 7.30025 7.96992 7.09025 8.19992 6.89025C8.42992 6.69025 8.60992 6.55025 8.82992 6.39025C8.88219 6.34145 8.93913 6.29791 8.99992 6.26025C9.24992 6.08025 9.51992 5.91025 9.78992 5.74025C10.0699 5.57025 10.3499 5.41025 10.6499 5.26025L14.9999 8.45025Z" fill="#F29A98"/>
<path d="M11.6803 27.19H11.6203C9.72719 26.4444 8.0548 25.2297 6.76025 23.66V23.61L10.5703 23.54L11.6803 27.19Z" fill="#1C1E27"/>
<path d="M12.3999 19.7598L10.8199 21.5198L5.37986 21.5698C5.22986 21.2798 5.09986 20.9898 4.96986 20.6998C4.83986 20.4098 4.74986 20.1598 4.65986 19.8798C4.65573 19.8433 4.65573 19.8064 4.65986 19.7698C4.5614 19.481 4.47795 19.1873 4.40986 18.8898C4.31495 18.5982 4.23814 18.3009 4.17986 17.9998C4.17986 17.8498 4.17986 17.7098 4.10986 17.5698L8.46986 14.5698L11.1699 15.7298L12.3999 19.7598Z" fill="#F29A98"/>
<path d="M18.8499 15.4898L17.7499 18.9998H14.2599L13.1499 15.4398L15.9999 13.2998L18.8499 15.4898Z" fill="#1C1E27"/>
<path d="M19.07 4.40004L16 6.70004L13 4.39004C13.9785 4.1285 14.9872 3.99737 16 4.00004C17.0126 4 18.021 4.13109 19 4.39004L19.07 4.40004Z" fill="#1C1E27"/>
<path d="M24.69 7.73022L22.86 12.7302L20.16 14.0002L17 11.5502V8.45021L21.26 5.22021L21.38 5.28022C21.66 5.42022 21.94 5.57021 22.21 5.74021L22.82 6.14021L23.17 6.39021H23.22L23.76 6.82022C24.0084 7.02721 24.2454 7.24754 24.47 7.48022L24.69 7.73022Z" fill="#F29A98"/>
<path d="M19.6101 22.76L18.0901 27.76H17.9401L17.4401 27.83H17.0501H16.6201L16.0001 28H15.3801C14.8906 27.9769 14.403 27.9235 13.9201 27.84L12.3901 22.84L14.0001 21H18.0001L19.6101 22.76Z" fill="#F29A98"/>
<path d="M25.3398 23.5303L25.2698 23.6203C23.9606 25.2142 22.2627 26.4438 20.3398 27.1903L21.4898 23.5303H25.3398Z" fill="#1C1E27"/>
<path d="M27.8599 17.7902C27.8648 17.84 27.8648 17.8903 27.8599 17.9402C27.8099 18.2402 27.7499 18.5502 27.6799 18.8502C27.6799 18.8502 27.6799 18.9502 27.6799 19.0002C27.6099 19.2702 27.5299 19.5402 27.4399 19.8002C27.3499 20.0602 27.2299 20.4002 27.0999 20.7002C26.9699 21.0002 26.8299 21.3002 26.6699 21.6002L21.2499 21.5202L19.6699 19.7602L20.8999 15.8502L23.5999 14.6602L27.8599 17.7902Z" fill="#F29A98"/>
<path d="M28.0001 15.32L24.8701 13.11L26.1301 9.54004C27.2418 11.2731 27.886 13.2643 28.0001 15.32Z" fill="#1C1E27"/>
</svg>
