<svg width="63" height="24" viewBox="0 0 63 24" fill="none" xmlns="http://www.w3.org/2000/svg">
<path fill-rule="evenodd" clip-rule="evenodd" d="M5.82524 2.89081C6.38802 2.88723 8.06057 2.72747 8.76903 5.26343C9.24626 6.97168 10.0064 9.76988 11.0496 13.658H11.4744C12.5931 9.55887 13.3616 6.76067 13.7799 5.26343C14.4957 2.70105 16.2853 2.89086 17.0012 2.89086L22.5241 2.89086V21.1122H16.895V10.3741H16.5175L13.3796 21.1122H9.14445L6.00653 10.3661H5.62906V21.1122H0V2.89086L5.82524 2.89081ZM30.6073 2.89086V13.637H31.0563L34.8733 4.80052C35.6143 3.04204 37.1935 2.89086 37.1935 2.89086H42.6407V21.1122H36.8941V10.3661H36.445L32.7029 19.2026C31.9619 20.9531 30.3079 21.1122 30.3079 21.1122H24.8606V2.89086H30.6073ZM62.5036 11.5498C61.702 13.959 59.1847 15.6844 56.3977 15.6844H50.3712V21.1122H44.9065V11.5498H62.5036Z" fill="#0F754E"/>
<path fill-rule="evenodd" clip-rule="evenodd" d="M56.6646 2.8916H44.6233C44.9099 6.94829 48.2038 10.4211 51.6136 10.4211H62.8867C63.5372 7.0495 61.2977 2.8916 56.6646 2.8916Z" fill="url(#paint0_linear_174_2618)"/>
<defs>
<linearGradient id="paint0_linear_174_2618" x1="62.9972" y1="7.62797" x2="44.6233" y2="7.62797" gradientUnits="userSpaceOnUse">
<stop stop-color="#1F5CD7"/>
<stop offset="1" stop-color="#02AEFF"/>
</linearGradient>
</defs>
</svg>
