<svg width="38" height="24" viewBox="0 0 38 24" fill="none" xmlns="http://www.w3.org/2000/svg">
<path d="M24.1204 2.82812H13.8817V21.1727H24.1204V2.82812Z" fill="#FF5F00"/>
<path d="M14.5301 12.0001C14.5285 10.2334 14.93 8.48948 15.7043 6.90036C16.4787 5.31124 17.6054 3.91859 18.9994 2.82783C17.2732 1.47503 15.2001 0.633743 13.017 0.400127C10.8339 0.166512 8.62891 0.549984 6.65408 1.50673C4.67926 2.46348 3.01425 3.95489 1.84937 5.8105C0.684503 7.6661 0.0667725 9.81103 0.0667725 12.0001C0.0667725 14.1892 0.684503 16.3341 1.84937 18.1898C3.01425 20.0454 4.67926 21.5368 6.65408 22.4935C8.62891 23.4503 10.8339 23.8337 13.017 23.6001C15.2001 23.3665 17.2732 22.5252 18.9994 21.1724C17.6054 20.0817 16.4787 18.689 15.7044 17.0999C14.9301 15.5108 14.5285 13.7668 14.5301 12.0001Z" fill="#EB001B"/>
<path d="M37.9333 12.0001C37.9333 14.1892 37.3157 16.3341 36.1509 18.1897C34.986 20.0453 33.3211 21.5367 31.3463 22.4935C29.3715 23.4502 27.1666 23.8337 24.9835 23.6001C22.8005 23.3665 20.7274 22.5252 19.0012 21.1724C20.3939 20.0806 21.5198 18.6877 22.294 17.0988C23.0682 15.5099 23.4705 13.7666 23.4705 12.0001C23.4705 10.2337 23.0682 8.4903 22.294 6.90143C21.5198 5.31256 20.3939 3.91969 19.0012 2.82782C20.7274 1.47502 22.8005 0.633737 24.9835 0.400124C27.1666 0.166512 29.3715 0.550001 31.3463 1.50676C33.3211 2.46351 34.986 3.95493 36.1509 5.81054C37.3157 7.66614 37.9333 9.81106 37.9333 12.0001Z" fill="#F79E1B"/>
<path d="M36.8161 19.2297V18.8541H36.9679V18.7776H36.5811V18.8541H36.7331V19.2297H36.8161ZM37.5671 19.2297V18.7769H37.4485L37.3121 19.0883L37.1757 18.7769H37.057V19.2297H37.1408V18.8881L37.2687 19.1826H37.3555L37.4834 18.8874V19.2297H37.5671Z" fill="#F79E1B"/>
</svg>
