<svg width="504" height="498" viewBox="0 0 504 498" fill="none" xmlns="http://www.w3.org/2000/svg">
<g clip-path="url(#clip0_196_1433)">
<path d="M323.81 249.742L196.383 248.528L157.761 248.341H147.256H144.531C144.22 248.335 143.908 248.353 143.599 248.393C143.904 248.441 144.212 248.462 144.521 248.455L147.256 248.517L157.761 248.652L196.383 248.86L323.81 248.933C373.537 248.933 418.603 248.995 451.237 249.234C467.543 249.348 480.742 249.503 489.859 249.68C494.417 249.763 497.96 249.856 500.364 249.95C501.588 249.93 502.812 250.021 504.021 250.22C502.812 250.415 501.587 250.495 500.364 250.458C497.96 250.521 494.417 250.583 489.859 250.624C480.732 250.697 467.543 250.718 451.237 250.676C418.603 250.645 373.558 250.251 323.81 249.742Z" fill="#EBEBEB"/>
<path d="M322.826 260.839L197.108 240.079L158.983 233.975L148.624 232.387L145.92 232.003C145.615 231.95 145.307 231.922 144.998 231.92C145.297 232.004 145.602 232.07 145.909 232.117L148.592 232.605L158.952 234.349L197.077 240.483L322.971 260.122C372.118 267.752 416.604 274.727 448.782 279.969C464.871 282.585 477.883 284.764 486.865 286.342C491.361 287.131 494.842 287.764 497.225 288.221C498.441 288.384 499.638 288.665 500.799 289.062C499.572 289.069 498.348 288.961 497.142 288.74C494.759 288.439 491.257 287.951 486.782 287.287C477.758 285.968 464.715 283.965 448.616 281.412C416.314 276.294 371.921 268.987 322.826 260.839Z" fill="#EBEBEB"/>
<path d="M320.122 271.644L199.252 231.556L162.578 219.599L152.581 216.412L149.97 215.623C149.677 215.517 149.376 215.437 149.069 215.384C149.348 215.525 149.639 215.639 149.939 215.727L152.508 216.63L162.454 219.962L199.118 231.951L320.329 270.938C367.643 286.113 410.46 299.919 441.405 310.102C456.883 315.198 469.377 319.371 477.997 322.319C482.306 323.803 485.642 324.966 487.901 325.796C489.074 326.149 490.212 326.611 491.299 327.177C490.085 326.995 488.891 326.696 487.735 326.284C485.425 325.62 482.047 324.592 477.696 323.243C468.994 320.533 456.438 316.527 440.939 311.503C409.942 301.455 367.228 287.328 320.122 271.644Z" fill="#EBEBEB"/>
<path d="M315.656 281.879L202.733 223.512L168.421 206.001L159.097 201.299L156.652 200.105C156.373 199.963 156.086 199.839 155.792 199.731C156.043 199.916 156.31 200.075 156.59 200.209L158.994 201.496L168.318 206.333L202.619 223.875L315.978 281.225C360.287 303.573 400.38 323.866 429.315 338.74C443.819 346.162 455.464 352.234 463.503 356.49C467.523 358.618 470.631 360.289 472.723 361.451C473.818 361.979 474.858 362.612 475.831 363.341C474.662 362.973 473.531 362.493 472.454 361.908C470.289 360.87 467.108 359.344 463.026 357.331C454.863 353.303 443.104 347.397 428.611 340.027C399.655 325.288 359.717 304.694 315.656 281.879Z" fill="#EBEBEB"/>
<path d="M309.668 291.303L207.343 216.215L176.264 193.607L167.758 187.524L165.52 185.967C165.277 185.778 165.017 185.611 164.743 185.469C164.966 185.685 165.205 185.883 165.458 186.061L167.623 187.701L176.036 193.929L207.116 216.557L310.135 290.722C350.362 319.641 386.798 345.881 412.967 365.032C426.083 374.613 436.66 382.409 443.933 387.868C447.569 390.588 450.377 392.726 452.221 394.2C453.228 394.884 454.162 395.67 455.008 396.546C453.912 396.004 452.871 395.358 451.9 394.615C449.911 393.276 447.02 391.263 443.301 388.636C435.883 383.447 425.202 375.745 412.045 366.226C385.762 347.148 349.575 320.637 309.668 291.303Z" fill="#EBEBEB"/>
<path d="M302.261 299.691L213 209.79L185.816 182.687C182.604 179.522 180.097 177.072 178.367 175.37L176.409 173.491C176.202 173.261 175.969 173.055 175.715 172.878C175.905 173.118 176.109 173.347 176.326 173.564L178.211 175.525L185.546 182.947L212.71 210.08L302.789 299.172C338.013 333.924 369.787 365.437 392.683 388.439C404.078 399.857 413.351 409.199 419.618 415.728C422.788 418.977 425.223 421.52 426.87 423.264C427.754 424.102 428.556 425.023 429.263 426.015C428.27 425.31 427.347 424.511 426.508 423.627C424.757 421.998 422.208 419.558 418.955 416.361C412.449 410.05 403.105 400.791 391.605 389.374C368.637 366.548 337.07 334.796 302.261 299.691Z" fill="#EBEBEB"/>
<path d="M293.621 306.832L219.63 204.309L197.015 173.346L190.799 164.979L189.152 162.82C188.978 162.563 188.78 162.323 188.561 162.104C188.713 162.375 188.882 162.635 189.069 162.883L190.612 165.104L196.694 173.574L219.247 204.548C238.454 230.633 264.945 266.62 294.212 306.396C323.478 346.172 349.969 382.17 368.969 408.338C378.469 421.427 386.104 432.056 391.336 439.478C393.947 443.173 395.956 446.059 397.293 448.031C398.034 449.004 398.679 450.047 399.22 451.145C398.348 450.296 397.561 449.364 396.868 448.363C395.397 446.484 393.263 443.692 390.549 440.059C385.11 432.793 377.329 422.288 367.757 409.241C348.674 383.083 322.484 346.868 293.621 306.832Z" fill="#EBEBEB"/>
<path d="M283.965 312.562C261.754 268.551 241.656 228.723 227.079 199.856L209.674 165.789L204.867 156.561L203.593 154.174C203.457 153.9 203.301 153.636 203.127 153.385C203.221 153.676 203.343 153.957 203.49 154.226L204.671 156.665C205.758 158.824 207.323 161.948 209.333 166.007C213.477 174.082 219.382 185.729 226.716 200.084L284.639 312.261C307.275 356.033 327.715 395.695 342.344 424.499C349.658 438.896 355.521 450.574 359.51 458.681C361.509 462.739 363.032 465.895 364.048 468.023C364.627 469.091 365.099 470.214 365.457 471.375C364.731 470.399 364.1 469.357 363.571 468.261C362.421 466.185 360.753 463.071 358.64 459.096C354.423 451.103 348.394 439.498 341.028 425.133C326.265 396.38 306.136 356.562 283.965 312.562Z" fill="#EBEBEB"/>
<path d="M273.502 316.714L235.274 196.576L223.505 160.246C222.086 155.99 220.988 152.679 220.231 150.385C219.848 149.285 219.558 148.444 219.351 147.832C219.264 147.538 219.149 147.253 219.009 146.98C219.062 147.283 219.139 147.582 219.237 147.873L220.014 150.458C220.739 152.752 221.785 156.084 223.122 160.371C225.909 168.986 229.907 181.39 234.859 196.701L274.227 316.496C289.622 363.206 303.494 405.577 313.346 436.291C318.278 451.654 322.204 464.099 324.856 472.725C326.182 477.033 327.187 480.396 327.84 482.679C328.24 483.822 328.527 485 328.7 486.198C328.135 485.125 327.677 483.998 327.332 482.835C326.524 480.603 325.374 477.292 323.924 473.015C321.023 464.473 316.92 452.079 311.927 436.737C301.95 406.065 288.4 363.621 273.502 316.714Z" fill="#EBEBEB"/>
<path d="M262.541 319.194C255.289 270.554 248.69 226.522 243.893 194.635C241.438 178.722 239.449 165.851 238.061 156.904L236.403 146.658C236.196 145.517 236.051 144.582 235.937 144.001C235.895 143.695 235.829 143.393 235.74 143.098C235.742 143.408 235.769 143.717 235.823 144.022C235.906 144.655 236.03 145.548 236.185 146.7C236.527 149.077 237.035 152.534 237.677 156.966C239.055 165.913 241.034 178.764 243.489 194.697C248.555 226.564 255.538 270.523 263.256 319.111C270.974 367.7 277.967 411.638 282.805 443.505C285.229 459.438 287.136 472.341 288.379 481.267C289 485.731 289.415 489.198 289.736 491.554C289.967 492.73 290.082 493.926 290.078 495.125C289.701 493.972 289.431 492.787 289.27 491.585C288.824 489.249 288.234 485.803 287.467 481.361C285.965 472.465 283.893 459.563 281.407 443.671C276.382 411.856 269.772 367.825 262.541 319.194Z" fill="#EBEBEB"/>
<path d="M251.29 319.952C251.746 270.782 252.15 226.273 252.44 194.022C252.513 177.933 252.565 164.958 252.606 155.855C252.606 151.381 252.606 147.894 252.606 145.475C252.606 144.313 252.606 143.399 252.606 142.776C252.636 142.469 252.636 142.16 252.606 141.853C252.566 142.159 252.549 142.468 252.554 142.776C252.554 143.41 252.554 144.313 252.482 145.475C252.482 147.883 252.42 151.361 252.357 155.855C252.357 164.906 252.254 177.933 252.171 194.022V319.952C252.171 369.112 252.171 413.621 251.953 445.84C251.839 461.95 251.694 474.987 251.529 483.997C251.435 488.513 251.353 492.011 251.259 494.377C251.286 495.591 251.192 496.805 250.98 498C250.793 496.802 250.713 495.589 250.741 494.377C250.669 492 250.617 488.502 250.565 483.997C250.482 474.987 250.451 461.95 250.493 445.83C250.441 413.611 250.814 369.101 251.29 319.952Z" fill="#EBEBEB"/>
<path d="M240.06 318.977C248.245 270.471 255.652 226.595 261.008 194.76L267.172 157.08C267.866 152.648 268.395 149.202 268.768 146.825C268.933 145.673 269.058 144.749 269.151 144.157C269.21 143.853 269.242 143.544 269.244 143.233C269.154 143.529 269.084 143.831 269.037 144.136C268.923 144.77 268.757 145.652 268.55 146.794C268.146 149.16 267.514 152.607 266.789 157.018C265.328 165.945 263.215 178.816 260.573 194.687C255.497 226.553 248.504 270.523 240.775 319.101C233.047 367.68 226.054 411.628 220.77 443.422C218.128 459.324 215.932 472.175 214.347 481.05C213.549 485.492 212.917 488.938 212.451 491.264C212.286 492.465 212.001 493.648 211.602 494.793C211.595 493.581 211.706 492.371 211.933 491.181C212.234 488.824 212.72 485.357 213.383 480.904C214.72 471.988 216.74 459.106 219.309 443.194C224.479 411.369 231.855 367.451 240.06 318.977Z" fill="#EBEBEB"/>
<path d="M229.13 316.278L269.617 196.908L281.707 160.661L284.919 150.779C285.261 149.669 285.53 148.818 285.716 148.205C285.823 147.916 285.903 147.617 285.955 147.312C285.814 147.585 285.7 147.87 285.613 148.164L284.701 150.717L281.334 160.537C278.464 169.131 274.32 181.504 269.213 196.783L229.845 316.558C214.513 363.32 200.568 405.639 190.281 436.218C185.101 451.508 180.957 463.86 177.932 472.382C176.44 476.638 175.259 479.939 174.43 482.16C174.072 483.31 173.597 484.42 173.011 485.471C173.201 484.273 173.503 483.095 173.912 481.952C174.585 479.679 175.621 476.337 177.02 472.029C179.755 463.435 183.806 451.02 188.882 435.699C199.014 405.089 213.29 362.873 229.13 316.278Z" fill="#EBEBEB"/>
<path d="M218.77 311.918C241.801 268.323 262.655 228.879 277.76 200.282L295.465 166.37C297.537 162.364 299.112 159.26 300.22 157.111C300.738 156.073 301.132 155.264 301.422 154.693C301.576 154.423 301.701 154.138 301.795 153.842C301.621 154.099 301.462 154.366 301.318 154.641L300.023 157.008C298.884 159.136 297.237 162.198 295.133 166.194L277.397 200.095C262.552 228.827 242.06 268.457 219.434 312.199C196.807 355.94 176.326 395.622 161.294 424.219C153.783 438.513 147.65 450.065 143.35 458.017C141.195 461.982 139.507 465.065 138.336 467.13C137.801 468.229 137.159 469.272 136.419 470.244C136.798 469.091 137.284 467.975 137.87 466.912C138.906 464.774 140.46 461.629 142.49 457.57C146.562 449.505 152.539 437.848 159.988 423.555C174.886 394.937 195.709 355.473 218.77 311.918Z" fill="#EBEBEB"/>
<path d="M209.271 306.002L285.209 204.849L308.063 174.083L314.217 165.675L315.791 163.474C315.981 163.229 316.15 162.968 316.299 162.696C316.079 162.913 315.878 163.15 315.698 163.402L314.04 165.55L307.752 173.854L284.877 204.6L209.882 306.427C180.646 346.193 154.104 382.201 134.741 408.089C125.055 421.053 117.129 431.506 111.67 438.689C108.914 442.291 106.759 445.062 105.267 446.931C104.566 447.924 103.771 448.849 102.895 449.692C103.444 448.592 104.1 447.549 104.853 446.578C106.2 444.616 108.24 441.751 110.893 438.087C116.187 430.748 123.925 420.192 133.55 407.186C152.747 381.225 179.558 345.456 209.271 306.002Z" fill="#EBEBEB"/>
<path d="M200.734 298.684L291.663 210.454L319.086 183.559L326.483 176.2L328.389 174.259C328.614 174.047 328.821 173.818 329.011 173.574C328.761 173.76 328.525 173.965 328.306 174.186L326.338 176.044L318.827 183.31L291.383 210.174L201.252 299.234C166.111 334.017 134.234 365.468 111.017 388.107C99.4139 399.421 89.9864 408.545 83.4079 414.794C80.1238 417.908 77.5649 420.326 75.7933 421.946C74.9419 422.818 74.0125 423.61 73.0168 424.312C73.7267 423.323 74.5355 422.408 75.4307 421.582C77.0779 419.849 79.5747 417.337 82.7345 414.119C89.1162 407.684 98.4297 398.446 109.991 387.079C133.104 364.337 165.22 333.104 200.734 298.684Z" fill="#EBEBEB"/>
<path d="M193.492 290.162L297.216 216.942C310.415 207.516 321.106 199.898 328.534 194.604L336.998 188.469L339.184 186.84C339.437 186.66 339.679 186.466 339.909 186.258C339.631 186.394 339.367 186.557 339.122 186.746L336.874 188.282L328.306 194.282L296.978 216.599L193.938 290.764C153.741 319.724 117.274 345.892 90.8152 364.69C77.5649 374.084 66.8113 381.641 59.3418 386.81C55.6018 389.394 52.6907 391.377 50.6912 392.695C49.7202 393.432 48.6792 394.072 47.5833 394.605C48.4444 393.74 49.3882 392.961 50.4012 392.28C52.297 390.827 55.1253 388.72 58.7823 386.052C66.1068 380.675 76.7568 372.973 89.9657 363.528C116.363 344.615 152.995 318.665 193.492 290.162Z" fill="#EBEBEB"/>
<path d="M187.691 280.623L301.722 224.343L336.19 207.122L345.514 202.368L347.928 201.112C348.205 200.977 348.472 200.821 348.725 200.645C348.433 200.743 348.149 200.864 347.876 201.008L345.41 202.181L336.003 206.78L301.526 223.979L188.033 281.297C143.754 303.687 103.599 323.907 74.4878 338.387C59.9114 345.653 48.101 351.435 39.896 355.379C35.752 357.351 32.644 358.867 30.427 359.863C29.3407 360.418 28.2069 360.873 27.0393 361.223C28.0101 360.498 29.0513 359.872 30.1473 359.355C32.2193 358.213 35.3272 356.573 39.4712 354.476C47.552 350.324 59.2898 344.345 73.8247 337.048C102.895 322.475 143.174 302.556 187.691 280.623Z" fill="#EBEBEB"/>
<path d="M183.485 270.305C230.954 255.524 273.906 242.144 305.048 232.459L341.878 220.803L351.854 217.564L354.434 216.692C354.734 216.604 355.025 216.49 355.304 216.35C355 216.409 354.699 216.485 354.403 216.578L351.782 217.356L341.764 220.47L304.965 232.086L183.754 271.042C136.461 286.279 93.6226 300.012 62.5429 309.769C47.003 314.648 34.4157 318.54 25.6822 321.187C21.3207 322.495 17.9227 323.492 15.6124 324.135C14.4532 324.531 13.2603 324.819 12.0486 324.997C13.1364 324.43 14.2783 323.975 15.457 323.637C17.7155 322.838 21.0617 321.706 25.3922 320.264C34.0323 317.399 46.5782 313.34 62.0974 308.389C93.0736 298.445 136.026 285.034 183.485 270.305Z" fill="#EBEBEB"/>
<path d="M180.957 259.499L307.037 241.023L345.213 235.241L355.573 233.591L358.267 233.134C358.575 233.091 358.88 233.026 359.179 232.937C358.866 232.939 358.554 232.967 358.246 233.02L355.542 233.373L345.182 234.857L306.996 240.618L181.091 260.236C131.965 267.928 87.4584 274.831 55.2079 279.637C39.0879 282.034 26.0344 283.923 17.0005 285.159C12.4836 285.771 8.97158 286.197 6.57844 286.508C5.37198 286.726 4.14699 286.823 2.92139 286.799C4.08925 286.423 5.28915 286.155 6.50592 285.999C8.85763 285.553 12.3489 284.961 16.8659 284.214C25.8686 282.719 38.9014 280.664 55.0111 278.194C87.189 273.191 131.747 266.63 180.957 259.499Z" fill="#EBEBEB"/>
<path d="M180.19 248.341L307.617 249.378L346.249 249.513H356.744H359.479C359.791 249.518 360.102 249.501 360.411 249.461C360.103 249.414 359.791 249.393 359.479 249.399L356.744 249.337L346.249 249.223L307.69 249.015L180.263 249.088C130.535 249.15 85.4694 249.14 52.8356 248.942C36.5291 248.849 23.3306 248.714 14.2138 248.548C9.65545 248.465 6.11236 248.382 3.70885 248.289C2.46664 248.325 1.22402 248.234 0 248.019C1.21296 247.831 2.44029 247.751 3.66741 247.78C6.06056 247.708 9.60365 247.656 14.162 247.604C23.2891 247.511 36.4877 247.48 52.7942 247.511C85.3969 247.563 130.452 247.895 180.19 248.341Z" fill="#EBEBEB"/>
<path d="M181.164 237.245L306.903 257.87L345.037 263.932L355.397 265.499L358.101 265.883C358.409 265.937 358.721 265.964 359.034 265.966C358.735 265.878 358.43 265.812 358.122 265.769L355.428 265.281L345.068 263.548L306.975 257.423L181.05 237.982C131.892 230.415 87.3964 223.45 55.2081 218.26C39.1191 215.665 26.1071 213.506 17.125 211.938C12.6288 211.16 9.14788 210.527 6.76509 210.07C5.55097 209.903 4.35461 209.625 3.19092 209.24C4.41757 209.225 5.64261 209.333 6.84797 209.561C9.23076 209.852 12.7428 210.34 17.2597 210.994C26.2832 212.302 39.3263 214.284 55.4257 216.817C87.6554 221.914 132.099 229.159 181.164 237.245Z" fill="#EBEBEB"/>
<path d="M183.889 226.439L304.768 266.371L341.463 278.287L351.471 281.401L354.082 282.2C354.375 282.301 354.677 282.377 354.983 282.429C354.702 282.291 354.411 282.176 354.113 282.086L351.533 281.193L341.587 277.872L304.903 265.924L183.692 227.093C136.357 211.98 93.5604 198.226 62.5532 188.075C47.0858 183.009 34.5814 178.847 25.9516 175.909C21.6418 174.435 18.3059 173.273 16.0475 172.453C14.8732 172.103 13.7353 171.641 12.6494 171.072C13.8639 171.246 15.0578 171.541 16.2132 171.955C18.5235 172.619 21.9112 173.636 26.2624 174.986C34.9647 177.674 47.5209 181.67 63.0297 186.673C93.9956 196.732 136.751 210.817 183.889 226.439Z" fill="#EBEBEB"/>
<path d="M188.302 216.194L301.318 274.415L335.661 291.895L344.985 296.576L347.441 297.77C347.717 297.91 348 298.035 348.29 298.144C348.039 297.961 347.772 297.801 347.493 297.666L345.089 296.39L335.765 291.563L301.474 274.031L187.919 216.837C143.588 194.541 103.464 174.28 74.5188 159.457C60.0149 152.046 48.3497 145.963 40.3311 141.749C36.3114 139.673 33.1931 137.96 31.1004 136.797C30.0035 136.274 28.9563 135.652 27.9717 134.939C29.1405 135.303 30.2716 135.78 31.349 136.362C33.5246 137.4 36.7051 138.915 40.7869 140.929C48.9505 144.946 60.7194 150.842 75.2337 158.191C104.252 172.899 144.21 193.441 188.302 216.194Z" fill="#EBEBEB"/>
<path d="M194.29 206.769C234.279 236.04 270.467 262.53 296.708 281.723L327.85 304.289L336.366 310.371L338.604 311.918C338.846 312.11 339.106 312.277 339.381 312.416C339.159 312.203 338.92 312.008 338.666 311.835L336.501 310.195L328.078 303.967L296.947 281.401L193.845 207.361C153.576 178.494 117.181 152.347 90.9084 133.185C77.7823 123.625 67.1945 115.84 59.9218 110.349C56.2855 107.64 53.4676 105.502 51.5821 104.038C50.5808 103.354 49.6445 102.58 48.7849 101.724C49.8798 102.267 50.9205 102.913 51.8929 103.654C53.8716 104.993 56.7724 106.997 60.4916 109.612C67.9197 114.802 78.6111 122.484 91.7786 131.992C118.103 151.018 154.363 177.497 194.29 206.769Z" fill="#EBEBEB"/>
<path d="M201.687 198.371L291.052 288.158L318.278 315.24L325.726 322.506L327.684 324.384C327.901 324.609 328.136 324.814 328.389 324.997C328.199 324.75 327.991 324.518 327.767 324.301L325.882 322.35L318.547 314.928C312.093 308.513 302.81 299.265 291.342 287.836L201.148 198.849C165.925 164.149 134.068 132.677 111.152 109.758C99.6832 98.3396 90.4318 88.9977 84.1226 82.4894C80.9525 79.2509 78.5075 76.7078 76.8707 74.9743C75.9827 74.1404 75.1809 73.2188 74.4775 72.2236C75.4711 72.9281 76.394 73.7277 77.2333 74.611C78.9841 76.2407 81.5326 78.6696 84.796 81.877C91.3124 88.1776 100.667 97.3743 112.177 108.782C135.218 131.597 166.795 163.298 201.687 198.371Z" fill="#EBEBEB"/>
<path d="M210.307 191.22L284.463 293.65L307.079 324.582L313.295 332.948L314.942 335.107C315.117 335.36 315.314 335.596 315.532 335.813C315.383 335.544 315.217 335.284 315.035 335.035L313.471 332.813C312.062 330.852 310.021 328.007 307.389 324.364L284.784 293.411L209.695 191.687C180.356 151.994 153.855 116.007 134.814 89.8389C125.355 76.729 117.647 66.0999 112.405 58.7197C109.815 55.014 107.743 52.1492 106.438 50.177C105.694 49.2056 105.049 48.1625 104.511 47.063C105.379 47.9155 106.166 48.8468 106.863 49.8448C108.334 51.7236 110.468 54.5158 113.193 58.1488C118.642 65.4148 126.433 75.8986 135.984 88.9462C155.161 115.031 181.402 151.216 210.307 191.22Z" fill="#EBEBEB"/>
<path d="M219.952 185.48L276.983 298.103C284.339 312.458 290.296 324.053 294.44 332.149L299.247 341.377L300.531 343.754C300.661 344.037 300.821 344.304 301.008 344.553C300.899 344.263 300.775 343.979 300.635 343.702L299.454 341.273L294.781 331.983L277.356 297.905C262.479 269.184 241.956 229.574 219.289 185.802C196.621 142.029 176.119 102.44 161.439 73.698C154.104 59.2595 148.23 47.5924 144.221 39.4441C142.221 35.3959 140.688 32.2404 139.683 30.1021C139.102 29.037 138.627 27.9176 138.264 26.7598C138.991 27.7341 139.623 28.777 140.149 29.8738C141.309 31.9498 142.977 35.0637 145.091 39.0393C149.328 47.0215 155.368 58.6159 162.703 72.9714C177.549 101.724 197.73 141.5 219.952 185.48Z" fill="#EBEBEB"/>
<path d="M230.394 181.307L268.778 301.393C273.761 316.714 277.791 329.118 280.599 337.723C282.018 341.979 283.116 345.29 283.883 347.573C284.266 348.674 284.556 349.525 284.763 350.127C284.849 350.425 284.964 350.713 285.105 350.989C285.061 350.684 284.985 350.384 284.877 350.096L284.1 347.511C283.365 345.207 282.318 341.885 280.992 337.609C278.205 328.993 274.175 316.589 269.213 301.279C259.091 270.616 245.137 228.297 229.711 181.546C214.285 134.794 200.309 92.4856 190.415 61.7817C185.463 46.4297 181.516 33.9841 178.854 25.3687C177.517 21.0506 176.512 17.6979 175.86 15.4143C175.461 14.271 175.17 13.093 174.99 11.8955C175.554 12.969 176.012 14.0954 176.357 15.2586C177.175 17.4903 178.325 20.8015 179.776 25.0677C182.697 33.6104 186.81 46.0041 191.824 61.3353C201.853 91.9874 215.486 134.421 230.394 181.307Z" fill="#EBEBEB"/>
<path d="M241.386 178.816C248.721 227.446 255.362 271.467 260.169 303.375C262.645 319.278 264.655 332.149 266.053 341.096C266.778 345.518 267.338 348.954 267.721 351.331L268.198 353.999C268.232 354.302 268.298 354.602 268.394 354.891C268.397 354.578 268.373 354.266 268.322 353.957C268.229 353.324 268.115 352.431 267.959 351.279C267.607 348.902 267.099 345.445 266.436 341.013C265.059 332.076 263.059 319.215 260.593 303.292C255.486 271.426 248.441 227.519 240.651 178.899C232.86 130.279 225.846 86.4133 220.925 54.5571C218.48 38.6239 216.564 25.7216 215.31 16.7948C214.678 12.3314 214.222 8.86448 213.932 6.50823C213.715 5.3169 213.618 4.10676 213.642 2.896C214.02 4.04477 214.291 5.22625 214.45 6.42519C214.896 8.76068 215.486 12.2068 216.274 16.6495C217.786 25.5347 219.879 38.4474 222.386 54.3288C227.411 86.1538 234.134 130.186 241.386 178.816Z" fill="#EBEBEB"/>
<path d="M252.617 178.037C252.233 227.218 251.881 271.717 251.581 303.978C251.581 320.067 251.487 333.041 251.467 342.134C251.467 346.618 251.467 350.106 251.467 352.514C251.467 353.677 251.467 354.59 251.467 355.213C251.444 355.521 251.444 355.829 251.467 356.137C251.514 355.831 251.535 355.522 251.529 355.213C251.529 354.57 251.529 353.677 251.591 352.514C251.591 350.106 251.653 346.618 251.695 342.134C251.695 333.083 251.777 320.056 251.84 303.967C251.84 271.706 251.736 227.155 251.684 178.027C251.632 128.899 251.56 84.3684 251.746 52.149C251.829 36.0289 251.964 22.9916 252.119 13.9818C252.202 9.47692 252.285 5.97887 252.368 3.60185C252.398 2.3912 252.537 1.18572 252.782 0C252.985 1.19624 253.069 2.40979 253.031 3.62261C253.103 5.98925 253.166 9.4873 253.217 14.0026C253.321 23.0228 253.362 36.06 253.342 52.1698C253.352 84.3788 253.041 128.888 252.617 178.037Z" fill="#EBEBEB"/>
<path d="M263.846 179.002C255.735 227.518 248.389 271.384 243.064 303.251C240.485 319.142 238.403 332.003 236.952 340.93C236.268 345.362 235.74 348.808 235.367 351.196C235.201 352.348 235.077 353.272 234.984 353.863C234.931 354.165 234.903 354.471 234.901 354.777C234.991 354.485 235.057 354.187 235.098 353.884C235.222 353.251 235.377 352.369 235.585 351.227C235.989 348.85 236.621 345.414 237.335 340.992C238.786 332.066 240.889 319.194 243.469 303.313C248.503 271.446 255.445 227.477 263.152 178.878C270.86 130.279 277.75 86.3404 282.992 54.5362C285.613 38.634 287.788 25.7733 289.363 16.8984C290.15 12.4557 290.793 9.00959 291.249 6.68448C291.403 5.47197 291.67 4.27656 292.046 3.11377C292.06 4.32559 291.953 5.53575 291.725 6.726C291.435 9.08225 290.948 12.5492 290.285 17.0022C288.969 25.9186 286.959 38.8001 284.411 54.723C279.314 86.5895 272 130.518 263.846 179.002Z" fill="#EBEBEB"/>
<path d="M274.787 181.65L234.455 301.154C229.379 316.444 225.266 328.817 222.417 337.411C221.039 341.678 219.962 344.999 219.216 347.293L218.418 349.878C218.312 350.167 218.232 350.466 218.18 350.771C218.32 350.493 218.438 350.205 218.532 349.909C218.739 349.307 219.04 348.466 219.433 347.366L222.79 337.536L234.859 301.279C244.898 270.585 258.76 228.245 274.072 181.452C289.384 134.659 303.235 92.3819 313.481 61.7402C318.599 46.4505 322.805 34.0879 325.778 25.566C327.26 21.3102 328.441 18.0093 329.269 15.7776C329.62 14.625 330.088 13.5118 330.668 12.4561C330.479 13.6537 330.18 14.8316 329.777 15.9749C329.104 18.2481 328.068 21.6008 326.669 25.8981C323.944 34.5031 319.914 46.9176 314.859 62.228C304.789 92.8386 290.575 135.075 274.787 181.65Z" fill="#EBEBEB"/>
<path d="M285.157 186.04C262.179 229.636 241.376 269.08 226.313 297.749L208.639 331.682C206.567 335.688 205.002 338.802 203.904 340.951C203.386 341.989 202.992 342.799 202.702 343.369C202.556 343.639 202.431 343.92 202.329 344.21C202.51 343.961 202.67 343.697 202.806 343.421L204.101 341.044C205.24 338.916 206.877 335.854 208.98 331.858L226.675 297.905C241.48 269.153 261.899 229.491 284.494 185.666C307.089 141.842 327.498 102.201 342.509 73.5628C350 59.2488 356.112 47.6959 360.401 39.7448C362.546 35.7693 364.234 32.6864 365.405 30.6208C365.942 29.5234 366.584 28.4806 367.322 27.5068C366.941 28.6599 366.456 29.7753 365.871 30.8388C364.835 32.9875 363.292 36.1326 361.261 40.1808C357.2 48.246 351.243 59.9027 343.804 74.2271C328.928 102.959 308.156 142.455 285.157 186.04Z" fill="#EBEBEB"/>
<path d="M294.709 191.947L218.905 293.193C209.281 306.168 201.501 316.683 196.113 323.98L189.97 332.398L188.395 334.609C188.208 334.852 188.038 335.109 187.888 335.377C188.108 335.159 188.309 334.923 188.489 334.671L190.146 332.523L196.362 324.219L219.206 293.442C238.382 267.326 264.789 231.318 294.067 191.511C323.344 151.703 349.751 115.737 369.083 89.7869C378.78 76.812 386.653 66.3074 392.144 59.166C394.889 55.5745 397.044 52.7927 398.536 50.9243C399.242 49.9117 400.043 48.9697 400.929 48.1113C400.38 49.2109 399.724 50.2539 398.971 51.2253C397.624 53.1871 395.583 56.052 392.942 59.7265C387.658 67.0652 379.93 77.6424 370.316 90.6485C351.088 116.65 324.328 152.451 294.709 191.947Z" fill="#EBEBEB"/>
<path d="M303.204 199.295C267.742 233.798 235.657 265.032 212.389 287.66L185.007 314.513L177.61 321.883C176.792 322.713 176.16 323.357 175.715 323.824C175.487 324.033 175.279 324.262 175.093 324.509C175.34 324.319 175.575 324.115 175.798 323.896L177.766 322.038L185.277 314.772L212.679 287.888L302.676 198.704C337.775 163.879 369.611 132.386 392.807 109.726C404.389 98.4019 413.806 89.2675 420.364 83.0396C423.648 79.9256 426.218 77.4967 427.979 75.8774C428.83 75.0052 429.76 74.213 430.755 73.5107C430.044 74.5023 429.235 75.4202 428.341 76.2511C426.694 77.9741 424.197 80.4965 421.089 83.7143C414.708 90.1602 405.415 99.4192 393.874 110.796C370.751 133.528 338.676 164.782 303.204 199.295Z" fill="#EBEBEB"/>
<path d="M310.456 207.765L206.857 281.1L175.559 303.469L167.106 309.614L164.92 311.233C164.66 311.403 164.42 311.601 164.205 311.825C164.477 311.674 164.739 311.507 164.992 311.326L167.23 309.79L175.787 303.77L207.095 281.422L310.031 207.163C350.186 178.099 386.591 151.932 413.061 133.113C426.29 123.698 437.044 116.121 444.503 110.951C448.243 108.356 451.154 106.374 453.143 105.045C454.113 104.307 455.154 103.667 456.251 103.135C455.387 103.997 454.443 104.776 453.433 105.46C451.537 106.924 448.709 109.031 445.052 111.688C437.738 117.076 427.098 124.788 413.9 134.254C387.523 153.229 350.922 179.179 310.456 207.765Z" fill="#EBEBEB"/>
<path d="M316.268 217.295L202.309 273.71L167.831 290.982L158.507 295.746L156.103 297.013C155.819 297.141 155.549 297.298 155.295 297.48C155.588 297.374 155.875 297.253 156.155 297.117L158.61 295.944L168.017 291.325L202.474 274.083L315.978 216.63C360.225 194.178 400.339 173.906 429.46 159.405C444.016 152.139 455.826 146.327 464.021 142.372C468.113 140.389 471.273 138.874 473.49 137.877C474.571 137.301 475.706 136.832 476.878 136.476C475.899 137.189 474.859 137.815 473.77 138.344C471.698 139.486 468.538 141.137 464.446 143.223C456.375 147.375 444.638 153.385 430.113 160.703C401.012 175.339 360.764 195.31 316.268 217.295Z" fill="#EBEBEB"/>
<path d="M320.495 227.612L198.983 265.613L162.216 277.311L152.291 280.56L149.711 281.442C149.412 281.527 149.121 281.638 148.841 281.775C149.151 281.723 149.455 281.646 149.753 281.546L152.363 280.768L162.392 277.654L199.159 265.987L320.37 226.885C367.643 211.585 410.502 197.821 441.581 188.002C457.121 183.103 469.709 179.189 478.432 176.584C482.793 175.266 486.191 174.269 488.502 173.626C489.657 173.217 490.851 172.929 492.065 172.764C490.976 173.324 489.834 173.776 488.657 174.114C486.398 174.923 483.052 176.065 478.732 177.508C470.092 180.383 457.556 184.462 442.037 189.424C410.875 199.347 367.933 212.789 320.495 227.612Z" fill="#EBEBEB"/>
<path d="M323.033 238.459L196.973 257.143L158.807 262.977L148.447 264.638L145.764 265.105C145.455 265.144 145.15 265.21 144.853 265.302C145.162 265.3 145.47 265.272 145.775 265.219L148.489 264.856L158.849 263.361L197.015 257.548L322.919 237.702C372.035 229.948 416.531 222.993 448.771 218.146C464.891 215.727 477.945 213.817 486.979 212.572C491.496 211.949 495.008 211.534 497.401 211.212C498.608 211.002 499.832 210.901 501.058 210.911C499.891 211.294 498.691 211.565 497.473 211.72C495.111 212.167 491.63 212.758 487.113 213.516C478.121 215.021 465.088 217.097 448.978 219.588C416.78 224.592 372.232 231.214 323.033 238.459Z" fill="#EBEBEB"/>
<path d="M387.378 375.008C382.164 369.022 375.37 364.633 367.777 362.344C362.504 360.86 354.506 359.5 346.363 361.493C341.428 362.659 336.886 365.108 333.196 368.593C328.834 372.745 325.509 378.381 323.312 385.46C323.153 385.973 323.097 386.513 323.149 387.048C323.2 387.583 323.358 388.102 323.613 388.574C323.873 389.06 324.228 389.487 324.657 389.831C325.086 390.176 325.58 390.43 326.11 390.578L339.951 394.481C340.9 394.739 341.911 394.65 342.801 394.229C343.691 393.809 344.403 393.085 344.809 392.187C346.643 388.035 351.274 381.412 361.675 384.163C364.314 384.805 366.688 386.257 368.465 388.314C370.242 390.372 371.334 392.934 371.59 395.643C371.836 397.945 371.537 400.274 370.716 402.438C369.895 404.602 368.576 406.542 366.866 408.099C361.478 413.133 354.434 412.158 350.735 411.13C348.686 410.554 346.492 410.815 344.634 411.856C342.776 412.897 341.405 414.632 340.821 416.683L336.677 431.599C336.397 432.645 336.537 433.759 337.065 434.703C337.593 435.647 338.469 436.348 339.505 436.655L352.973 440.454C354.018 440.736 355.132 440.598 356.077 440.069C357.022 439.539 357.722 438.66 358.029 437.62L358.909 434.506C358.92 434.469 358.941 434.436 358.971 434.412C359 434.388 359.037 434.374 359.075 434.371C364.976 433.975 370.719 432.288 375.899 429.43C384.612 424.572 390.517 416.798 393.46 406.314C397.645 391.325 392.465 381.007 387.378 375.008Z" fill="#E0E0E0"/>
<path d="M345.825 442.498L344.644 442.166C343.301 441.787 341.897 441.677 340.512 441.842C339.126 442.007 337.787 442.443 336.57 443.126C334.112 444.507 332.302 446.808 331.538 449.526C331.16 450.871 331.05 452.278 331.215 453.666C331.379 455.054 331.815 456.396 332.497 457.615C333.179 458.834 334.094 459.907 335.19 460.772C336.286 461.637 337.541 462.277 338.884 462.656L340.065 462.988C342.777 463.754 345.681 463.408 348.139 462.028C350.596 460.648 352.406 458.346 353.17 455.629C353.934 452.912 353.589 450.002 352.212 447.54C350.834 445.077 348.537 443.264 345.825 442.498Z" fill="#E0E0E0"/>
<path d="M417.091 292.394C413.496 290.49 409.439 289.637 405.384 289.934C401.673 290.21 398.092 291.42 394.972 293.452C392.824 294.921 391.099 296.929 389.968 299.276C388.576 302.372 388.009 305.776 388.321 309.157C388.335 309.439 388.406 309.714 388.53 309.967C388.653 310.22 388.827 310.445 389.04 310.628C389.253 310.812 389.502 310.95 389.77 311.034C390.038 311.119 390.321 311.148 390.6 311.119L397.945 310.444C398.45 310.404 398.922 310.18 399.274 309.815C399.625 309.45 399.83 308.969 399.852 308.462C399.966 306.126 400.981 302.12 406.461 301.518C407.848 301.327 409.26 301.577 410.498 302.233C411.735 302.888 412.737 303.916 413.361 305.171C413.895 306.226 414.174 307.393 414.174 308.576C414.174 309.759 413.895 310.926 413.361 311.981C411.703 315.385 408.181 316.216 406.192 316.403C405.108 316.508 404.11 317.036 403.412 317.873C402.714 318.711 402.373 319.789 402.462 320.876L403.177 328.786C403.198 329.063 403.274 329.332 403.4 329.579C403.527 329.826 403.702 330.045 403.914 330.223C404.127 330.401 404.373 330.535 404.637 330.616C404.902 330.697 405.181 330.724 405.456 330.696L412.615 330.042C412.891 330.02 413.16 329.943 413.406 329.814C413.652 329.686 413.87 329.51 414.047 329.296C414.224 329.082 414.356 328.835 414.436 328.569C414.515 328.303 414.541 328.024 414.511 327.748L414.356 326.087C414.356 326.067 414.362 326.048 414.373 326.031C414.384 326.015 414.399 326.002 414.418 325.994C417.168 324.72 419.608 322.86 421.566 320.544C423.192 318.57 424.398 316.284 425.111 313.826C425.824 311.368 426.027 308.791 425.71 306.251C424.985 298.31 420.613 294.335 417.091 292.394Z" fill="#F5F5F5"/>
<path d="M409.528 332.346L408.906 332.408C408.183 332.462 407.477 332.66 406.831 332.99C406.186 333.321 405.612 333.777 405.144 334.333C404.677 334.888 404.324 335.532 404.108 336.225C403.892 336.919 403.816 337.649 403.885 338.372C403.954 339.096 404.166 339.798 404.51 340.438C404.853 341.078 405.32 341.643 405.885 342.1C406.449 342.557 407.098 342.896 407.795 343.098C408.492 343.3 409.222 343.361 409.942 343.276L410.564 343.214C411.287 343.16 411.992 342.962 412.638 342.632C413.284 342.301 413.858 341.845 414.326 341.289C414.793 340.734 415.146 340.091 415.362 339.397C415.578 338.703 415.654 337.973 415.585 337.25C415.516 336.526 415.304 335.824 414.96 335.184C414.617 334.544 414.149 333.979 413.585 333.522C413.021 333.065 412.372 332.726 411.675 332.524C410.978 332.322 410.248 332.262 409.528 332.346Z" fill="#F5F5F5"/>
<path d="M123.2 123.522C120.751 121.174 117.692 119.563 114.374 118.872C111.332 118.245 108.182 118.398 105.215 119.318C103.157 120.007 101.314 121.223 99.8697 122.847C98.0772 125.007 96.8648 127.591 96.3473 130.352C96.297 130.58 96.293 130.817 96.3358 131.047C96.3785 131.277 96.467 131.496 96.5959 131.691C96.8617 132.084 97.2711 132.356 97.7355 132.449L103.775 133.58C104.191 133.66 104.622 133.586 104.988 133.372C105.353 133.159 105.629 132.819 105.764 132.417C106.147 130.97 107.084 129.732 108.372 128.972C109.66 128.212 111.195 127.992 112.643 128.359C113.794 128.534 114.861 129.064 115.697 129.875C116.532 130.686 117.095 131.738 117.305 132.885C117.498 133.852 117.459 134.852 117.19 135.801C116.922 136.75 116.432 137.622 115.762 138.344C113.69 140.701 110.582 140.545 108.997 140.244C108.101 140.08 107.178 140.277 106.427 140.792C105.676 141.307 105.158 142.099 104.987 142.995L103.713 149.472C103.668 149.7 103.669 149.935 103.715 150.163C103.761 150.392 103.851 150.608 103.981 150.801C104.111 150.994 104.278 151.16 104.472 151.288C104.666 151.416 104.884 151.504 105.112 151.548L110.996 152.648C111.224 152.695 111.459 152.695 111.688 152.65C111.916 152.604 112.133 152.514 112.326 152.383C112.519 152.253 112.684 152.085 112.811 151.89C112.939 151.695 113.026 151.476 113.068 151.247L113.317 149.887C113.319 149.869 113.328 149.854 113.341 149.842C113.355 149.831 113.372 149.824 113.389 149.825C115.888 149.425 118.271 148.487 120.372 147.074C122.131 145.865 123.624 144.308 124.76 142.5C125.897 140.692 126.653 138.67 126.982 136.559C128.183 130.03 125.593 125.837 123.2 123.522Z" fill="#F5F5F5"/>
<path d="M108.044 153.8L107.526 153.707C106.367 153.543 105.189 153.833 104.238 154.517C103.288 155.2 102.636 156.225 102.42 157.377C102.204 158.53 102.439 159.721 103.078 160.704C103.716 161.687 104.708 162.386 105.847 162.654L106.365 162.748C107.524 162.912 108.702 162.622 109.652 161.938C110.603 161.254 111.255 160.23 111.471 159.077C111.687 157.925 111.451 156.733 110.813 155.75C110.175 154.768 109.183 154.069 108.044 153.8Z" fill="#F5F5F5"/>
<path d="M406.161 125.598C402.575 123.675 398.521 122.805 394.465 123.086C390.753 123.345 387.168 124.541 384.042 126.563C381.887 128.023 380.15 130.023 379.007 132.365C377.604 135.459 377.023 138.863 377.319 142.247C377.333 142.528 377.404 142.804 377.527 143.057C377.651 143.31 377.825 143.535 378.038 143.718C378.251 143.902 378.5 144.04 378.768 144.124C379.036 144.209 379.318 144.237 379.598 144.209L386.943 143.565C387.448 143.525 387.92 143.301 388.271 142.936C388.623 142.571 388.828 142.09 388.849 141.583C388.974 139.247 390.01 135.251 395.49 134.67C396.874 134.5 398.276 134.766 399.502 135.432C400.728 136.098 401.715 137.131 402.328 138.386C402.862 139.439 403.14 140.604 403.14 141.785C403.14 142.967 402.862 144.131 402.328 145.185C400.66 148.589 397.148 149.399 395.138 149.575C394.053 149.676 393.05 150.2 392.348 151.036C391.646 151.871 391.301 152.95 391.388 154.039L392.082 161.959C392.102 162.236 392.178 162.505 392.305 162.752C392.431 162.999 392.606 163.218 392.819 163.396C393.031 163.574 393.277 163.708 393.542 163.789C393.807 163.87 394.085 163.897 394.361 163.869L401.509 163.246C401.785 163.225 402.055 163.149 402.301 163.022C402.548 162.895 402.766 162.72 402.944 162.508C403.122 162.295 403.255 162.048 403.336 161.783C403.417 161.517 403.444 161.238 403.415 160.962L403.27 159.301C403.269 159.281 403.275 159.261 403.286 159.244C403.297 159.228 403.314 159.215 403.333 159.208C406.086 157.939 408.532 156.087 410.502 153.779C412.144 151.815 413.368 149.534 414.097 147.078C414.825 144.621 415.044 142.041 414.739 139.496C414.034 131.504 409.683 127.508 406.161 125.598Z" fill="#EBEBEB"/>
<path d="M398.443 165.478L397.811 165.529C396.418 165.713 395.149 166.428 394.27 167.525C393.391 168.623 392.969 170.019 393.091 171.421C393.214 172.823 393.873 174.123 394.93 175.051C395.987 175.978 397.36 176.46 398.764 176.397L399.386 176.345C400.098 176.283 400.791 176.081 401.425 175.751C402.059 175.421 402.623 174.968 403.082 174.42C403.542 173.871 403.89 173.238 404.105 172.555C404.32 171.872 404.399 171.153 404.338 170.439C404.276 169.726 404.074 169.031 403.744 168.396C403.415 167.76 402.963 167.196 402.416 166.735C401.868 166.274 401.236 165.926 400.554 165.71C399.872 165.495 399.155 165.415 398.443 165.478Z" fill="#EBEBEB"/>
<path d="M185.443 364.742C180.958 362.71 175.991 361.991 171.115 362.666C166.648 363.269 162.406 364.997 158.787 367.69C156.296 369.619 154.355 372.171 153.161 375.09C151.71 378.942 151.275 383.103 151.897 387.173C151.937 387.509 152.045 387.833 152.215 388.125C152.384 388.418 152.611 388.673 152.881 388.875C153.153 389.083 153.464 389.233 153.795 389.317C154.126 389.401 154.471 389.416 154.808 389.363L163.625 388.014C164.229 387.919 164.778 387.61 165.174 387.143C165.569 386.677 165.784 386.083 165.78 385.47C165.78 382.637 166.681 377.717 173.259 376.596C174.915 376.28 176.628 376.49 178.16 377.195C179.692 377.9 180.966 379.065 181.806 380.53C182.531 381.765 182.955 383.153 183.045 384.583C183.135 386.013 182.888 387.444 182.324 388.761C180.563 392.996 176.336 394.252 173.974 394.626C172.676 394.838 171.513 395.553 170.738 396.618C169.962 397.683 169.636 399.01 169.83 400.314L171.281 409.822C171.331 410.153 171.446 410.47 171.62 410.756C171.793 411.042 172.021 411.291 172.29 411.489C172.56 411.687 172.866 411.829 173.19 411.908C173.515 411.987 173.851 412.001 174.181 411.95L182.77 410.632C183.435 410.529 184.033 410.167 184.433 409.624C184.833 409.082 185.002 408.403 184.904 407.736L184.593 405.732C184.593 405.709 184.599 405.687 184.61 405.667C184.621 405.647 184.636 405.63 184.655 405.618C187.903 403.878 190.732 401.448 192.943 398.497C194.759 395.981 196.041 393.12 196.711 390.089C197.381 387.057 197.424 383.921 196.839 380.872C195.409 371.312 189.846 366.828 185.443 364.742Z" fill="#EBEBEB"/>
<path d="M179.227 413.58L178.481 413.694C176.753 413.958 175.2 414.9 174.164 416.311C173.129 417.722 172.695 419.488 172.959 421.219C173.223 422.951 174.162 424.507 175.571 425.544C176.979 426.582 178.742 427.016 180.47 426.752L181.226 426.638C182.955 426.372 184.507 425.43 185.541 424.017C186.576 422.605 187.008 420.839 186.743 419.107C186.478 417.376 185.537 415.82 184.127 414.784C182.718 413.747 180.955 413.314 179.227 413.58Z" fill="#EBEBEB"/>
<path d="M108.106 184.815C101.805 181.96 94.8285 180.942 87.9765 181.878C83.2524 182.615 76.4148 184.442 70.6651 188.967C67.1804 191.679 64.4657 195.258 62.7915 199.347C60.7598 204.759 60.1567 210.605 61.0407 216.319C61.0963 216.796 61.2475 217.258 61.4854 217.675C61.7233 218.093 62.0429 218.458 62.425 218.749C62.8072 219.039 63.244 219.25 63.7093 219.367C64.1746 219.485 64.6588 219.507 65.1329 219.433L77.513 217.512C78.362 217.378 79.1345 216.942 79.6898 216.285C80.2451 215.628 80.5461 214.792 80.5381 213.931C80.5381 209.956 81.7813 203.043 91.0223 201.475C93.3487 201.029 95.7562 201.319 97.91 202.307C100.064 203.295 101.857 204.931 103.04 206.987C104.062 208.72 104.662 210.67 104.791 212.679C104.921 214.688 104.576 216.7 103.786 218.55C101.33 224.508 95.3942 226.283 92.079 226.854C90.2468 227.146 88.6034 228.15 87.5055 229.648C86.4077 231.147 85.9441 233.018 86.2153 234.857L88.2873 248.216C88.4328 249.153 88.9431 249.994 89.7063 250.554C90.4695 251.115 91.4234 251.349 92.3587 251.206L104.428 249.327C105.363 249.181 106.202 248.67 106.761 247.905C107.321 247.14 107.555 246.185 107.412 245.248L106.977 242.435C106.974 242.402 106.981 242.37 106.998 242.342C107.015 242.314 107.04 242.292 107.07 242.279C111.605 239.813 115.55 236.388 118.632 232.241C123.811 225.235 125.666 216.921 124.205 207.537C122.133 194.012 114.301 187.722 108.106 184.815Z" fill="#EBEBEB"/>
<path d="M99.5175 253.437L98.4815 253.603C96.0526 253.978 93.8716 255.304 92.4184 257.289C90.9651 259.275 90.3586 261.757 90.7323 264.191C91.106 266.625 92.4292 268.81 94.4109 270.266C96.3927 271.722 98.8705 272.33 101.299 271.955L102.335 271.8C103.568 271.648 104.759 271.249 105.835 270.628C106.911 270.007 107.852 269.175 108.601 268.182C109.351 267.189 109.893 266.056 110.197 264.849C110.5 263.642 110.559 262.386 110.368 261.156C110.178 259.926 109.743 258.747 109.089 257.688C108.435 256.63 107.576 255.714 106.562 254.995C105.548 254.276 104.4 253.769 103.186 253.503C101.972 253.237 100.718 253.218 99.4968 253.448L99.5175 253.437Z" fill="#EBEBEB"/>
<path d="M282.577 100.218L291.901 101.775C297.679 108.697 305.831 113.203 314.756 114.408C323.681 115.613 332.733 113.429 340.132 108.287C347.532 103.144 352.745 95.4145 354.745 86.617C356.745 77.8195 355.389 68.5904 350.943 60.7438C346.497 52.8973 339.282 47.0008 330.717 44.2133C322.152 41.4258 312.856 41.949 304.657 45.68C296.457 49.411 289.947 56.08 286.406 64.3761C282.864 72.6722 282.548 81.9954 285.52 90.5131L282.577 100.218Z" fill="white"/>
<path d="M282.577 100.219C282.577 100.219 282.577 100.021 282.743 99.6062L283.271 97.7378C283.769 96.0666 284.484 93.5858 285.406 90.4718L285.468 90.2538L285.602 90.4407L285.406 90.5341C283.428 84.976 282.845 79.016 283.707 73.1788C284.286 69.3562 285.457 65.6476 287.177 62.1864C289.164 58.2552 291.85 54.7201 295.102 51.7545C298.72 48.4889 302.944 45.9704 307.534 44.3432C312.505 42.543 317.815 41.8798 323.074 42.4022C328.641 42.9772 334.006 44.8046 338.77 47.7479C343.781 50.8631 347.94 55.1795 350.87 60.3076C352.374 62.8904 353.567 65.6431 354.423 68.5078C354.631 69.2136 354.765 69.9506 354.931 70.6668C355.116 71.3908 355.254 72.1258 355.345 72.8674C355.439 73.6044 355.522 74.331 355.615 75.0576L355.739 76.0956V77.1958C355.916 82.8729 354.793 88.5152 352.455 93.6896C350.262 98.5501 347 102.851 342.914 106.27C339.158 109.432 334.812 111.813 330.129 113.277C325.888 114.588 321.442 115.105 317.014 114.802L313.978 114.45C312.942 114.315 312.031 114.045 311.077 113.858C309.266 113.438 307.492 112.868 305.773 112.156C300.341 109.916 295.539 106.377 291.787 101.848H291.849L284.898 100.686L283.126 100.364L282.536 100.239L283.168 100.322L284.981 100.603L291.891 101.641C295.652 106.096 300.438 109.569 305.835 111.761C307.543 112.465 309.307 113.02 311.109 113.422C312.051 113.609 312.994 113.858 313.978 113.993L316.983 114.335C321.347 114.601 325.724 114.074 329.901 112.778C334.55 111.344 338.868 108.998 342.603 105.876C346.63 102.506 349.851 98.2744 352.03 93.4924C354.328 88.388 355.427 82.8235 355.242 77.227V76.189L355.118 75.151C355.024 74.4348 354.941 73.7186 354.848 73.0023C354.748 72.282 354.606 71.5681 354.423 70.8641C354.247 70.1582 354.113 69.442 353.916 68.7881C353.08 65.9506 351.904 63.2251 350.414 60.6709C347.522 55.6279 343.429 51.3807 338.5 48.3084C333.783 45.3957 328.472 43.5862 322.96 43.0146C317.799 42.4804 312.585 43.0972 307.69 44.8207C303.161 46.4112 298.989 48.8802 295.413 52.0867C292.193 55.0069 289.529 58.4888 287.55 62.3629C285.83 65.7818 284.652 69.4484 284.059 73.2307C283.181 79.0165 283.717 84.9294 285.623 90.4615L285.892 91.2296L285.437 90.5653H285.623C284.66 93.6792 283.903 96.0978 283.396 97.7482C283.137 98.5578 282.94 99.1702 282.805 99.6166C282.671 100.063 282.577 100.219 282.577 100.219Z" fill="#263238"/>
<path d="M327.166 61.9267C324.725 60.3488 321.887 59.4959 318.982 59.4666C316.326 59.4395 313.707 60.0858 311.368 61.3454C309.747 62.2571 308.396 63.5821 307.452 65.186C306.275 67.3059 305.665 69.6943 305.68 72.1198C305.686 72.5092 305.841 72.8813 306.115 73.1578C306.386 73.4414 306.759 73.6057 307.151 73.6145H312.414C312.777 73.6155 313.128 73.4846 313.403 73.2461C313.677 73.0075 313.856 72.6775 313.906 72.317C313.947 71.6773 314.113 71.0519 314.396 70.4767C314.678 69.9016 315.072 69.3881 315.553 68.9656C316.034 68.5432 316.594 68.2202 317.2 68.0151C317.807 67.81 318.447 67.7269 319.086 67.7706C320.079 67.7291 321.061 67.9986 321.895 68.5418C322.728 69.085 323.372 69.8748 323.737 70.8016C324.056 71.5843 324.185 72.4314 324.115 73.2738C324.045 74.1162 323.777 74.93 323.333 75.649C322.748 76.5261 321.946 77.2366 321.006 77.7114C320.066 78.1861 319.019 78.4089 317.967 78.3582C317.187 78.3664 316.443 78.6831 315.895 79.2393C315.348 79.7954 315.043 80.5458 315.045 81.3269V86.9943C315.045 87.1915 315.084 87.3867 315.16 87.5687C315.236 87.7508 315.346 87.916 315.486 88.0549C315.626 88.1939 315.791 88.3038 315.973 88.3783C316.156 88.4528 316.351 88.4904 316.548 88.489H321.676C321.881 88.4962 322.085 88.4612 322.276 88.3862C322.467 88.3111 322.641 88.1976 322.787 88.0527C322.932 87.9078 323.047 87.7345 323.123 87.5435C323.199 87.3526 323.235 87.148 323.23 86.9424V85.7487C323.229 85.7339 323.235 85.7194 323.244 85.708C323.254 85.6966 323.267 85.6889 323.281 85.6865C325.316 84.9401 327.164 83.7608 328.7 82.2299C329.978 80.9259 330.978 79.3741 331.637 77.6696C332.296 75.9651 332.601 74.1437 332.533 72.317C332.608 70.2686 332.153 68.2356 331.213 66.4152C330.272 64.5947 328.879 63.0486 327.166 61.9267Z" fill="#FB7571"/>
<path d="M319.386 89.9009H318.941C317.944 89.9587 317.007 90.3979 316.324 91.1278C315.641 91.8578 315.264 92.8227 315.27 93.8232C315.277 94.8238 315.667 95.7835 316.36 96.5043C317.052 97.225 317.995 97.6517 318.992 97.6962H319.438C320.435 97.6447 321.374 97.2115 322.062 96.4862C322.749 95.7609 323.132 94.7988 323.132 93.7986C323.132 92.7983 322.749 91.8362 322.062 91.1109C321.374 90.3856 320.435 89.9524 319.438 89.9009H319.386Z" fill="#FB7571"/>
<path d="M333.683 147.012C309.223 130.528 280.132 124.653 261.08 124.653C243.22 124.653 216.957 127.477 193.181 140.908C178.745 148.937 166.667 160.624 158.155 174.799C148.126 191.552 142.687 212.281 142.014 236.415C141.964 238.205 142.273 239.987 142.924 241.655C143.575 243.323 144.554 244.844 145.802 246.126C147.051 247.407 148.543 248.425 150.192 249.118C151.841 249.81 153.611 250.164 155.399 250.158H202.215C205.424 250.144 208.522 248.976 210.944 246.867C213.366 244.759 214.952 241.849 215.414 238.667C217.486 223.959 226.209 199.223 261.236 198.59C287.913 198.133 298.925 217.492 302.427 225.837C308.114 239.414 306.664 255.514 298.563 268.904C286.131 289.487 263.194 292.632 250.648 292.674C243.721 292.693 237.083 295.454 232.179 300.356C227.275 305.257 224.504 311.902 224.468 318.842V369.309C224.474 372.853 225.881 376.251 228.383 378.757C230.884 381.263 234.275 382.673 237.812 382.679H283.396C286.933 382.673 290.324 381.263 292.825 378.757C295.326 376.251 296.734 372.853 296.739 369.309V358.67C296.737 358.547 296.774 358.426 296.845 358.325C296.916 358.225 297.016 358.149 297.133 358.109C315.283 351.635 331.802 341.266 345.534 327.727C368.523 304.798 380.209 275.194 380.209 239.778C380.209 189.009 354.9 161.315 333.683 147.012Z" fill="#FB7571"/>
<path d="M259.412 406.179H263.142C267.505 406.101 271.839 406.895 275.892 408.514C279.945 410.133 283.635 412.545 286.748 415.609C289.86 418.672 292.332 422.326 294.02 426.358C295.708 430.389 296.577 434.717 296.577 439.089C296.577 443.46 295.708 447.788 294.02 451.82C292.332 455.851 289.86 459.505 286.748 462.569C283.635 465.632 279.945 468.044 275.892 469.663C271.839 471.282 267.505 472.076 263.142 471.998H259.412C250.802 471.845 242.596 468.311 236.561 462.155C230.526 456 227.145 447.717 227.145 439.089C227.145 430.46 230.526 422.177 236.561 416.022C242.596 409.867 250.802 406.332 259.412 406.179Z" fill="#263238"/>
<path d="M237.584 392.363H283.168C286.648 392.416 290.008 391.082 292.508 388.655C295.007 386.229 296.444 382.907 296.501 379.419V358.826C296.503 358.703 296.544 358.585 296.616 358.486C296.688 358.388 296.789 358.314 296.905 358.275C304.413 355.578 311.607 352.074 318.361 347.823C289.239 347.626 236.144 347.325 224.251 347.761V379.451C224.316 382.932 225.756 386.246 228.255 388.667C230.754 391.087 234.109 392.416 237.584 392.363Z" fill="#263238"/>
<path d="M275.129 163.775L245.872 78.6595C239.656 57.3494 222.169 43.1912 201.076 49.9693L199.17 50.7063C189.887 54.2971 182.294 61.2581 177.902 70.2039C173.51 79.1497 172.64 89.4244 175.466 98.9835C180.926 117.429 187.183 137.732 191.006 147.282C198.911 167.055 219.599 161.502 219.599 161.502C219.599 161.502 224.21 174.685 226.199 180.601L236.921 191.21L241.345 186.362L275.129 163.775Z" fill="#FFBF9D"/>
<path d="M219.63 161.502C219.63 161.502 232.415 157.35 242.495 143.856C242.495 143.856 242.049 161.191 221.578 167.066L219.63 161.502Z" fill="#FF9A6C"/>
<path d="M189.773 112.426C190.053 113.166 190.61 113.769 191.325 114.106C192.04 114.443 192.858 114.488 193.606 114.232C193.978 114.122 194.324 113.939 194.623 113.692C194.923 113.446 195.171 113.143 195.351 112.799C195.532 112.456 195.642 112.079 195.675 111.693C195.708 111.306 195.663 110.916 195.544 110.547C195.266 109.805 194.709 109.201 193.993 108.863C193.277 108.526 192.458 108.482 191.71 108.741C191.339 108.851 190.993 109.034 190.693 109.28C190.394 109.527 190.146 109.83 189.966 110.174C189.785 110.517 189.675 110.893 189.642 111.28C189.609 111.667 189.653 112.057 189.773 112.426Z" fill="#263238"/>
<path d="M182.739 105.16C183.226 105.399 184.811 102.98 187.815 101.807C190.82 100.634 193.679 101.298 193.865 100.769C193.969 100.541 193.347 100.001 192.104 99.6688C190.433 99.2688 188.679 99.392 187.08 100.022C185.496 100.625 184.143 101.715 183.215 103.136C182.563 104.277 182.5 105.066 182.739 105.16Z" fill="#263238"/>
<path d="M215.248 102.305C215.745 102.544 217.32 100.115 220.324 98.9524C223.329 97.7898 226.199 98.4438 226.385 97.9144C226.478 97.686 225.867 97.1567 224.624 96.8764C222.949 96.4763 221.192 96.5994 219.589 97.2293C218.01 97.8359 216.661 98.9254 215.735 100.343C215.072 101.412 215.01 102.212 215.248 102.305Z" fill="#263238"/>
<path d="M210.99 121.996C210.99 121.819 208.918 122.224 205.696 123.034C204.888 123.262 204.091 123.387 203.759 122.909C203.38 122.13 203.25 121.253 203.386 120.397C203.386 118.224 203.386 115.948 203.386 113.567C203.324 103.883 202.951 96.0355 202.568 96.0459C202.184 96.0563 201.915 103.904 201.977 113.598C201.977 115.972 202.008 118.245 202.07 120.418C201.946 121.549 202.221 122.687 202.847 123.636C203.065 123.868 203.334 124.047 203.632 124.159C203.931 124.271 204.25 124.312 204.567 124.279C205.043 124.233 205.51 124.121 205.955 123.947C209.126 122.899 211.042 122.172 210.99 121.996Z" fill="#263238"/>
<path d="M208.235 85.1162C208.949 85.7286 211.591 83.7668 215.155 82.3032C218.719 80.8396 221.941 80.2272 222.003 79.2826C222.003 78.8363 221.133 78.3692 219.62 78.2446C217.65 78.1435 215.683 78.4918 213.867 79.2632C212.051 80.0345 210.433 81.2088 209.136 82.6976C208.152 83.8913 207.882 84.8463 208.235 85.1162Z" fill="#263238"/>
<path d="M179.133 96.2435C180.024 96.7002 182.241 95.0601 185.246 93.9183C188.25 92.7766 190.954 92.3821 191.275 91.3441C191.4 90.8978 190.737 90.3061 189.39 90.0985C187.557 89.8383 185.689 90.0785 183.982 90.794C182.259 91.448 180.748 92.5606 179.61 94.0118C178.812 95.1639 178.729 96.0047 179.133 96.2435Z" fill="#263238"/>
<path d="M249.602 93.0358C249.881 92.7555 261.671 83.6938 266.468 97.468C271.264 111.242 256.512 113.214 256.346 112.83C256.18 112.446 249.602 93.0358 249.602 93.0358Z" fill="#FFBF9D"/>
<path d="M258.718 106.156C258.718 106.084 259.019 106.239 259.485 106.281C260.14 106.323 260.785 106.112 261.288 105.689C262.552 104.651 262.966 101.911 262.168 99.4613C261.786 98.2731 261.146 97.1846 260.293 96.2746C260.017 95.8889 259.65 95.5767 259.226 95.3651C258.802 95.1534 258.332 95.0488 257.859 95.0602C257.559 95.0849 257.277 95.2134 257.061 95.4237C256.846 95.6339 256.71 95.9128 256.678 96.2124C256.678 96.6587 256.812 96.9078 256.74 96.9597C256.667 97.0116 256.367 96.8248 256.284 96.2227C256.243 95.8597 256.327 95.4936 256.522 95.1847C256.799 94.7631 257.231 94.4683 257.724 94.3647C258.325 94.2801 258.937 94.3511 259.503 94.571C260.069 94.7908 260.569 95.1522 260.956 95.6207C261.957 96.6063 262.704 97.8211 263.132 99.1603C264.012 101.963 263.494 105.056 261.712 106.322C261.382 106.559 261.003 106.718 260.603 106.788C260.203 106.858 259.793 106.837 259.402 106.727C258.863 106.478 258.677 106.198 258.718 106.156Z" fill="#FF9A6C"/>
<path d="M221.34 120.616C220.863 120.74 221.909 123.916 219.951 127.072C217.993 130.227 214.512 131.016 214.637 131.473C214.637 131.681 215.59 131.836 217.03 131.39C218.891 130.798 220.483 129.566 221.526 127.913C222.535 126.323 222.881 124.4 222.49 122.557C222.168 121.186 221.557 120.522 221.34 120.616Z" fill="#263238"/>
<path d="M141.206 89.3303C141.17 88.4368 141.477 87.5636 142.066 86.891C143.309 85.4066 145.174 84.898 146.893 84.2441C151.215 82.6136 155.111 80.0229 158.289 76.6667C156.698 76.4771 155.146 76.0393 153.689 75.3692C150.695 73.9368 148.23 70.9992 148.199 67.6673C148.167 67.3574 148.206 67.0444 148.312 66.7515C148.418 66.4586 148.588 66.1933 148.81 65.9753C149.608 65.3837 150.695 65.9753 151.566 66.4632C154.404 68.0306 156.642 68.342 159.574 66.9614C161.366 66.2002 162.963 65.0435 164.246 63.5776C164.246 63.4945 164.308 63.4115 164.35 63.3284C164.806 62.2904 165.251 61.3874 165.697 60.4636C169.053 53.509 172.244 48.3917 176.16 44.8936C181.91 39.8282 192.736 34.7835 200.34 34.1503C207.944 33.5172 216.232 36.9841 219.724 43.8037C222.469 39.1016 228.353 37.0567 233.803 37.2955L233.896 37.2021C239.874 37.2021 244.867 41.7796 248.348 46.6478L248.897 47.4575C251.695 49.6979 254.988 51.2322 258.501 51.9312C259.122 52.0454 259.837 52.2115 260.107 52.772C260.194 53.0738 260.202 53.3931 260.129 53.6987C260.056 54.0044 259.906 54.2859 259.692 54.5159C258.732 55.878 257.479 57.0062 256.025 57.8167C256.973 58.9391 258.012 59.9807 259.133 60.9307C260.096 61.7299 261.205 62.6953 261.08 63.9409C260.978 64.4163 260.733 64.8487 260.377 65.1793C260.021 65.5098 259.572 65.7226 259.091 65.7885C258.131 65.9072 257.157 65.8223 256.232 65.5394L259.506 69.1828C257.688 70.1841 255.663 70.749 253.59 70.8332C254.253 76.3034 256.698 85.9983 256.615 89.8908C253 91.2402 251.974 91.1572 250.348 92.4235C248.276 94.0428 250.638 97.9353 247.126 97.8315C245.344 97.8315 240.827 92.6415 239.739 91.2402C232.484 81.7746 227.343 70.8576 224.665 59.2284C221.632 57.6563 218.326 56.6804 214.927 56.3531L215.238 56.488C208.939 56.488 201.925 56.8306 197.533 61.3459C194.124 64.8543 193.213 69.9924 191.317 74.5077C187.774 83.1231 182.335 88.9255 173.788 92.382C175.134 98.7242 178.398 108.73 180.087 114.491L171.281 104.869C170.677 104.352 170.099 103.804 169.55 103.229L169.374 103.063C168.504 102.16 167.655 101.246 166.66 100.395V100.468C164.588 104.257 158.59 101.714 159.843 97.5616C160.088 96.7346 160.458 95.9503 160.941 95.2365C160.487 96.152 159.803 96.9336 158.957 97.5049C158.111 98.0762 157.131 98.4176 156.114 98.4958C155.093 98.5373 154.087 98.2418 153.251 97.6549C152.414 97.0679 151.793 96.2219 151.483 95.2469C151.333 94.5711 151.362 93.8677 151.567 93.2066C151.772 92.5456 152.147 91.9499 152.653 91.4789C150.234 92.55 147.552 92.8787 144.946 92.4235C143.205 92.1225 141.351 91.2817 141.206 89.3303Z" fill="#263238"/>
<path d="M214.264 48.3916C215.179 48.6988 216.07 49.0771 216.926 49.523C219.185 50.8872 221.052 52.8149 222.345 55.1178C223.284 56.6727 224.058 58.3217 224.655 60.0379C225.318 61.8959 225.867 63.9304 226.458 66.0687C227.045 68.3262 227.771 70.5448 228.633 72.7119C229.106 73.8592 229.663 74.9695 230.301 76.0335C230.916 77.1878 231.81 78.1692 232.901 78.888C233.384 79.1637 233.931 79.3087 234.486 79.3087C235.042 79.3087 235.589 79.1637 236.072 78.888C237.005 78.3656 237.735 77.5426 238.144 76.5525C238.709 74.6658 238.756 72.6611 238.278 70.7501L237.874 70.9577C239.014 72.257 240.337 73.383 241.801 74.3C243.196 75.1431 244.862 75.4145 246.452 75.0578C247.19 74.8767 247.864 74.4961 248.4 73.9575C248.887 73.4381 249.204 72.783 249.312 72.0787C249.421 71.4292 249.353 70.7619 249.115 70.148C248.884 69.5768 248.463 69.1035 247.923 68.809L247.768 69.0789C249.448 70.0257 251.308 70.6091 253.228 70.7916C253.731 70.8233 254.236 70.8233 254.74 70.7916C254.912 70.8071 255.086 70.8071 255.258 70.7916C255.086 70.7781 254.913 70.7781 254.74 70.7916C254.398 70.7916 253.891 70.7916 253.238 70.667C251.362 70.4212 249.555 69.7999 247.923 68.8402L247.778 69.11C248.255 69.4159 248.626 69.8632 248.837 70.3897C249.049 70.9162 249.092 71.4957 248.959 72.0476C248.856 72.6803 248.563 73.2667 248.12 73.7291C247.634 74.2088 247.024 74.5431 246.359 74.6945C244.87 75.0101 243.317 74.7427 242.018 73.9471C240.583 73.0197 239.292 71.8866 238.185 70.584L237.677 70.0442L237.781 70.7812C238.232 72.6071 238.189 74.5204 237.657 76.3241C237.296 77.2002 236.655 77.9308 235.833 78.4001C235.424 78.637 234.959 78.7617 234.486 78.7617C234.014 78.7617 233.549 78.637 233.14 78.4001C232.13 77.7395 231.3 76.8369 230.726 75.774C230.099 74.7323 229.549 73.6465 229.079 72.525C228.222 70.3773 227.495 68.1797 226.903 65.9441C226.292 63.8059 225.732 61.7921 225.049 59.903C224.423 58.1659 223.618 56.4995 222.645 54.931C221.3 52.5998 219.353 50.6744 217.009 49.3569C216.155 48.882 215.227 48.5556 214.264 48.3916Z" fill="#455A64"/>
<path d="M159.066 89.8702C159.066 89.8702 159.128 89.8702 159.273 89.9532L159.905 90.1401C160.244 90.2495 160.59 90.3328 160.941 90.3892C161.42 90.4882 161.904 90.5576 162.392 90.5968C165.51 90.8722 168.648 90.362 171.519 89.1124C175.804 87.2813 179.464 84.241 182.055 80.3621C185.167 75.6067 187.282 70.2671 188.271 64.6676C188.872 61.7197 189.182 58.8029 189.68 56.0419C190.088 53.372 190.876 50.7747 192.021 48.3295C193.046 46.1274 194.607 44.2181 196.559 42.7763C197.458 42.153 198.447 41.6701 199.491 41.3438C200.458 41.0667 201.458 40.9167 202.464 40.8975C204.21 40.8777 205.941 41.2316 207.54 41.9355C208.749 42.4653 209.862 43.1913 210.835 44.0841C211.62 44.8874 212.315 45.7751 212.907 46.731C212.885 46.6581 212.853 46.5884 212.813 46.5234L212.503 45.9421C212.062 45.2145 211.537 44.542 210.938 43.9388C209.963 43.0097 208.843 42.2455 207.623 41.676C205.996 40.9332 204.231 40.5441 202.443 40.5342C201.392 40.5379 200.347 40.6846 199.335 40.9701C198.248 41.2871 197.22 41.7779 196.289 42.4233C194.262 43.8956 192.638 45.8553 191.565 48.1219C190.395 50.5985 189.585 53.2308 189.162 55.9381C188.654 58.7303 188.343 61.6367 187.742 64.5638C186.778 70.1083 184.714 75.4028 181.672 80.1338C179.142 83.9594 175.567 86.9752 171.374 88.8218C168.554 90.0783 165.472 90.6338 162.392 90.4411C161.273 90.3137 160.163 90.1231 159.066 89.8702Z" fill="#455A64"/>
<path d="M154.125 81.6801C154.412 81.8046 154.715 81.8884 155.026 81.9292C155.852 82.1033 156.69 82.2144 157.533 82.2614C158.79 82.3446 160.052 82.3168 161.304 82.1783C164.38 81.8558 167.359 80.9093 170.058 79.3965C171.153 78.798 172.193 78.1033 173.166 77.3205C173.831 76.7947 174.454 76.2187 175.031 75.5974C175.435 75.1511 175.652 74.902 175.621 74.8812C175.59 74.8604 174.648 75.7739 172.959 77.0402C171.968 77.7695 170.93 78.4318 169.851 79.0228C168.517 79.7145 167.132 80.301 165.707 80.777C164.265 81.2209 162.789 81.5438 161.294 81.7424C160.067 81.9002 158.831 81.9627 157.595 81.9292C155.399 81.8565 154.145 81.5867 154.125 81.6801Z" fill="#455A64"/>
<path d="M191.658 225.568C191.482 225.619 193.834 237.401 196.134 249.628H196.859C194.601 237.401 191.886 225.516 191.658 225.568Z" fill="#263238"/>
<path d="M201.625 250.21C208.276 250.21 214.399 245.414 215.331 238.875C217.403 224.187 225.774 199.337 261.039 198.735C287.902 198.268 299.205 217.326 302.375 225.796C307.4 239.29 306.778 255.566 298.614 268.945C286.079 289.487 263.007 292.632 250.379 292.674C243.434 292.666 236.767 295.408 231.832 300.304C226.897 305.2 224.094 311.853 224.033 318.811V373.679L296.791 372.309V358.608C296.795 358.483 296.837 358.363 296.911 358.262C296.985 358.162 297.088 358.087 297.206 358.047C311.289 353.14 324.398 345.782 335.931 336.311L331.196 273.118C331.196 273.118 345.037 246.452 344.354 240.452C338.086 185.646 319.49 154.631 311.917 151.745C303.421 148.496 270.653 150.074 270.653 150.074C270.653 150.074 256.491 176.356 236.631 179.273C225.577 180.902 221.547 167.118 221.547 167.118L195.875 182.19C177.6 191.428 174.057 227.353 173.726 250.251L201.625 250.21Z" fill="#455A64"/>
<g opacity="0.3">
<path d="M285.934 282.501C300.603 286.238 315.066 290.972 329.736 294.719C330.851 294.881 331.89 295.385 332.709 296.162C333.745 297.417 333.548 299.276 333.061 300.905C331.371 305.935 328.327 310.4 324.265 313.807C321.075 316.61 317.252 318.997 313.015 319.319C308.301 319.683 303.763 317.492 299.775 314.939C289.436 308.294 281.034 299.031 275.418 288.086C275.418 288.086 278.858 286.664 281.479 285.263C283.014 284.427 284.502 283.505 285.934 282.501Z" fill="black"/>
</g>
<path d="M302.075 226.17C307.938 239.736 306.447 255.815 298.086 269.184C293.917 275.98 288.069 281.582 281.106 285.45C287.414 292.54 294.429 298.964 302.044 304.621C309.534 309.946 326.804 308.431 333.351 296.774C341.422 282.388 342.105 245.632 342.105 245.632L343.639 223.471L298.469 216.547L298.107 217.783C299.688 220.448 301.017 223.256 302.075 226.17Z" fill="#FFBF9D"/>
<path d="M223.422 216.858L220.853 220.927C218.895 222.277 217.04 221.529 215.828 219.028L188.022 176.626L194.767 172.308L225.473 212.966C225.473 212.966 225.94 215.125 223.422 216.858Z" fill="#455A64"/>
<path d="M159.191 175.899C154.949 173.493 151.335 170.117 148.643 166.047C145.95 161.976 144.256 157.326 143.696 152.475C143.137 147.624 143.73 142.709 145.426 138.131C147.121 133.553 149.872 129.441 153.455 126.13C157.037 122.818 161.35 120.402 166.041 119.077C170.732 117.752 175.669 117.556 180.45 118.504C185.231 119.453 189.72 121.52 193.553 124.537C197.386 127.553 200.453 131.434 202.505 135.863C205.265 141.82 206.066 148.501 204.793 154.943C203.519 161.384 200.237 167.255 195.42 171.708C190.602 176.16 184.498 178.966 177.987 179.719C171.476 180.472 164.894 179.135 159.191 175.899ZM188.654 123.75C182.667 120.363 175.669 119.231 168.922 120.557C162.176 121.884 156.123 125.581 151.857 130.983C147.591 136.385 145.391 143.137 145.654 150.02C145.917 156.904 148.626 163.467 153.292 168.527C157.958 173.586 164.275 176.809 171.103 177.614C177.932 178.42 184.822 176.754 190.534 172.919C196.245 169.083 200.401 163.33 202.252 156.696C204.103 150.061 203.528 142.982 200.63 136.735C198.091 131.259 193.903 126.718 188.654 123.75Z" fill="#263238"/>
<path d="M160.506 174.591C156.264 172.186 152.648 168.81 149.954 164.739C147.261 160.668 145.565 156.017 145.006 151.165C144.446 146.313 145.039 141.397 146.735 136.818C148.431 132.239 151.183 128.127 154.767 124.815C158.35 121.504 162.664 119.088 167.356 117.763C172.048 116.439 176.987 116.244 181.768 117.195C186.55 118.145 191.04 120.214 194.872 123.233C198.704 126.252 201.771 130.135 203.821 134.566C206.585 140.522 207.388 147.204 206.116 153.648C204.843 160.091 201.561 165.963 196.742 170.416C191.923 174.869 185.816 177.673 179.303 178.424C172.791 179.174 166.208 177.832 160.506 174.591ZM189.97 122.484C183.98 119.092 176.977 117.955 170.225 119.279C163.472 120.603 157.414 124.301 153.142 129.705C148.87 135.109 146.666 141.865 146.926 148.754C147.186 155.643 149.895 162.212 154.562 167.277C159.23 172.342 165.55 175.57 172.383 176.378C179.216 177.187 186.113 175.523 191.83 171.687C197.547 167.85 201.707 162.094 203.562 155.455C205.417 148.816 204.844 141.732 201.946 135.479C199.407 130.001 195.219 125.456 189.97 122.484Z" fill="#455A64"/>
<path d="M201.49 148.05C201.477 147.88 201.477 147.71 201.49 147.541C201.495 147.056 201.474 146.571 201.428 146.088C201.296 144.322 200.948 142.579 200.392 140.898C200.017 139.725 199.567 138.577 199.045 137.462C198.426 136.195 197.716 134.974 196.921 133.808C195.115 131.121 192.878 128.75 190.301 126.792C188.959 125.795 187.523 124.933 186.012 124.217C184.599 123.57 183.133 123.046 181.63 122.65C179.075 121.985 176.434 121.716 173.798 121.851C172.016 121.934 170.248 122.209 168.525 122.671C167.914 122.806 167.489 122.992 167.137 123.076C166.975 123.131 166.808 123.173 166.639 123.2C166.79 123.126 166.946 123.064 167.106 123.013C167.427 122.909 167.883 122.702 168.494 122.546C170.213 122.03 171.986 121.717 173.777 121.612C176.441 121.452 179.114 121.701 181.703 122.349C183.23 122.745 184.721 123.273 186.157 123.927C187.688 124.646 189.143 125.519 190.498 126.532C191.853 127.546 193.112 128.682 194.259 129.926C195.33 131.081 196.307 132.321 197.18 133.632C197.953 134.823 198.645 136.065 199.252 137.348C199.771 138.476 200.214 139.638 200.579 140.825C201.116 142.542 201.429 144.322 201.511 146.119C201.563 146.752 201.511 147.25 201.511 147.583C201.513 147.739 201.506 147.895 201.49 148.05Z" fill="white"/>
<path d="M169.198 173.346C169.198 173.273 170.628 173.792 173.011 174.124L173.953 174.239C174.275 174.239 174.616 174.239 174.989 174.29C175.694 174.353 176.45 174.29 177.238 174.29C178.959 174.193 180.666 173.925 182.335 173.491C183.99 173.024 185.596 172.399 187.131 171.623C187.825 171.228 188.499 170.886 189.079 170.481C189.379 170.284 189.669 170.107 189.939 169.92L190.685 169.35C192.581 167.865 193.544 166.703 193.596 166.755C193.396 167.044 193.171 167.315 192.922 167.564C192.658 167.879 192.371 168.174 192.063 168.447C191.67 168.814 191.259 169.161 190.83 169.485L190.084 170.087C189.825 170.284 189.524 170.471 189.234 170.668C188.603 171.097 187.95 171.492 187.276 171.851C185.726 172.655 184.098 173.299 182.418 173.771C180.723 174.211 178.987 174.472 177.238 174.55C176.478 174.592 175.718 174.592 174.958 174.55C174.596 174.55 174.254 174.55 173.922 174.467L172.98 174.332C172.439 174.256 171.903 174.152 171.374 174.021C170.971 173.93 170.574 173.819 170.182 173.688C169.846 173.599 169.517 173.485 169.198 173.346Z" fill="white"/>
<path d="M190.488 153.437C190.426 153.499 186.344 149.451 181.475 144.396C176.606 139.341 172.638 135.189 172.71 135.127C172.783 135.064 176.802 139.113 181.713 144.168C186.624 149.223 190.55 153.364 190.488 153.437Z" fill="white"/>
<path d="M185.722 161.554C185.619 161.465 185.522 161.367 185.432 161.264L184.634 160.402L181.754 157.184C179.32 154.465 175.953 150.718 172.182 146.628C168.411 142.538 164.93 138.853 162.454 136.248C161.221 134.95 160.216 133.881 159.491 133.134C159.159 132.781 158.89 132.501 158.693 132.272C158.591 132.18 158.5 132.076 158.424 131.961C158.538 132.037 158.643 132.128 158.735 132.231L159.574 133.051C160.309 133.767 161.345 134.815 162.62 136.113C165.168 138.729 168.649 142.341 172.43 146.493C176.212 150.645 179.537 154.361 181.931 157.122C183.122 158.503 184.085 159.624 184.738 160.412L185.484 161.316C185.572 161.386 185.652 161.466 185.722 161.554Z" fill="white"/>
<g opacity="0.3">
<path d="M160.485 123.574L198.496 164.938C198.496 164.938 195.388 169.246 192.601 171.166L153.793 128.836C155.665 126.667 157.938 124.881 160.485 123.574Z" fill="white"/>
</g>
<g opacity="0.3">
<path d="M150.53 133.56L187.908 173.865C187.908 173.865 188.25 174.052 185.67 174.706L149.473 135.604C149.666 134.851 150.027 134.152 150.53 133.56Z" fill="white"/>
</g>
<path d="M248.918 200.054C240.93 193.628 221.371 177.924 220.47 177.498C219.351 176.979 202.132 170.844 198.828 172.817C195.523 174.789 186.686 185.906 186.686 185.906C186.686 185.906 187.525 192.819 195.243 187.868L202.143 183.446L210.348 185.366C210.348 185.366 200.34 189.518 198.227 191.76C196.113 194.002 192.767 202.379 194.849 204.32C196.098 205.466 197.674 206.192 199.356 206.396C199.356 206.396 195.212 212.271 202.557 215.821C202.557 215.821 203.593 220.762 207.24 222.692C210.887 224.623 217.6 223.948 217.6 223.948C218.019 223.716 218.38 223.392 218.656 223C218.932 222.608 219.116 222.158 219.194 221.685C219.272 221.211 219.241 220.726 219.105 220.266C218.969 219.806 218.731 219.383 218.408 219.028C216.087 215.966 211.809 215.541 211.809 215.541L217.113 212.427C219.594 213.382 221.903 214.735 223.95 216.433C226.792 212.833 230.039 209.573 233.627 206.718C239.024 202.825 248.918 200.054 248.918 200.054Z" fill="#FFBF9D"/>
<path d="M214.979 202.659C214.717 202.627 214.453 202.627 214.191 202.659C213.487 202.758 212.794 202.921 212.119 203.147C209.843 203.88 207.794 205.192 206.175 206.955C204.555 208.718 203.419 210.871 202.878 213.205C202.717 213.908 202.617 214.623 202.578 215.343C202.54 215.605 202.54 215.871 202.578 216.132C202.661 216.132 202.671 215.011 203.137 213.278C203.734 211.018 204.871 208.938 206.45 207.218C208.03 205.498 210.004 204.189 212.202 203.406C213.87 202.846 214.989 202.732 214.979 202.659Z" fill="#FF9A6C"/>
<path d="M215.331 193.722C215.05 193.707 214.768 193.728 214.492 193.784C214.164 193.813 213.839 193.865 213.518 193.939C213.088 194.018 212.663 194.119 212.244 194.241C211.142 194.549 210.071 194.955 209.042 195.455C207.787 196.073 206.594 196.81 205.479 197.656C204.38 198.521 203.364 199.487 202.443 200.541C201.699 201.409 201.037 202.344 200.464 203.333C200.205 203.749 200.019 204.143 199.843 204.496C199.687 204.787 199.552 205.089 199.439 205.399C199.319 205.654 199.228 205.922 199.169 206.198C199.242 206.198 199.677 205.108 200.703 203.479C201.297 202.525 201.969 201.622 202.713 200.78C203.632 199.758 204.637 198.817 205.717 197.967C206.858 197.048 208.07 196.222 209.343 195.496C210.301 195.063 211.296 194.715 212.316 194.458C214.15 193.939 215.341 193.794 215.331 193.722Z" fill="#FF9A6C"/>
<path d="M216.833 183.456C216.488 183.277 216.102 183.191 215.714 183.207C214.784 183.155 213.854 183.322 213 183.695C212.122 184.022 211.348 184.582 210.762 185.314C210.306 185.854 210.13 186.269 210.172 186.29C210.969 185.311 211.992 184.542 213.153 184.049C214.314 183.555 215.577 183.352 216.833 183.456Z" fill="#FF9A6C"/>
<path d="M308.726 150.925C308.726 150.925 333.994 153.354 342.012 175.349C348.373 192.808 351.833 245.113 350.238 246.172L305.618 244.75C305.038 231.993 301.609 222.163 296.802 215.8L308.726 150.925Z" fill="#455A64"/>
<path d="M306.322 244.75C306.639 244.866 306.936 245.03 307.203 245.237C307.741 245.57 308.508 246.099 309.44 246.784C311.847 248.58 314.115 250.554 316.226 252.69C318.36 254.828 320.354 257.103 322.194 259.499C322.888 260.423 323.426 261.171 323.789 261.71C323.995 261.974 324.166 262.264 324.297 262.572C323.444 261.673 322.641 260.727 321.893 259.738C320.422 257.984 318.36 255.586 315.895 253.105C313.796 250.988 311.579 248.992 309.254 247.127C307.42 245.653 306.281 244.812 306.322 244.75Z" fill="#FF9A6C"/>
<path d="M301.007 190.992C301.153 190.992 300.334 196.597 299.184 203.448C298.034 210.299 296.967 215.852 296.822 215.831C296.677 215.81 297.495 210.216 298.645 203.375C299.795 196.535 300.862 190.919 301.007 190.992Z" fill="#263238"/>
<path d="M244.867 347.792C245.107 347.725 245.354 347.687 245.603 347.677L247.737 347.459L255.59 346.722C262.21 346.079 271.347 345.124 281.427 343.847C291.508 342.57 300.593 341.221 307.161 340.183L314.952 338.948L317.024 338.626C317.269 338.573 317.519 338.545 317.77 338.543C317.535 338.629 317.292 338.692 317.045 338.73L314.973 339.155C313.149 339.508 310.497 339.996 307.213 340.557C300.655 341.688 291.559 343.11 281.479 344.387C271.399 345.664 262.241 346.556 255.579 347.096C252.264 347.366 249.571 347.563 247.716 347.667L245.572 347.792C245.337 347.81 245.102 347.81 244.867 347.792Z" fill="#263238"/>
<path d="M240.92 341.107C241.53 341.009 242.146 340.954 242.764 340.941L247.778 340.671L264.354 339.82L280.93 338.865L285.944 338.584C286.558 338.541 287.174 338.541 287.788 338.584C287.188 338.718 286.579 338.802 285.965 338.833C284.784 338.958 283.074 339.114 280.961 339.29C276.724 339.633 270.87 340.048 264.385 340.401C257.9 340.754 252.057 340.982 247.809 341.096C245.737 341.159 243.976 341.19 242.785 341.19C242.162 341.214 241.538 341.186 240.92 341.107Z" fill="#263238"/>
<path d="M169.903 246.473C170.056 245.836 170.327 245.235 170.7 244.698C171.189 243.966 171.854 243.369 172.633 242.963C173.412 242.556 174.281 242.353 175.16 242.371C176.038 242.39 176.898 242.63 177.659 243.069C178.421 243.508 179.06 244.133 179.517 244.884C179.519 244.172 179.755 243.481 180.19 242.918C180.625 242.355 181.233 241.951 181.92 241.77C182.545 241.622 183.198 241.64 183.814 241.822C184.43 242.004 184.988 242.344 185.432 242.808C186.35 243.568 186.988 244.613 187.245 245.777C188.281 243.338 193.917 243.639 194.601 245.466C194.601 245.466 199.408 240.193 201.853 242.788C202.889 243.826 202.443 245.518 201.76 247.178C200.858 249.389 200.268 250.292 199.087 252.742L194.528 252.991C194.145 254.413 193.337 260.257 193.171 261.69C193.066 263.168 192.642 264.606 191.928 265.904C191.562 266.548 191.04 267.09 190.41 267.478C189.78 267.867 189.062 268.089 188.323 268.125C187.582 268.125 186.871 267.836 186.341 267.318C185.81 266.8 185.503 266.095 185.484 265.354C185.22 266.595 184.622 267.74 183.754 268.665C183.312 269.111 182.766 269.439 182.166 269.621C181.565 269.802 180.929 269.83 180.315 269.703C179.704 269.548 179.171 269.177 178.815 268.657C178.458 268.138 178.303 267.506 178.377 266.88C176.761 268.001 174.358 267.004 173.332 265.312C172.306 263.62 172.296 261.534 172.296 259.551C172.513 257.745 172.351 255.914 171.819 254.174C171.681 253.928 171.563 253.672 171.467 253.406C171.415 252.976 171.394 252.542 171.405 252.109C171.348 251.188 171.163 250.28 170.856 249.41C170.783 249.213 170.711 249.026 170.628 248.85C170.41 248.351 170.079 247.936 169.83 247.469C169.773 247.37 169.734 247.261 169.716 247.147C169.737 246.913 169.8 246.684 169.903 246.473Z" fill="#FFBF9D"/>
<path d="M164.723 243.929C164.118 243.861 163.506 243.925 162.928 244.117C162.35 244.308 161.821 244.623 161.377 245.04C160.413 246.078 160.185 248.694 160.341 250.137C162.029 250.458 162.931 250.085 164.609 250.407C164.971 250.469 165.262 250.407 165.562 250.593C166.339 251.144 166.215 253.002 166.525 253.905C166.855 254.665 167.462 255.271 168.223 255.599C168.983 255.927 169.839 255.952 170.618 255.669C171.382 255.34 172.036 254.799 172.502 254.109C172.968 253.419 173.228 252.61 173.249 251.777C173.264 250.101 172.655 248.479 171.54 247.23C170.694 246.237 169.651 245.431 168.477 244.862C167.304 244.294 166.025 243.976 164.723 243.929Z" fill="#FFBF9D"/>
<path d="M193.472 259.292C193.296 259.292 193.99 256.178 194.435 252.306C194.628 250.67 194.687 249.021 194.611 247.376C194.525 246.687 194.484 245.994 194.487 245.3C194.788 245.931 194.961 246.615 194.995 247.314C195.191 248.986 195.191 250.675 194.995 252.348C194.811 254.012 194.521 255.662 194.124 257.289C194 257.983 193.78 258.657 193.472 259.292Z" fill="#FF9A6C"/>
<path d="M185.256 265.935C185.321 264.942 185.47 263.955 185.702 262.987C186.033 261.171 186.499 258.679 186.852 255.908C187.16 253.544 187.306 251.161 187.287 248.777C187.287 246.94 187.131 245.819 187.214 245.798C187.504 246.757 187.658 247.753 187.67 248.756C187.8 251.165 187.702 253.58 187.38 255.97C187.075 258.355 186.643 260.721 186.085 263.06C185.901 264.043 185.624 265.005 185.256 265.935Z" fill="#FF9A6C"/>
<path d="M178.305 267.119C178.433 266.016 178.624 264.92 178.874 263.839C179.346 261.209 179.661 258.554 179.817 255.888C179.955 253.221 179.931 250.548 179.745 247.885C179.612 246.782 179.543 245.673 179.538 244.563C179.651 244.842 179.728 245.136 179.765 245.435C179.879 246.006 180.004 246.826 180.128 247.853C180.424 250.531 180.5 253.229 180.356 255.919C180.209 258.609 179.839 261.283 179.247 263.911C179.02 264.949 178.802 265.728 178.626 266.278C178.57 266.575 178.461 266.86 178.305 267.119Z" fill="#FF9A6C"/>
<path d="M169.146 246.795C169.146 246.732 169.768 246.909 170.566 247.511C171.599 248.321 172.394 249.397 172.866 250.625C173.374 251.843 173.483 253.191 173.176 254.476C172.876 255.514 172.244 255.825 172.223 255.763C172.477 255.327 172.672 254.859 172.803 254.372C172.981 253.171 172.83 251.944 172.368 250.822C171.907 249.684 171.199 248.663 170.296 247.833C169.623 247.158 169.105 246.867 169.146 246.795Z" fill="#FF9A6C"/>
</g>
<defs>
<clipPath id="clip0_196_1433">
<rect width="504" height="498" fill="white"/>
</clipPath>
</defs>
</svg>
