<svg width="204" height="40" viewBox="0 0 204 40" fill="none" xmlns="http://www.w3.org/2000/svg">
<rect width="60" height="40" rx="6" fill="white"/>
<circle cx="22" cy="20" r="12" fill="#E33A24"/>
<circle cx="37" cy="20" r="12" fill="#F8CB2E" fill-opacity="0.8"/>
<rect x="72" width="60" height="40" rx="6" fill="white"/>
<path d="M101.623 13.2606L98.5702 27.5316H94.8781L97.9309 13.2606H101.623ZM117.155 22.4755L119.099 17.1165L120.217 22.4755H117.155ZM121.276 27.5316H124.69L121.707 13.2606H118.558C117.849 13.2606 117.25 13.6721 116.986 14.3067L111.446 27.5316H115.323L116.093 25.4003H120.829L121.276 27.5316ZM111.638 22.8726C111.654 19.1063 106.432 18.8976 106.467 17.2147C106.478 16.7034 106.966 16.1587 108.032 16.0194C108.561 15.9514 110.019 15.8962 111.673 16.6582L112.32 13.6307C111.432 13.3094 110.289 13 108.867 13C105.217 13 102.649 14.9387 102.629 17.7171C102.605 19.7716 104.463 20.9172 105.859 21.6015C107.299 22.3009 107.782 22.7493 107.775 23.3743C107.765 24.3317 106.626 24.7558 105.567 24.7718C103.709 24.8007 102.633 24.2698 101.775 23.8699L101.105 26.9984C101.969 27.3939 103.561 27.7379 105.209 27.7556C109.09 27.7556 111.627 25.8397 111.638 22.8726ZM96.3472 13.2606L90.3651 27.5316H86.463L83.519 16.1424C83.3406 15.442 83.1849 15.1846 82.6421 14.8886C81.7543 14.4065 80.2887 13.9555 79 13.675L79.0873 13.2606H85.3695C86.1696 13.2606 86.8896 13.7931 87.0729 14.715L88.628 22.9737L92.4685 13.2606H96.3472Z" fill="#1434CB"/>
<rect x="144" width="60" height="40" rx="6" fill="white"/>
<path fill-rule="evenodd" clip-rule="evenodd" d="M154.346 14.0022C154.766 13.9997 156.014 13.8873 156.543 15.6713C156.899 16.873 157.466 18.8414 158.244 21.5766H158.561C159.396 18.693 159.969 16.7245 160.281 15.6713C160.815 13.8687 162.151 14.0022 162.685 14.0022L166.805 14.0022V26.8204H162.605V19.2664H162.324L159.983 26.8204H156.823L154.482 19.2608H154.2V26.8204H150V14.0022L154.346 14.0022ZM172.836 14.0022V21.5618H173.171L176.019 15.3456C176.572 14.1086 177.75 14.0022 177.75 14.0022H181.814V26.8204H177.527V19.2608H177.192L174.4 25.477C173.847 26.7085 172.613 26.8204 172.613 26.8204H168.549V14.0022H172.836ZM196.634 20.0935C196.036 21.7883 194.158 23.0021 192.079 23.0021H187.582V26.8204H183.505V20.0935H196.634Z" fill="#0F754E"/>
<path fill-rule="evenodd" clip-rule="evenodd" d="M192.275 14.002H183.291C183.505 16.8557 185.962 19.2987 188.507 19.2987H196.917C197.403 16.9269 195.732 14.002 192.275 14.002Z" fill="url(#paint0_linear_1_7184)"/>
<defs>
<linearGradient id="paint0_linear_1_7184" x1="197" y1="17.3338" x2="183.291" y2="17.3338" gradientUnits="userSpaceOnUse">
<stop stop-color="#1F5CD7"/>
<stop offset="1" stop-color="#02AEFF"/>
</linearGradient>
</defs>
</svg>
