<svg width="24" height="24" viewBox="0 0 24 24" fill="none" xmlns="http://www.w3.org/2000/svg">
<path d="M20.6706 19.0839L17.1868 15.5986C19.7936 12.115 19.0828 7.17776 15.5992 4.57096C12.1156 1.96417 7.17837 2.67496 4.57157 6.15854C1.96478 9.64212 2.67557 14.5794 6.15915 17.1862C8.95745 19.2802 12.8009 19.2802 15.5992 17.1862L19.0845 20.6715C19.5225 21.1095 20.2326 21.1095 20.6706 20.6715C21.1086 20.2335 21.1086 19.5234 20.6706 19.0854L20.6706 19.0839ZM10.9082 16.5135C7.81218 16.5135 5.30237 14.0037 5.30237 10.9076C5.30237 7.81157 7.81218 5.30176 10.9082 5.30176C14.0043 5.30176 16.5141 7.81157 16.5141 10.9076C16.5108 14.0023 14.0029 16.5102 10.9082 16.5135Z" fill="#B0B0BB"/>
</svg>
