<svg width="24" height="24" viewBox="0 0 24 24" fill="none" xmlns="http://www.w3.org/2000/svg">
<g clip-path="url(#clip0_174_2743)">
<path d="M4.7326 22.7379C5.3481 23.1895 6.09086 23.4345 6.85431 23.4379C7.62895 23.4345 8.38208 23.1829 9.00303 22.7199L12.004 20.5129L15.005 22.7189C15.6231 23.1737 16.3695 23.4209 17.1369 23.4248C17.9043 23.4287 18.6532 23.1892 19.2759 22.7407C19.8985 22.2922 20.3628 21.6579 20.602 20.9289C20.8412 20.1999 20.8429 19.4139 20.6069 18.6839L19.4365 15.0649L22.5166 12.8129C23.1343 12.3618 23.5934 11.7269 23.8283 10.9991C24.0632 10.2713 24.0619 9.48789 23.8245 8.76091C23.5871 8.03393 23.1258 7.40063 22.5065 6.9516C21.8873 6.50256 21.1418 6.26081 20.3769 6.26091H16.6056L15.4562 2.69091C15.2211 1.95985 14.76 1.32223 14.1393 0.869889C13.5185 0.417549 12.7702 0.173828 12.002 0.173828C11.2339 0.173828 10.4855 0.417549 9.8648 0.869889C9.24406 1.32223 8.78295 1.95985 8.54788 2.69091L7.4025 6.26091H3.63123C2.86615 6.2606 2.12057 6.5022 1.50117 6.95115C0.881768 7.40011 0.420284 8.0334 0.182744 8.76043C-0.0547962 9.48746 -0.0562206 10.271 0.178675 10.9989C0.41357 11.7267 0.872748 12.3617 1.49051 12.8129L4.57155 15.0649L3.40115 18.6839C3.15684 19.4129 3.15446 20.2012 3.39435 20.9316C3.63424 21.6621 4.1036 22.2956 4.7326 22.7379Z" fill="#F9AC39"/>
</g>
<defs>
<clipPath id="clip0_174_2743">
<rect width="24" height="24" fill="white"/>
</clipPath>
</defs>
</svg>
