<svg width="24" height="25" viewBox="0 0 24 25" fill="none" xmlns="http://www.w3.org/2000/svg">
<g clip-path="url(#clip0_186_5612)">
<path d="M22 4.5H17V2.5C17 1.96957 16.7893 1.46086 16.4142 1.08579C16.0391 0.710714 15.5304 0.5 15 0.5H9C8.46957 0.5 7.96086 0.710714 7.58579 1.08579C7.21071 1.46086 7 1.96957 7 2.5V4.5H2V6.5H4V21.5C4 22.2956 4.31607 23.0587 4.87868 23.6213C5.44129 24.1839 6.20435 24.5 7 24.5H17C17.7956 24.5 18.5587 24.1839 19.1213 23.6213C19.6839 23.0587 20 22.2956 20 21.5V6.5H22V4.5ZM9 2.5H15V4.5H9V2.5ZM18 21.5C18 21.7652 17.8946 22.0196 17.7071 22.2071C17.5196 22.3946 17.2652 22.5 17 22.5H7C6.73478 22.5 6.48043 22.3946 6.29289 22.2071C6.10536 22.0196 6 21.7652 6 21.5V6.5H18V21.5Z" fill="#B0B0BB"/>
<path d="M11 10.5H9V18.5H11V10.5Z" fill="#B0B0BB"/>
<path d="M15 10.5H13V18.5H15V10.5Z" fill="#B0B0BB"/>
</g>
<defs>
<clipPath id="clip0_186_5612">
<rect width="24" height="24" fill="white" transform="translate(0 0.5)"/>
</clipPath>
</defs>
</svg>
