<svg width="24" height="24" viewBox="0 0 24 24" fill="none" xmlns="http://www.w3.org/2000/svg">
<path d="M16.4716 19.9993C16.84 20.4108 17.4722 20.4457 17.8837 20.0773C18.2952 19.7089 18.33 19.0767 17.9616 18.6652L16.4716 19.9993ZM6.0382 18.6652C5.66979 19.0767 5.70469 19.7089 6.11614 20.0773C6.52759 20.4457 7.15979 20.4108 7.5282 19.9993L6.0382 18.6652ZM12 20C7.58172 20 4 16.4183 4 12H2C2 17.5228 6.47715 22 12 22V20ZM4 12C4 7.58172 7.58172 4 12 4V2C6.47715 2 2 6.47715 2 12H4ZM12 4C16.4183 4 20 7.58172 20 12H22C22 6.47715 17.5228 2 12 2V4ZM20 12C20 16.4183 16.4183 20 12 20V22C17.5228 22 22 17.5228 22 12H20ZM17.9616 18.6652C16.4982 17.0308 14.3688 16 12 16V18C13.7765 18 15.3716 18.7708 16.4716 19.9993L17.9616 18.6652ZM12 16C9.63118 16 7.50161 17.0308 6.0382 18.6652L7.5282 19.9993C8.62823 18.7708 10.2235 18 12 18V16ZM12 13C10.8954 13 10 12.1046 10 11H8C8 13.2091 9.79086 15 12 15V13ZM10 11C10 9.89543 10.8954 9 12 9V7C9.79086 7 8 8.79086 8 11H10ZM12 9C13.1046 9 14 9.89543 14 11H16C16 8.79086 14.2091 7 12 7V9ZM14 11C14 12.1046 13.1046 13 12 13V15C14.2091 15 16 13.2091 16 11H14Z" fill="#1C1E27"/>
</svg>
