<svg width="57" height="24" viewBox="0 0 57 24" fill="none" xmlns="http://www.w3.org/2000/svg">
<g clip-path="url(#clip0_174_2610)">
<path d="M24.7033 20.7409H20.0859L22.974 3.31641H27.5911L24.7033 20.7409Z" fill="#00579F"/>
<path d="M41.4369 3.74183C40.5261 3.38927 39.0816 3 37.2954 3C32.7356 3 29.5246 5.37257 29.5049 8.76463C29.467 11.2673 31.8039 12.6573 33.5517 13.4918C35.3381 14.3445 35.9453 14.901 35.9453 15.6611C35.9272 16.8284 34.5018 17.3665 33.1724 17.3665C31.3289 17.3665 30.3412 17.0891 28.8401 16.4396L28.2321 16.1612L27.5859 20.0727C28.6689 20.5541 30.6641 20.9813 32.7356 21C37.5805 21 40.7347 18.6641 40.772 15.0494C40.7905 13.0658 39.5565 11.5459 36.8962 10.304C35.2813 9.50671 34.2922 8.96912 34.2922 8.15338C34.3112 7.4118 35.1288 6.65223 36.9518 6.65223C38.4529 6.61503 39.5558 6.9671 40.3913 7.31941L40.8089 7.50444L41.4369 3.74183Z" fill="#00579F"/>
<path d="M47.5736 14.568C47.9538 13.567 49.417 9.69278 49.417 9.69278C49.3978 9.72999 49.7965 8.67329 50.0245 8.02459L50.3472 9.52599C50.3472 9.52599 51.2216 13.6968 51.4115 14.568C50.6899 14.568 48.4856 14.568 47.5736 14.568ZM53.2732 3.31641H49.7016C48.6002 3.31641 47.7634 3.63127 47.2882 4.76212L40.4297 20.7406H45.2746C45.2746 20.7406 46.0722 18.59 46.2437 18.1269C46.7752 18.1269 51.4883 18.1269 52.172 18.1269C52.3046 18.7386 52.723 20.7406 52.723 20.7406H56.9982L53.2732 3.31641Z" fill="#00579F"/>
<path d="M16.2281 3.31641L11.7061 15.1982L11.212 12.7885C10.376 10.0079 7.75405 6.98687 4.82812 5.48473L8.97007 20.7224H13.8528L21.1106 3.31641H16.2281Z" fill="#00579F"/>
<path d="M7.50495 3.31641H0.076001L0 3.66847C5.79504 5.11444 9.63298 8.59987 11.2098 12.7892L9.59486 4.78109C9.32898 3.66823 8.5119 3.35312 7.50495 3.31641Z" fill="#FAA61A"/>
</g>
<defs>
<clipPath id="clip0_174_2610">
<rect width="57" height="18" fill="white" transform="translate(0 3)"/>
</clipPath>
</defs>
</svg>
