<svg width="24" height="24" viewBox="0 0 24 24" fill="none" xmlns="http://www.w3.org/2000/svg">
<g clip-path="url(#clip0_196_3839)">
<path d="M0 11.52C0 6.0894 0 3.37413 1.68707 1.68707C3.37413 0 6.0894 0 11.52 0H12.48C17.9106 0 20.6259 0 22.313 1.68707C24 3.37413 24 6.0894 24 11.52V12.48C24 17.9106 24 20.6259 22.313 22.313C20.6259 24 17.9106 24 12.48 24H11.52C6.0894 24 3.37413 24 1.68707 22.313C0 20.6259 0 17.9106 0 12.48V11.52Z" fill="#0077FF"/>
<path d="M12.7698 17.29C7.29976 17.29 4.1798 13.54 4.0498 7.30005H6.7898C6.8798 11.88 8.89976 13.82 10.4998 14.22V7.30005H13.0799V11.25C14.6599 11.08 16.3197 9.28005 16.8797 7.30005H19.4597C19.0297 9.74005 17.2297 11.54 15.9497 12.28C17.2297 12.88 19.2798 14.45 20.0598 17.29H17.2197C16.6097 15.39 15.0899 13.92 13.0799 13.72V17.29H12.7698Z" fill="white"/>
</g>
<defs>
<clipPath id="clip0_196_3839">
<rect width="24" height="24" fill="white"/>
</clipPath>
</defs>
</svg>
